<?xml version="1.0" encoding="UTF-8"?>
<svg id="_Слой_2" data-name="Слой 2" xmlns="http://www.w3.org/2000/svg" viewBox="0 0 131.38 155.57">
  <defs>
    <style>
      .cls-1 {
        fill: #ec1d35;
      }

      .cls-2 {
        fill: #c8c9ca;
      }

      .cls-3 {
        fill: #402fff;
      }

      .cls-4 {
        fill: #1b1c21;
      }
    </style>
  </defs>
  <g id="_Слой_12" data-name="Слой 12">
    <path class="cls-2" d="M43.87,84.6c-.78-.56-1.36-1.35-1.65-2.26-.3-.91-.3-1.89-.01-2.79l.95-3.91c.17-.69.48-1.33.92-1.89.43-.56.98-1.02,1.61-1.36l3.11-1.63c1.93-.99,3.46-2.6,4.37-4.56.9-1.96,1.13-4.17.63-6.27l-.04-.2c-.58-2.35-2.01-4.41-4.03-5.76-2.02-1.35-4.47-1.91-6.88-1.56l-3.48.5c-.71.1-1.43.05-2.12-.14-.69-.2-1.33-.54-1.87-1l-3.08-2.61c-.77-.57-1.34-1.36-1.63-2.27-.29-.9-.29-1.88-.01-2.79.66-2.01.64-4.18-.05-6.17-.69-2-2.01-3.72-3.77-4.9-1.76-1.18-3.86-1.76-5.98-1.65-2.11.11-4.14.91-5.76,2.27-1.62,1.36-2.76,3.21-3.23,5.27-.48,2.06-.27,4.22.6,6.15.86,1.93,2.34,3.52,4.19,4.54,1.86,1.02,4,1.41,6.1,1.11.34-.05.67-.12,1.01-.2l.9-.17c.75-.15,1.53-.12,2.27.07.74.19,1.43.55,2.01,1.05l4.19,3.61c.64.56,1.13,1.27,1.42,2.07.3.8.38,1.65.26,2.49l-.1.64-.09.56v.05c-.14,1.16-.06,2.33.22,3.47,0,.07,0,.13.05.19v.07c.4,1.54,1.18,2.95,2.26,4.11.13.14.26.27.4.4l.45.46c.61.61,1.04,1.36,1.28,2.18.23.82.25,1.69.05,2.52l-1.28,5.35c-.17.74-.52,1.44-1,2.03-.49.59-1.1,1.06-1.8,1.38l-.78.36c-.32.12-.63.27-.94.43-1.42.75-2.64,1.84-3.53,3.18-1.48,2.11-2.06,4.73-1.61,7.26.46,2.54,1.9,4.79,4.03,6.27,2.12,1.47,4.74,2.05,7.29,1.6,2.54-.45,4.81-1.89,6.29-4.01.87-1.2,1.46-2.58,1.71-4.04.07-.33.12-.66.14-1l.1-.85c-.05-1.5-.45-2.96-1.16-4.29-.71-1.32-1.71-2.46-2.93-3.35Z"/>
    <path class="cls-1" d="M118.4,38.11c-.51-1.57-1.42-2.98-2.63-4.1-1.21-1.12-2.69-1.92-4.3-2.32-1.6-.4-3.28-.38-4.88.04-1.6.43-3.06,1.25-4.26,2.39-.25.23-.49.47-.72.72l-.59.64c-.52.56-1.16,1-1.87,1.28-.71.28-1.48.39-2.24.33l-5.51-.45c-.86-.07-1.68-.36-2.4-.83-.71-.47-1.29-1.12-1.69-1.88l-.29-.57c-.09-.17-.17-.34-.26-.5v-.05c-.57-1.02-1.33-1.93-2.23-2.68l-.14-.11-.07-.06c-1.23-1-2.69-1.69-4.25-2h-.06l-.56-.09-.64-.05c-.85-.14-1.65-.49-2.32-1.02-.67-.53-1.2-1.22-1.54-2.01l-2.13-5.05c-.29-.71-.42-1.47-.37-2.23.04-.76.26-1.51.63-2.17l.43-.72c.19-.29.35-.59.5-.89.66-1.33,1-2.79.99-4.27-.06-2.53-1.12-4.94-2.95-6.71-1.82-1.77-4.26-2.76-6.8-2.76s-4.99.99-6.81,2.76c-1.82,1.77-2.88,4.17-2.95,6.71,0,1.48.33,2.94.99,4.27.16.3.32.6.5.89l.43.72c.37.67.59,1.41.64,2.17.04.76-.09,1.53-.38,2.23l-2.13,5.05c-.33.78-.86,1.47-1.52,2-.67.53-1.47.88-2.31,1.02l-.63.1-.56.09h-.05c-1.16.23-2.26.66-3.25,1.29l-.15.09s-.05.03-.08.05c-1.34.86-2.45,2.04-3.22,3.43v.05c-.09.16-.17.33-.25.5-3.96,8.46,4.7,13.15,5.79,13.44,1.34.4,2.75.53,4.13.37,1.39-.16,2.73-.6,3.94-1.29l.18-.12c2.07-1.28,3.58-3.28,4.24-5.61.66-2.33.42-4.82-.67-6.98l-1.58-3.18c-.32-.64-.5-1.34-.52-2.05-.03-.71.1-1.42.37-2.08l1.51-3.72c.3-.9.88-1.68,1.66-2.24.77-.55,1.7-.85,2.66-.85s1.88.3,2.66.85c.77.55,1.35,1.34,1.66,2.24l1.53,3.72c.28.66.4,1.37.38,2.08s-.2,1.41-.51,2.05l-1.56,3.15c-.97,1.94-1.26,4.14-.83,6.26.43,2.12,1.57,4.04,3.22,5.44l.15.14c1.27,1.06,2.79,1.79,4.41,2.1,1.63.32,3.31.21,4.88-.3,1.45-.46,2.76-1.25,3.84-2.32l2.53-2.45c.51-.51,1.12-.9,1.79-1.14.68-.25,1.4-.35,2.11-.3l4.03.3c.96.01,1.88.32,2.65.88s1.35,1.34,1.65,2.25c.62,1.89,2.17,5.52,7.88,6.61,1.64.23,3.31.04,4.85-.55,1.55-.59,2.92-1.56,3.99-2.83,1.06-1.26,1.79-2.78,2.1-4.39.32-1.62.22-3.29-.29-4.86l.05.06Z"/>
    <path class="cls-3" d="M83.18,52.78c-1.33.45-2.54,1.17-3.57,2.12-1.03.94-1.85,2.09-2.41,3.36,0,.07-.06.13-.08.2-.91,2.24-.95,4.74-.11,7.01.84,2.27,2.5,4.15,4.66,5.26l3.12,1.63c.63.33,1.19.8,1.63,1.36.44.56.75,1.21.92,1.9l.96,3.91c.29.91.29,1.89-.01,2.79-.3.91-.87,1.7-1.65,2.26-.77.56-1.7.86-2.66.86-.96,0-1.89-.3-2.67-.86l-3.44-2.11c-.61-.37-1.13-.87-1.54-1.45-.4-.59-.68-1.25-.81-1.95l-.59-3.46c-.35-2.13-1.41-4.09-3.01-5.56-1.6-1.47-3.64-2.36-5.8-2.54h-.21c-2.43-.17-4.83.56-6.74,2.06-1.91,1.5-3.19,3.65-3.59,6.04-1.38,8.23,6.05,10.91,8.93,11.28h.26c1.59.09,3.18-.21,4.63-.87h.05l.51-.25.57-.29c.77-.39,1.62-.57,2.48-.54.85.03,1.69.28,2.43.72l4.71,2.89c.66.4,1.21.94,1.63,1.58.41.64.67,1.37.76,2.13l.1.85c.02.34.06.68.12,1.02.29,1.63.98,3.15,2.02,4.44,1.04,1.28,2.39,2.29,3.93,2.91,1.54.62,3.21.84,4.85.64,1.65-.2,3.21-.81,4.56-1.78,1.34-.97,2.41-2.27,3.11-3.76.7-1.5,1.01-3.15.89-4.79-.12-1.65-.66-3.24-1.56-4.62-.91-1.38-2.15-2.51-3.61-3.29-.31-.16-.62-.3-.94-.43l-.78-.36c-.7-.32-1.31-.79-1.8-1.38-.49-.59-.83-1.28-1.01-2.02l-1.27-5.36c-.2-.83-.18-1.7.05-2.52.23-.82.67-1.57,1.27-2.18l.46-.46c.14-.13.27-.26.4-.4v-.04c.8-.86,1.43-1.85,1.87-2.93l.06-.17v-.08c.58-1.48.78-3.07.6-4.65v-.06c-1.29-9.41-10.6-8.84-12.68-8.07Z"/>
    <path class="cls-4" d="M31.7,123.18v-1.08c-.62,0-1.18-.13-1.66-.4-.47-.27-.84-.64-1.11-1.13-.26-.48-.39-1.05-.39-1.71v-3.56c0-.67.13-1.25.39-1.74.27-.49.64-.87,1.11-1.14.47-.28,1.03-.42,1.66-.42v-1.08h1.39v1.08c.64,0,1.2.14,1.67.42.47.27.84.65,1.09,1.14.27.49.4,1.07.4,1.74v3.56c0,.66-.13,1.23-.4,1.71-.25.48-.62.86-1.11,1.13-.47.27-1.02.4-1.65.4v1.08h-1.39ZM31.72,120.83v-7.57c-.56,0-.99.18-1.31.55-.31.36-.46.85-.46,1.48v3.56c0,.62.15,1.1.46,1.45.32.35.75.53,1.31.53ZM33.08,120.83c.55,0,.98-.17,1.29-.53.32-.35.48-.83.48-1.45v-3.56c0-.63-.16-1.12-.48-1.48-.31-.37-.74-.55-1.29-.55v7.57ZM40.72,122.95c-.68,0-1.27-.13-1.79-.4-.5-.28-.89-.66-1.17-1.14-.28-.49-.42-1.07-.42-1.73v-2.27c0-.65.14-1.21.42-1.7.28-.49.67-.87,1.17-1.14.52-.28,1.11-.42,1.79-.42s1.27.14,1.77.42c.52.27.91.65,1.19,1.14.28.48.42,1.05.42,1.7v1.51h-5.26v.76c0,.66.16,1.16.48,1.5.33.34.79.51,1.4.51.51,0,.93-.09,1.23-.26.31-.18.51-.46.59-.82h1.51c-.1.72-.46,1.29-1.08,1.71-.6.42-1.35.63-2.25.63ZM38.84,117.41v.42h3.78v-.42c0-.65-.17-1.14-.5-1.48-.31-.35-.78-.52-1.4-.52s-1.08.17-1.4.52c-.32.34-.48.83-.48,1.48ZM44.86,124.95v-3.47h.67c.16-.17.34-.51.52-1,.2-.5.3-1.14.33-1.91l.09-4.26h5.63v7.17h1.06v3.47h-1.37v-2.16h-5.55v2.16h-1.38ZM47.12,121.48h3.48v-5.83h-2.7l-.06,2.95c-.02.78-.11,1.42-.28,1.91-.15.49-.3.82-.44.97ZM57.37,122.95c-.68,0-1.28-.13-1.79-.4-.51-.28-.9-.66-1.18-1.14-.27-.49-.41-1.07-.41-1.73v-2.27c0-.65.14-1.21.41-1.7.28-.49.67-.87,1.18-1.14.51-.28,1.11-.42,1.79-.42s1.27.14,1.77.42c.51.27.91.65,1.19,1.14.27.48.41,1.05.41,1.7v1.51h-5.26v.76c0,.66.16,1.16.48,1.5.33.34.8.51,1.41.51.51,0,.92-.09,1.23-.26.31-.18.5-.46.59-.82h1.51c-.11.72-.47,1.29-1.08,1.71-.61.42-1.36.63-2.25.63ZM55.48,117.41v.42h3.78v-.42c0-.65-.16-1.14-.49-1.48-.32-.35-.79-.52-1.4-.52s-1.09.17-1.41.52c-.32.34-.48.83-.48,1.48ZM62.43,125.57v-11.26h1.52v1.59h.01c.1-.55.36-.97.76-1.28.41-.31.93-.46,1.55-.46.85,0,1.53.29,2.04.86.51.57.77,1.34.77,2.31v2.42c0,.99-.26,1.77-.77,2.34-.5.57-1.18.85-2.04.85-.61,0-1.13-.15-1.54-.46-.41-.32-.67-.75-.77-1.3h-.03l.03,1.93v2.45h-1.53ZM65.75,121.62c.57,0,1.01-.16,1.33-.49.31-.34.47-.82.47-1.45v-2.27c0-.62-.16-1.09-.47-1.42-.32-.34-.76-.51-1.33-.51s-.99.17-1.31.51c-.32.34-.48.82-.48,1.43v2.25c0,.62.16,1.09.48,1.43.32.34.75.51,1.31.51ZM73.22,122.95c-.89,0-1.59-.23-2.11-.68-.5-.46-.75-1.09-.75-1.87s.26-1.43.78-1.88c.54-.46,1.26-.69,2.18-.69h2.46v-.8c0-.49-.15-.87-.46-1.14-.3-.28-.71-.42-1.25-.42-.48,0-.89.11-1.22.32-.32.21-.51.48-.58.82h-1.5c.04-.49.21-.92.51-1.28.3-.37.69-.66,1.17-.86.49-.21,1.03-.31,1.64-.31.98,0,1.77.26,2.34.77.59.5.88,1.19.88,2.05v5.81h-1.5v-1.57h-.01c-.07.53-.34.96-.8,1.27-.47.31-1.06.46-1.78.46ZM73.64,121.76c.62,0,1.13-.15,1.53-.46.41-.32.61-.72.61-1.22v-1.16h-2.43c-.46,0-.82.12-1.08.37-.26.25-.39.58-.39,1,0,.46.16.82.46,1.08.31.26.75.39,1.3.39ZM85.08,124.95v-2.16h-6.02v-8.48h1.53v7.11h3.18v-7.11h1.52v7.11h1.16v3.53h-1.37ZM87.39,122.79v-8.48h1.43v4.5c0,.3-.01.62-.03.96-.02.33-.05.65-.08.97-.03.31-.05.57-.08.79l3.37-7.22h1.92v8.48h-1.43v-4.52c0-.29.01-.6.03-.93.02-.34.04-.66.06-.96.03-.31.06-.57.1-.79l-3.37,7.19h-1.92ZM95.32,122.79l2.1-3.22c-.61-.15-1.08-.46-1.43-.91-.35-.46-.53-1.01-.53-1.64,0-.83.28-1.49.83-1.97.57-.49,1.34-.74,2.32-.74h3.64v8.48h-1.53v-3.11h-1.74l-1.9,3.11h-1.76ZM98.62,118.4h2.1v-2.78h-2.1c-.49,0-.89.13-1.18.39-.29.25-.44.59-.44,1.02s.15.76.44,1c.29.25.69.37,1.18.37ZM24.14,137.95c-1.04,0-1.87-.29-2.5-.86-.63-.59-.94-1.39-.94-2.41v-2.27c0-1.01.31-1.8.94-2.38.63-.59,1.46-.88,2.5-.88s1.8.27,2.4.8c.61.53.93,1.24.96,2.16h-1.51c-.03-.51-.21-.91-.54-1.19-.33-.29-.77-.43-1.31-.43-.59,0-1.06.17-1.41.51-.34.33-.5.8-.5,1.4v2.27c0,.62.16,1.09.5,1.42.35.33.82.49,1.41.49.54,0,.98-.14,1.31-.42s.51-.67.54-1.19h1.51c-.03.91-.35,1.64-.96,2.17-.6.52-1.4.79-2.4.79ZM29.13,137.79v-8.48h6.54v8.48h-1.53v-7.09h-3.48v7.09h-1.53ZM40.72,137.91c-1.04,0-1.86-.29-2.47-.86-.6-.59-.91-1.38-.91-2.39v-2.22c0-1.01.31-1.8.91-2.38.61-.59,1.43-.88,2.47-.88s1.86.29,2.47.88c.61.58.91,1.36.91,2.36v2.24c0,1.01-.3,1.8-.91,2.39-.61.58-1.43.86-2.47.86ZM40.72,136.57c.58,0,1.03-.16,1.36-.48.33-.33.49-.81.49-1.43v-2.22c0-.63-.16-1.1-.49-1.42-.33-.33-.78-.49-1.36-.49s-1.03.16-1.36.49c-.33.32-.49.79-.49,1.42v2.22c0,.63.16,1.11.49,1.43.33.32.79.48,1.36.48ZM45.79,140.57v-11.26h1.51v1.59h.02c.1-.55.35-.97.75-1.28.41-.31.93-.46,1.56-.46.84,0,1.52.29,2.04.86.51.57.77,1.34.77,2.31v2.42c0,.99-.26,1.77-.77,2.34-.51.57-1.19.85-2.04.85-.62,0-1.13-.15-1.54-.46-.41-.32-.67-.75-.77-1.3h-.03l.03,1.93v2.45h-1.53ZM49.1,136.62c.57,0,1.01-.16,1.33-.49.32-.34.48-.82.48-1.45v-2.27c0-.62-.16-1.09-.48-1.42-.32-.34-.76-.51-1.33-.51s-.99.17-1.31.51c-.31.34-.47.82-.47,1.43v2.25c0,.62.16,1.09.47,1.43.32.34.76.51,1.31.51ZM56.61,137.79v-7.12h-3.04v-1.36h7.61v1.36h-3.04v7.12h-1.53ZM62.42,137.79v-8.48h1.43v4.5c0,.3-.01.62-.03.96-.02.33-.04.65-.08.97-.03.31-.05.57-.07.79l3.36-7.22h1.93v8.48h-1.44v-4.52c0-.29.01-.6.03-.93.02-.34.05-.66.07-.96.03-.31.06-.57.09-.79l-3.36,7.19h-1.93ZM70.74,137.79v-8.48h3.69c.86,0,1.54.2,2.05.59.51.39.77.91.77,1.57,0,.51-.17.93-.49,1.25-.33.32-.78.49-1.35.51v.06c.65.02,1.17.22,1.55.6.39.38.58.88.58,1.51,0,.73-.27,1.31-.8,1.74-.53.43-1.26.65-2.17.65h-3.83ZM72.24,132.84h2.17c.42,0,.75-.1.99-.29.24-.21.35-.49.35-.85s-.11-.62-.35-.82c-.24-.2-.57-.29-.99-.29h-2.17v2.25ZM72.24,136.51h2.29c.48,0,.84-.11,1.1-.32.27-.23.4-.53.4-.92s-.13-.69-.4-.91c-.26-.23-.62-.34-1.1-.34h-2.29v2.5ZM79.06,137.79v-8.48h1.53v3.44h3.49v-3.44h1.52v8.48h-1.52v-3.66h-3.49v3.66h-1.53ZM90.66,137.91c-1.04,0-1.87-.29-2.47-.86-.61-.59-.91-1.38-.91-2.39v-2.22c0-1.01.3-1.8.91-2.38.6-.59,1.43-.88,2.47-.88s1.86.29,2.46.88c.61.58.91,1.36.91,2.36v2.24c0,1.01-.3,1.8-.91,2.39-.6.58-1.43.86-2.46.86ZM90.66,136.57c.57,0,1.02-.16,1.35-.48.33-.33.5-.81.5-1.43v-2.22c0-.63-.17-1.1-.5-1.42-.33-.33-.78-.49-1.35-.49s-1.03.16-1.36.49c-.33.32-.5.79-.5,1.42v2.22c0,.63.17,1.11.5,1.43.33.32.78.48,1.36.48ZM96.32,137.79v-8.48h6.16v1.4h-4.63v7.08h-1.53ZM107.3,137.91c-1.04,0-1.86-.29-2.47-.86-.6-.59-.91-1.38-.91-2.39v-2.22c0-1.01.31-1.8.91-2.38.61-.59,1.43-.88,2.47-.88s1.86.29,2.47.88c.6.58.91,1.36.91,2.36v2.24c0,1.01-.31,1.8-.91,2.39-.61.58-1.43.86-2.47.86ZM107.3,136.57c.58,0,1.03-.16,1.36-.48.33-.33.49-.81.49-1.43v-2.22c0-.63-.16-1.1-.49-1.42-.33-.33-.78-.49-1.36-.49s-1.03.16-1.36.49c-.33.32-.49.79-.49,1.42v2.22c0,.63.16,1.11.49,1.43.33.32.78.48,1.36.48ZM0,152.79v-8.48h6.54v8.48h-1.53v-7.09H1.53v7.09H0ZM8.34,155.57v-11.26h1.51v1.59h.02c.1-.55.35-.98.75-1.28.41-.31.93-.47,1.56-.47.84,0,1.52.29,2.03.87.52.56.78,1.33.78,2.31v2.42c0,.99-.26,1.77-.78,2.35-.5.56-1.18.84-2.03.84-.62,0-1.13-.15-1.54-.46-.42-.32-.67-.75-.77-1.29h-.04l.04,1.92v2.46h-1.53ZM11.65,151.62c.57,0,1.01-.17,1.33-.5.32-.33.48-.82.48-1.45v-2.26c0-.62-.16-1.09-.48-1.42-.32-.34-.76-.51-1.33-.51s-.99.17-1.31.51c-.32.34-.47.82-.47,1.43v2.25c0,.62.15,1.1.47,1.44.32.34.76.51,1.31.51ZM19.91,152.91c-1.03,0-1.86-.28-2.46-.86-.61-.59-.91-1.38-.91-2.39v-2.22c0-1.01.3-1.8.91-2.38.6-.58,1.43-.88,2.46-.88s1.87.3,2.47.88c.61.58.91,1.37.91,2.36v2.24c0,1.01-.3,1.8-.91,2.39-.6.58-1.43.86-2.47.86ZM19.91,151.57c.58,0,1.03-.16,1.36-.48.33-.33.5-.8.5-1.43v-2.22c0-.63-.17-1.1-.5-1.42-.33-.33-.78-.49-1.36-.49s-1.02.16-1.35.49c-.33.32-.5.79-.5,1.42v2.22c0,.63.17,1.1.5,1.43.33.32.78.48,1.35.48ZM25.58,152.79v-8.48h6.16v1.4h-4.63v7.08h-1.53ZM33.31,155.57v-11.26h1.51v1.59h.01c.11-.55.36-.98.76-1.28.41-.31.93-.47,1.56-.47.84,0,1.52.29,2.03.87.52.56.77,1.33.77,2.31v2.42c0,.99-.25,1.77-.77,2.35-.5.56-1.18.84-2.03.84-.62,0-1.14-.15-1.55-.46-.41-.32-.66-.75-.77-1.29h-.03l.03,1.92v2.46h-1.52ZM36.62,151.62c.57,0,1.01-.17,1.33-.5.32-.33.48-.82.48-1.45v-2.26c0-.62-.16-1.09-.48-1.42-.32-.34-.76-.51-1.33-.51s-.99.17-1.31.51c-.32.34-.48.82-.48,1.43v2.25c0,.62.16,1.1.48,1.44.32.34.76.51,1.31.51ZM44.1,152.94c-.9,0-1.6-.22-2.12-.67-.5-.47-.75-1.09-.75-1.87s.26-1.43.78-1.88c.54-.46,1.26-.7,2.18-.7h2.47v-.8c0-.49-.16-.87-.47-1.14-.3-.28-.71-.42-1.25-.42-.48,0-.89.11-1.21.33-.32.2-.52.48-.59.82h-1.5c.04-.5.21-.92.51-1.28.3-.37.69-.66,1.17-.87.49-.2,1.03-.31,1.64-.31.99,0,1.77.26,2.34.77.59.51.88,1.19.88,2.06v5.81h-1.49v-1.57h-.02c-.07.53-.34.95-.8,1.26-.46.31-1.05.46-1.77.46ZM44.51,151.76c.62,0,1.13-.16,1.53-.47.41-.31.62-.72.62-1.21v-1.16h-2.44c-.45,0-.81.12-1.08.37-.26.25-.39.58-.39,1,0,.46.16.82.47,1.08.3.26.74.39,1.29.39ZM49.67,152.79v-8.48h1.99l1.1,3.24c.11.34.21.66.29.98.09.32.16.56.2.73.03-.17.09-.41.17-.73.08-.32.18-.65.29-1l1.04-3.22h1.99v8.48h-1.45v-1.34c0-.44,0-.95.01-1.51.02-.58.04-1.16.06-1.76.03-.6.06-1.16.08-1.68.02-.54.04-.99.06-1.37l-1.52,5.13h-1.5l-1.56-5.06c.02.34.04.77.06,1.28s.04,1.05.07,1.64c.02.57.03,1.15.04,1.74.02.58.03,1.11.03,1.59v1.34h-1.45ZM57.99,152.79v-8.48h1.99l1.1,3.24c.11.34.21.66.29.98.1.32.16.56.2.73.03-.17.09-.41.17-.73.09-.32.18-.65.3-1l1.03-3.22h1.99v8.48h-1.45v-1.34c0-.44,0-.95.01-1.51.02-.58.05-1.16.07-1.76.03-.6.05-1.16.07-1.68.02-.54.04-.99.06-1.37l-1.52,5.13h-1.5l-1.56-5.06c.02.34.05.77.07,1.28s.04,1.05.06,1.64c.02.57.03,1.15.04,1.74.02.58.03,1.11.03,1.59v1.34h-1.45ZM66.58,152.79v-8.48h1.43v4.5c0,.3,0,.62-.03.96-.02.33-.04.65-.07.97-.03.31-.06.57-.08.79l3.36-7.22h1.93v8.48h-1.44v-4.52c0-.29.01-.59.04-.92.02-.34.04-.66.06-.96.03-.31.06-.57.09-.79l-3.36,7.19h-1.93ZM74.92,155.57v-11.26h1.51v1.59h.01c.11-.55.36-.98.76-1.28.41-.31.93-.47,1.56-.47.84,0,1.52.29,2.03.87.52.56.77,1.33.77,2.31v2.42c0,.99-.25,1.77-.77,2.35-.5.56-1.18.84-2.03.84-.62,0-1.13-.15-1.54-.46-.42-.32-.67-.75-.78-1.29h-.03l.03,1.92v2.46h-1.52ZM78.23,151.62c.57,0,1.01-.17,1.33-.5.32-.33.48-.82.48-1.45v-2.26c0-.62-.16-1.09-.48-1.42-.32-.34-.76-.51-1.33-.51s-.99.17-1.31.51c-.32.34-.48.82-.48,1.43v2.25c0,.62.16,1.1.48,1.44.32.34.76.51,1.31.51ZM86.49,152.91c-1.03,0-1.86-.28-2.46-.86-.61-.59-.91-1.38-.91-2.39v-2.22c0-1.01.3-1.8.91-2.38.6-.58,1.43-.88,2.46-.88s1.87.3,2.47.88c.61.58.91,1.37.91,2.36v2.24c0,1.01-.3,1.8-.91,2.39-.6.58-1.43.86-2.47.86ZM86.49,151.57c.58,0,1.03-.16,1.36-.48.33-.33.49-.8.49-1.43v-2.22c0-.63-.16-1.1-.49-1.42-.33-.33-.78-.49-1.36-.49s-1.02.16-1.35.49c-.33.32-.5.79-.5,1.42v2.22c0,.63.17,1.1.5,1.43.33.32.78.48,1.35.48ZM91.55,152.79v-8.48h3.68c.87,0,1.55.19,2.05.58.52.39.78.92.78,1.58,0,.51-.17.93-.5,1.25-.33.31-.77.48-1.34.51v.06c.65.02,1.16.22,1.54.6.39.38.59.88.59,1.51,0,.73-.27,1.31-.8,1.74-.54.43-1.26.65-2.18.65h-3.82ZM93.04,147.84h2.18c.42,0,.75-.1.98-.29.24-.21.36-.49.36-.85s-.12-.62-.36-.82c-.23-.19-.56-.29-.98-.29h-2.18v2.25ZM93.04,151.51h2.3c.47,0,.84-.11,1.1-.32.26-.23.4-.54.4-.93s-.14-.69-.4-.91c-.26-.23-.63-.34-1.1-.34h-2.3v2.5ZM102.35,152.94c-.89,0-1.6-.22-2.11-.67-.5-.47-.76-1.09-.76-1.87s.27-1.43.79-1.88c.53-.46,1.26-.7,2.17-.7h2.47v-.8c0-.49-.15-.87-.46-1.14-.3-.28-.71-.42-1.25-.42-.48,0-.89.11-1.22.33-.32.2-.51.48-.58.82h-1.5c.04-.5.21-.92.51-1.28.3-.37.69-.66,1.17-.87.48-.2,1.03-.31,1.64-.31.98,0,1.76.26,2.34.77.59.51.88,1.19.88,2.06v5.81h-1.5v-1.57h-.01c-.07.53-.34.95-.8,1.26-.47.31-1.06.46-1.78.46ZM102.77,151.76c.62,0,1.12-.16,1.53-.47s.61-.72.61-1.21v-1.16h-2.43c-.46,0-.82.12-1.08.37s-.39.58-.39,1c0,.46.15.82.46,1.08.31.26.74.39,1.3.39ZM108.19,152.79v-8.48h1.53v3.44h3.48v-3.44h1.53v8.48h-1.53v-3.65h-3.48v3.65h-1.53ZM116.51,152.79v-8.48h1.44v4.5c0,.3-.01.62-.03.96-.02.33-.05.65-.08.97-.03.31-.06.57-.08.79l3.37-7.22h1.92v8.48h-1.43v-4.52c0-.29,0-.59.03-.92.02-.34.04-.66.06-.96.03-.31.06-.57.09-.79l-3.36,7.19h-1.93ZM124.45,152.79l2.1-3.22c-.61-.16-1.09-.46-1.44-.91-.35-.47-.52-1.01-.52-1.64,0-.83.28-1.49.83-1.97.57-.5,1.34-.74,2.32-.74h3.64v8.48h-1.53v-3.12h-1.74l-1.9,3.12h-1.76ZM127.75,148.39h2.1v-2.77h-2.1c-.49,0-.89.13-1.19.38-.28.25-.43.59-.43,1.02s.15.76.43,1c.3.25.7.37,1.19.37Z"/>
  </g>
</svg>