<svg width="80" height="80" xmlns="http://www.w3.org/2000/svg"><g fill="#009CE3" fill-rule="evenodd"><path d="M0 0v69h3V3h74v74H3v-5H0v8h80V0H0z"/><path d="m25.802 28.623.414-2.07.577-2.857h.103l.578 2.878.392 2.05h-2.064zm2.518-8.797h-2.971l-4.15 14.407h3.16c.136-.484.27-.973.402-1.471.13-.498.256-.988.38-1.47h3.407l.7 2.94h3.22L28.32 19.828zm8.478 30.078c-.221.331-.626.495-1.22.495h-1.65v-3.31h1.674c.536 0 .925.147 1.165.436.24.288.36.677.36 1.159s-.11.888-.33 1.22zm-2.87-8.34h1.467c.563 0 .964.117 1.196.352.234.234.352.594.352 1.075 0 .443-.118.8-.352 1.078-.232.276-.625.413-1.176.413h-1.486v-2.919zm5.677 5.453a2.922 2.922 0 0 0-.578-.756 2.276 2.276 0 0 0-.846-.497v-.102c.605-.25 1.038-.64 1.3-1.172.26-.528.39-1.065.39-1.6 0-1.272-.362-2.264-1.09-2.983-.731-.718-1.797-1.075-3.202-1.075h-4.642v14.404h4.849c.633 0 1.21-.096 1.735-.29.522-.194.97-.475 1.34-.849.374-.372.662-.83.867-1.377.207-.544.31-1.166.31-1.87 0-.305-.034-.614-.103-.934a3.42 3.42 0 0 0-.33-.898zm13.033-5.454h3.074v11.672h2.973V41.564h3.076v-2.732h-9.123v2.732zm19.839 5.962a3.279 3.279 0 0 0-.608-1.212 4.013 4.013 0 0 0-1.157-.97c-.481-.285-1.08-.537-1.797-.759a13.457 13.457 0 0 1-1.01-.352 5.944 5.944 0 0 1-.826-.392 2.11 2.11 0 0 1-.556-.456.84.84 0 0 1-.206-.557c0-.389.14-.695.423-.932.283-.235.642-.353 1.082-.353.84 0 1.604.41 2.29 1.222l2.147-2.029a4.71 4.71 0 0 0-1.764-1.5c-.693-.338-1.586-.508-2.673-.508a5.28 5.28 0 0 0-1.846.31c-.558.21-1.037.5-1.436.88a4.035 4.035 0 0 0-.93 1.347 4.325 4.325 0 0 0-.33 1.706c0 .54.07 1.02.208 1.45.138.427.355.807.65 1.139a4.42 4.42 0 0 0 1.144.888 8.909 8.909 0 0 0 1.695.703c.358.099.687.203.99.313.302.108.567.242.794.392.227.152.406.327.537.527.13.203.195.44.195.714 0 .4-.12.739-.358 1.015-.243.276-.681.414-1.313.414-.522 0-.987-.125-1.393-.372-.405-.248-.793-.636-1.166-1.16l-2.353 1.904c.247.36.53.688.847.985.316.297.67.55 1.063.765.39.214.832.383 1.32.508a6.724 6.724 0 0 0 1.64.182c1.556 0 2.756-.38 3.603-1.149.847-.765 1.269-1.836 1.269-3.216a5.61 5.61 0 0 0-.175-1.447zm-24.21 1.386c0 .481-.154.86-.463 1.137a1.61 1.61 0 0 1-1.105.414c-.59 0-1.014-.18-1.27-.539-.254-.36-.381-.813-.381-1.364V43.22a1.674 1.674 0 0 1 .382-1.048c.132-.156.3-.288.507-.394.205-.1.459-.153.762-.153s.554.06.753.178c.2.116.362.258.486.421.124.167.21.338.257.518.048.18.072.337.072.477v5.69zm1.898-8.723a4.07 4.07 0 0 0-1.423-1.056c-.578-.268-1.258-.404-2.043-.404-.84 0-1.551.14-2.136.425a4.29 4.29 0 0 0-1.435 1.087 4.144 4.144 0 0 0-.805 1.48 5.61 5.61 0 0 0-.248 1.626v5.13c0 .648.086 1.267.26 1.861a4.24 4.24 0 0 0 .815 1.563 3.88 3.88 0 0 0 1.433 1.068c.585.26 1.29.392 2.116.392.675 0 1.29-.108 1.847-.32a4.086 4.086 0 0 0 1.445-.932c.407-.406.723-.895.95-1.468.226-.577.34-1.22.34-1.935v-5.36c0-.567-.092-1.124-.28-1.678a4.393 4.393 0 0 0-.836-1.479zm-24.55 27.665c0 .483-.154.873-.463 1.169a1.54 1.54 0 0 1-1.104.445c-.592 0-1.016-.18-1.27-.538-.253-.359-.38-.814-.38-1.367v-9.724h-2.973v9.645c0 .648.086 1.266.258 1.86a4.26 4.26 0 0 0 .814 1.561c.372.449.85.806 1.434 1.067.586.261 1.29.394 2.117.394a5.16 5.16 0 0 0 1.847-.32 4.097 4.097 0 0 0 1.444-.934 4.24 4.24 0 0 0 .95-1.469c.228-.572.34-1.218.34-1.932v-9.872h-3.013v10.015zm14.67-38.567c0 .676-.128 1.207-.381 1.592-.254.387-.76.581-1.516.581h-1.26v-8.837h1.238c.427 0 .769.087 1.022.26.256.171.447.405.578.702.13.297.217.639.258 1.024.042.386.062.787.062 1.2v3.477zm2.58 2.462c.233-.622.359-1.37.373-2.247.013-.875.02-1.94.02-3.197 0-.868-.017-1.657-.052-2.367-.034-.712-.152-1.306-.34-1.79-.322-.828-.815-1.421-1.498-1.781-.68-.36-1.502-.54-2.464-.54h-4.748v14.407h4.479a7.36 7.36 0 0 0 1.353-.125 4.671 4.671 0 0 0 1.207-.403c.37-.188.697-.438.98-.758.28-.316.51-.717.69-1.199zm-29.08 12.683c-.337.255-.746.383-1.227.383h-1.611v-3.25h1.693c.482 0 .877.117 1.187.352.31.234.465.627.465 1.18 0 .632-.168 1.078-.507 1.336zm2.839 1.024c.358-.664.535-1.456.535-2.38 0-.745-.116-1.384-.35-1.915a3.608 3.608 0 0 0-.958-1.314 3.988 3.988 0 0 0-1.426-.766 5.927 5.927 0 0 0-1.723-.248H7.954v14.404h2.993v-5.69h1.26l1.919 5.69h3.24l-2.311-6.23a3.792 3.792 0 0 0 1.569-1.551zm-5.697-18.033.082-.02.972 2.482.804 1.99h2.146l.764-1.864.992-2.588.082.021v6.79h2.972V19.827h-2.806l-1.653 3.994-1.382 3.622h-.104l-1.424-3.6-1.672-4.017H7.954v14.407h2.973v-6.811zM22.212 43.22a1.694 1.694 0 0 1 .38-1.047c.132-.157.3-.29.507-.395a1.73 1.73 0 0 1 .764-.153c.302 0 .552.06.753.178.2.116.362.258.486.421.124.167.21.338.257.518.047.18.072.337.072.477v5.69c0 .483-.154.862-.465 1.139a1.6 1.6 0 0 1-1.103.413c-.592 0-1.015-.18-1.27-.539-.254-.36-.381-.813-.381-1.364V43.22zm-1.9 8.679c.372.45.85.805 1.435 1.068.584.26 1.29.392 2.116.392.673 0 1.289-.108 1.847-.32a4.1 4.1 0 0 0 1.446-.932c.404-.406.72-.895.947-1.468.228-.577.342-1.22.342-1.935v-5.36c0-.567-.093-1.124-.28-1.678a4.39 4.39 0 0 0-.836-1.479 4.088 4.088 0 0 0-1.423-1.056c-.58-.268-1.258-.404-2.043-.404-.84 0-1.551.14-2.137.425-.584.284-1.063.645-1.434 1.087-.371.441-.64.933-.806 1.48a5.608 5.608 0 0 0-.246 1.626v5.13c0 .648.085 1.267.257 1.861.172.594.444 1.116.816 1.563zm-6.527 11.537c-.337.252-.746.382-1.227.382h-1.611v-3.25h1.693c.48 0 .877.117 1.187.351.309.234.463.628.463 1.18 0 .634-.168 1.078-.505 1.337zm2.839 1.023c.357-.663.535-1.458.535-2.38 0-.745-.116-1.383-.35-1.914a3.614 3.614 0 0 0-.958-1.316 3.95 3.95 0 0 0-1.426-.766 5.937 5.937 0 0 0-1.723-.247H7.954V72.24h2.993v-5.69h1.259l1.92 5.691h3.24l-2.311-6.23a3.793 3.793 0 0 0 1.569-1.55z"/></g></svg>