<svg xmlns="http://www.w3.org/2000/svg" viewBox="0 0 1670.02 197.14"><defs><style>.cls-1{fill:#6398c3}.cls-2{fill:#1f1f1f}</style></defs><g id="Слой_2" data-name="Слой 2"><g id="Слой_1-2" data-name="Слой 1"><path class="cls-1" d="M1011.54 72c-5.95 9.26-11.83 18.55-17.86 27.75-5 7.63-14.51 7.72-19.4.16-5.93-9.17-11.67-18.45-19.53-27.19 0 16.24-.4 32.5.17 48.71.28 7.94-1.56 10.88-10.16 10.49-16.48-.74-16.5-.2-16.49-16.41 0-24.83.19-49.67-.13-74.5-.08-6.12 1.69-7.44 7.84-8.3 16.95-2.36 28.35 2.82 34.94 19.24 3 7.58 8.42 14.23 13.35 22.29 7.64-12.22 14.77-23.17 21.39-34.43 2.86-4.87 6-7 12-7 22.37.31 22.38.05 22.38 22.26 0 23-.17 46.08.12 69.12.07 5.72-1.36 7.65-7.39 7.64-18.77 0-18.77.24-18.77-18.62V72.35zM750.53.07c14.87-.69 29.16 3.59 42.33 12.3 4.89 3.23 6.88 5.79 2.08 10.82-3.9 4.09-6.14 10.57-10.71 13-5.23 2.81-9.43-4.11-14.43-6.13-31.55-12.72-61.48 3.48-62.95 34.47C705.59 91.08 723.34 109 750 108a56.89 56.89 0 0 0 26.39-7.8c3.22-1.84 6.73-7.43 9.35-5.22 5.82 4.92 10.18 11.63 14.85 17.83.95 1.26-.84 2.59-2 3.59-24.68 22.13-72.08 25.41-98.87 2.56C673.95 97 670 52.63 691.92 25.25 706.62 6.84 726.38-.74 750.53.07z"/><path class="cls-2" d="M349.25 102.66c4.06-1.17 5.09-4.21 6.84-6.38C371.6 76.94 387 57.5 402.44 38.11c3.38-4.24 15.05-7.08 19.3-4.88 2.49 1.29 1.79 3.53 1.79 5.47 0 29.28-.06 58.56 0 87.84 0 3.76-1 5.06-5 5.33-13.82.94-13.81 1.12-13.81-12.66V63.62c-3.81.63-4.65 3.49-6.19 5.4-15.39 19.05-31.06 37.9-45.8 57.46-6 8-13.29 4.7-20.26 4.92-2.95.09-1.93-3.21-1.93-5.07-.07-29.28 0-58.56-.08-87.84 0-9.57 7.08-4.49 11-5.32 4.1-.87 8-1 7.86 5.83-.46 18.21-.16 36.45-.16 54.67.09 2.87.09 5.73.09 8.99zm218.44-20.55c0-14.35.17-28.7-.09-43-.09-4.71 1.39-6 6.1-6.12 13.3-.25 13.3-.49 13.3 13.14 0 7.17.24 14.36-.09 21.52-.21 4.64 1.23 6.24 6 6.13q20.61-.44 41.24 0c5 .11 6-1.85 5.92-6.31-.26-9.26.13-18.54-.16-27.79-.16-4.86 1.07-6.76 6.42-6.76 12.76 0 12.78-.3 12.79 12.69 0 26.3-.38 52.62.25 78.9.2 8.31-4.18 7.42-9.29 7.26s-11 1.91-10.25-7.32-.2-18.54.3-27.78c.32-5.78-1.77-7-7.11-6.81-12.84.38-25.72.53-38.55 0-6.69-.3-7.93 2.2-7.62 8.14.48 8.94-.21 17.94.25 26.89.29 5.52-1.36 7.14-6.94 7.06-12.48-.16-12.49.16-12.49-12.15q.02-18.86.02-37.69zm1053.51 31.3c5.31-14.71 10-27.82 14.77-40.92 2.84-7.86 5.74-15.71 8.56-23.58 6.13-17.09 6.11-17.1 25.12-15.36 1.14 2.6-.63 4.61-1.5 6.73q-20.71 50.56-41.52 101.08c-2.62 6.37-5.51 12.6-10 17.9-8.53 10-24 13.24-36.06 8-4.41-1.92-5.25-4.4-2.94-8.25 1.93-3.22.31-9.36 8.07-7.54 13.2 3.1 19.08-1 23.9-13.67 1.67-4.38.2-7.42-1.5-10.91-13.89-28.44-27.62-57-41.74-85.28-3.24-6.51-3.5-8.55 5.1-8.95 9.81-.45 14.71 2.39 18.45 11.78 8.05 20.23 17.62 39.86 26.61 59.72 1.13 2.6 2.54 5.08 4.68 9.25zM235.4 82.16c0-14.35.15-28.71-.09-43.06-.07-4.53 1.06-6.26 6-6.21 21.83.25 43.66.43 65.48-.07 7.69-.17 6 4.41 6.21 8.65.25 4.79.46 8.41-6.66 8.11-14.92-.63-29.9 0-44.84-.31-5.48-.13-7.16 1.45-7.09 7 .29 22.72-.31 45.46.33 68.17.26 9.23-5.25 7.09-10.28 7.34-5.38.27-9.62.6-9.18-7.48.76-14 .21-28.1.21-42.15z"/><path d="M1419.83 133a13.13 13.13 0 1 1 13.09-12.86 12.92 12.92 0 0 1-13.09 12.86z" style="fill:#222"/><path class="cls-1" d="M1256.09 36.93c-17.49-10.22-38.85-7.5-57.82 8.58 2.93-16.06-7.69-11.76-15.56-12.57-7.33-.75-8.17 2.66-8.13 8.84.25 35 .13 69.92.12 104.89 0 22 0 21.85 21.71 21 4.72-.19 6.22-1.62 6.07-6.23-.28-8.66 0-17.33-.11-26-.07-4.47.38-6.83 5.9-4.45 8.74 3.77 18.1 3.58 27.37 2.42 21.37-2.67 37.45-18 41.88-39.76 4.72-23.22-4.11-46.65-21.43-56.72zm-15 67c-8.59 7-23.69 7.37-34.8 1.21-2.75-1.52-3.93-3.3-3.86-6.31.1-4.18 0-8.36 0-12.54h.4c0-5.06-.83-10.3.18-15.15 1.8-8.69 12.75-15.38 23.81-15.56 11.38-.19 18.67 4.62 22.06 14.54 4.12 12.18.79 26.77-7.82 33.77zM1158 117.51c.36-2.42 1.26-6.77-3.2-7.11-6.73-.52-6.24-5.3-6.37-9.73-.35-11.94 0-23.94-1-35.81-1.43-16.77-11.59-28-28-32-15.22-3.68-30.27-2.32-45 2.91-15.27 5.43-15 5.37-7.49 19.86 2.68 5.15 5 6.94 10.87 4.31 9.41-4.19 19.61-5 29.89-4.17 5 .42 9.29 2.28 11.75 7 1.27 2.44 2.22 5.29.61 7.66-1.44 2.12-3.88.24-5.76-.06-14.47-2.35-28.68-1.77-42.18 4.32-12.18 5.49-18.36 16.12-17.48 28.65 1 14.56 7.71 24.42 20.92 28.16 18.18 5.14 35.53 4.12 50.21-11.36a65 65 0 0 0 3.48 6.3c4.73 6.55 19.26 10.33 27.14 6.29 7.43-3.79.9-10.12 1.61-15.22zm-39-17c-3.75 6.44-11.25 9.76-21.85 9.68-6.75.05-13.3-1.14-14-9.22-.74-8.66 6-10.67 12.91-11.76 6-.94 11.93-.17 17.86.64 7.66 1.04 9.03 3.95 5.08 10.66zm-204.42 28.82c-.86-6.33 2.47-15.33-4.65-18.49-6.05-2.69-6.35-6.18-6.41-11-.13-10.76.27-21.55-.31-32.28-1-18.9-11.65-31.06-30.12-35.1-14.7-3.21-29.14-1.72-43.23 3.26-15.37 5.43-15 5.32-7.64 19.77 3 6 6 6.65 11.79 4.14 9.2-4 19.09-4.68 29.05-3.9 5.44.43 9.78 2.65 12.19 7.78 1 2.2 1.88 4.77.45 6.84s-3.9.32-5.77 0c-14.47-2.43-28.69-1.82-42.22 4.16-12.45 5.5-18.43 16-17.61 29.46.83 13.64 7.69 23.69 20.69 27.38 18.16 5.16 35.58 4.34 50.68-11.63 4.31 13.08 14.05 14.71 24.88 13.77 3.18-.25 8.9.79 8.23-4.16zM875.37 98.5c-4.47 9.41-12.9 11.72-24.12 11.69-5.27-.09-12.22-.85-12.67-9.75-.41-8.23 6-10.05 12.55-11.17s13.11.28 19.66.69 6.68 4.12 4.58 8.54zm513.48 12.29c-5.49-2.55-6.17-5.58-6.2-10.16-.06-10.17.22-20.34-.12-30.5-.71-21.22-11.57-34-32.29-38-13.81-2.68-27.42-1.17-40.65 3.33-16 5.45-15.61 5.38-8.26 20.14 3.06 6.14 6 6.56 11.73 4.08 9.21-4 19.1-4.7 29.06-3.87 5.38.45 9.84 2.51 12.12 7.81 1 2.21 2.1 4.73.62 6.83s-3.91.31-5.81 0c-13.53-2.28-26.85-1.82-39.75 3.1-14.22 5.43-20.83 15.7-20.08 30.45.75 14.56 8.53 24.88 23.12 28.23 17.34 4 34 3 48-12.41 4.45 12.74 14 14.77 24.91 13.76 3.21-.3 8.65.86 8.2-4.36-.45-6.4 2.48-15.14-4.6-18.43zm-37.37-7.68c-5.68 6.47-20.46 9.5-28.14 5.85-3.86-1.84-5.87-4.83-5.78-9.17s2.47-7.3 6.28-8.89c4.14-1.73 8.61-2.12 14.43-2.09 1.92.2 5.2.32 8.39.91 3 .56 7.35-.92 8.59 3s-1.16 7.42-3.77 10.38z"/><path class="cls-2" d="M1541.25 44.23c-10.07-10.22-22.64-13.74-36.76-13.36-14.52.39-25.72 7.08-35.22 19.05-.57-5.13-1.05-8.38-1.26-11.66-.53-8.21-6.77-4.47-10.78-5.14-5.25-.87-4.71 3-4.71 6.28 0 41.57.15 83.14-.11 124.71-.06 8.91 6 5.27 9.86 5.55s9.23 2.37 8.89-5.64c-.52-12.42-.14-24.89-.14-37.57 36.1 12.62 60.53 7.73 75-14.62 13.26-20.34 11.15-51.45-4.77-67.6zm-22.82 69.15c-14.77 7.7-29.43 5-43.31-3.48-3.15-1.92-4.38-4.47-4.15-8.16.27-4.46.07-8.94.07-15.74-.82-8.59-.36-19 8-27.67 9.45-9.86 24.1-13.91 36.83-9.35 11.74 4.21 18.93 14.93 19.4 29.41s-3 27.78-16.84 34.99zM59.54 2.44c-17.32-.63-34.68.08-52-.32C1.74 2-.11 3.46 0 9.47c.39 19.42.15 38.86.15 58.29 0 19.13.13 38.27-.09 57.4-.06 4.74.8 7.39 6.24 6.67a31.47 31.47 0 0 1 8.06 0c5 .64 6-1.62 5.85-6.12-.32-8.36.42-16.78-.25-25.1-.57-7.09 2.16-8.51 8.62-8.25A295 295 0 0 0 60.84 92c20.41-1.43 36.5-13.85 41.74-31.36 8.83-29.5-11.28-57.04-43.04-58.2zm3.57 71.83c-13 2.85-26.16.78-39.24 1.32-4.15.17-3.75-2.84-3.76-5.52V47.7c0-7.46.15-14.92-.06-22.37-.11-3.94.68-6.1 5.31-6 11.32.34 22.69-.19 34 .5C74.25 20.79 83.4 30 84.52 44c1.28 16-6.22 26.93-21.41 30.27zM165.66 31c-24.61 1.28-43 17.07-47.79 41-4.89 24.49 5.15 48 25.71 56.64C165.87 138 188 136 209 123.74c3.69-2.15 5.68-4.46 2-8.08-2.93-2.85-2.63-11-10.63-5.73-11.23 7.36-24.06 8.78-37.12 7.11s-22-8.69-26.07-21.46c-1.54-4.77-.95-7.1 5-6.89 11.05.4 22.13.11 33.2.11s22.15-.27 33.2.12c5.19.18 7.14-1.21 7.87-6.66C220.43 52 198.22 29.32 165.66 31zm25.49 42.62c-8-.45-16.12-.11-24.18-.11h-25.08c-2.53 0-5.42.94-4.47-4 2.37-12.27 14.76-21.78 30-22.38 16-.62 26.17 6.11 29.42 19.11 1.33 5.35.47 7.76-5.7 7.4zm303.63-42.71c-31.07.08-53.24 21.77-53.14 52 .09 30.48 22 51.41 53.67 51.21 31-.2 53.61-22.26 53.38-52.06-.24-30.31-22.27-51.22-53.91-51.15zm.39 87.09c-20.64 0-34.69-14.16-34.86-35.18-.18-21.47 14-35.88 35.09-35.76 20.24.11 34.44 14.85 34.38 35.71C529.74 104 516 118 495.17 118z"/><path d="M.93 165.54h3.59v19.09l14.33-19.09h3.5v24.14h-3.59v-19.1L4.38 189.67H.93zm29.45 0H34v10.41h13.89v-10.41h3.6v24.14h-3.6v-10.56H34v10.55h-3.6zM74 187.71a8.83 8.83 0 0 1-6 2.47c-5.79 0-9.8-4.71-9.8-12.65S62.22 165 68 165a8.42 8.42 0 0 1 6 2.61V157h3.64v10.64a8.42 8.42 0 0 1 6-2.61c5.79 0 9.85 4.67 9.85 12.61s-4.06 12.56-9.85 12.56a8.38 8.38 0 0 1-6-2.47v9.43H74zm0-3.08v-14a6.92 6.92 0 0 0-5.28-2.38c-4.58 0-6.82 3.69-6.82 9.48S64 187 68.76 187a6.92 6.92 0 0 0 5.24-2.37zm15.78-7c0-5.7-2.24-9.38-6.82-9.38a7.09 7.09 0 0 0-5.32 2.38v14A7.09 7.09 0 0 0 83 187c4.71 0 6.81-3.49 6.81-9.37zm8.99 0a12.58 12.58 0 1 1 12.51 12.6 12.49 12.49 0 0 1-12.51-12.6zm21.47 0a9.13 9.13 0 0 0-9-9.43c-5.23 0-8.82 4.25-8.82 9.43s3.83 9.38 8.92 9.38 8.91-4.2 8.91-9.38zm10.18-12.09H134v4.86c2-2.89 4.81-5.37 9.24-5.37 5.79 0 11.53 4.57 11.53 12.61s-5.7 12.56-11.53 12.56a10.89 10.89 0 0 1-9.24-5.14v12.09h-3.59zm20.68 12c0-5.7-3.92-9.34-8.5-9.34a9.38 9.38 0 0 0 0 18.72c4.68.08 8.5-3.41 8.5-9.34zm10.32-12h3.41l9 12.7 9-12.7h3.46v24.14h-3.64v-18.4l-8.92 12.23-8.82-12.23v18.39h-3.5zm31.09 17.04c0-5.18 4.2-7.89 10.32-7.89a25.29 25.29 0 0 1 7.38 1V175c0-4.3-2.61-6.54-7.14-6.54a16.78 16.78 0 0 0-7.33 1.73l-1.07-2.94a19.78 19.78 0 0 1 8.78-2.05c3.41 0 6.07.93 7.8 2.66s2.52 4 2.52 7.1v14.75h-3.57v-3.59a10.58 10.58 0 0 1-8.68 4.11c-4.52-.04-9.01-2.61-9.01-7.65zm17.74-1.77v-2.24a24.84 24.84 0 0 0-7-1c-4.48 0-7 2-7 4.95s2.8 4.81 6.07 4.81c4.34-.04 7.93-2.7 7.93-6.53zm31.93 8.86h-20.82v-24.13H225v21h13.54v-21h3.59v21h3.64l-.56 9.2h-3zm8.5-24.13h3.6v19.09l14.33-19.09h3.5v24.14h-3.59v-19.1l-14.38 19.09h-3.46zm27.96 12.09a12.58 12.58 0 1 1 12.51 12.6 12.49 12.49 0 0 1-12.51-12.6zm21.47 0a9.13 9.13 0 0 0-9-9.43c-5.23 0-8.82 4.25-8.82 9.43s3.83 9.38 8.92 9.38 8.9-4.2 8.9-9.38zm10.18-12.09h3.59v10.41h13.92v-10.41h3.59v24.14h-3.59v-10.56h-13.91v10.55h-3.59zm29.13 0H343v10.41h13.91v-10.41h3.6v24.14h-3.6v-10.56H343v10.55h-3.6zm27.64 12.09a12.58 12.58 0 1 1 12.51 12.6 12.49 12.49 0 0 1-12.51-12.6zm21.48 0a9.13 9.13 0 0 0-9-9.43c-5.23 0-8.82 4.25-8.82 9.43s3.83 9.38 8.92 9.38 8.89-4.2 8.89-9.38zm9.19-3.88h13v3.78h-13zm18.2 8.83c0-5.18 4.2-7.89 10.32-7.89a25.29 25.29 0 0 1 7.38 1V175c0-4.3-2.61-6.54-7.14-6.54a16.78 16.78 0 0 0-7.33 1.73l-1.07-2.94a19.78 19.78 0 0 1 8.78-2.05c3.41 0 6.07.93 7.8 2.66s2.52 4 2.52 7.1v14.75h-3.55v-3.59a10.58 10.58 0 0 1-8.68 4.11c-4.54-.04-9.03-2.61-9.03-7.65zm17.74-1.77v-2.24a24.84 24.84 0 0 0-7-1c-4.48 0-7.05 2-7.05 4.95s2.8 4.81 6.07 4.81c4.39-.04 7.99-2.7 7.99-6.53zm11.11-15.27h3.59v10.41h13.91v-10.41h3.59v24.14h-3.59v-10.56h-13.9v10.55h-3.59zm27.31 17.04c0-5.18 4.2-7.89 10.32-7.89a25.29 25.29 0 0 1 7.38 1V175c0-4.3-2.61-6.54-7.14-6.54a16.78 16.78 0 0 0-7.33 1.73l-1.07-2.94a19.78 19.78 0 0 1 8.78-2.05c3.41 0 6.07.93 7.8 2.66s2.52 4 2.52 7.1v14.75h-3.55v-3.59a10.58 10.58 0 0 1-8.68 4.11c-4.55-.04-9.03-2.61-9.03-7.65zm17.74-1.77v-2.24a24.84 24.84 0 0 0-7-1c-4.48 0-7.05 2-7.05 4.95s2.8 4.81 6.07 4.81c4.39-.04 7.98-2.7 7.98-6.53zm7.05 8.86.42-3.08a8 8 0 0 0 1.73.33c2.89 0 5.32-1.26 5.32-19.37v-2h17.09v24.14h-3.59v-21h-10.09v.56c0 18.81-3.41 20.77-8 20.77a14.9 14.9 0 0 1-2.88-.35zm32.59-24.13h3.59v19.09l14.33-19.09h3.5v24.14h-3.59v-19.1l-14.38 19.09h-3.45zm35.29 3.17h-8.64v-3.17H577v3.17h-8.6v21h-3.64zm17.51-3.17h3.59v19.09l14.33-19.09h3.5v24.14h-3.59v-19.1l-14.38 19.09h-3.45zM627 179.73a19 19 0 0 1-8.08 2.19c-4.76 0-8-2.47-8-7.24v-9.15h3.59v8.64c0 2.85 1.77 4.62 4.86 4.62a14.58 14.58 0 0 0 7.61-2.29v-11h3.59v24.14H627zm10.17-2.1c0-7 4.9-12.61 11.58-12.61 7.14 0 11.25 5.7 11.25 12.79v1.26h-19.19c.51 5.09 4.25 8 8.5 8a10 10 0 0 0 7.61-3.41l2.24 2a12.46 12.46 0 0 1-9.94 4.53c-6.64.04-12.05-5.05-12.05-12.56zm19.19-1.45c-.42-4.39-2.94-8.12-7.7-8.12-4.15 0-7.33 3.46-7.84 8.12zm8.44 1.45a12.57 12.57 0 0 1 22-8.31l-2.29 2.43a9.86 9.86 0 0 0-7.42-3.55c-4.9 0-8.64 4.15-8.64 9.43s3.83 9.38 8.87 9.38c3.08 0 5.37-1.59 7.28-3.64l2.38 2.19a12.49 12.49 0 0 1-22.22-7.94zm28.2-12.09h3.59v13.91l13.21-13.91h4.43L704.11 176l10.36 13.68h-4.25l-8.59-11.06-5.09 5.23v5.84H693zm26.42 0H723v19.09l14.33-19.09h3.5v24.14h-3.6v-19.1l-14.38 19.09h-3.45zm29.46 0h3.59v19.09l14.33-19.09h3.5v24.14h-3.59v-19.1l-14.38 19.09h-3.45zm4-9.15 2.48-.51a4.22 4.22 0 0 0 8.22 0l2.47.51a6.65 6.65 0 0 1-13.17 0zm39.46 9.15h20.91v24.14h-3.59v-21h-13.73v21h-3.59zm27.45 12.09a12.58 12.58 0 1 1 12.51 12.6 12.49 12.49 0 0 1-12.51-12.6zm21.47 0a9.13 9.13 0 0 0-9-9.43c-5.23 0-8.82 4.25-8.82 9.43s3.83 9.38 8.92 9.38 8.9-4.2 8.9-9.38zm10.18-12.09H855v4.86c2-2.89 4.81-5.37 9.24-5.37 5.79 0 11.53 4.57 11.53 12.61s-5.7 12.56-11.53 12.56a10.89 10.89 0 0 1-9.24-5.14v12.09h-3.59zm20.68 12c0-5.7-3.92-9.34-8.5-9.34a9.38 9.38 0 0 0 0 18.72c4.67.08 8.5-3.41 8.5-9.34zm15.22-8.83h-8.64v-3.17h20.91v3.17H891v21h-3.64zm14.75 13.87c0-5.18 4.2-7.89 10.32-7.89a25.29 25.29 0 0 1 7.38 1V175c0-4.3-2.61-6.54-7.14-6.54a16.78 16.78 0 0 0-7.33 1.73l-1.07-2.94a19.78 19.78 0 0 1 8.78-2.05c3.41 0 6.07.93 7.8 2.66s2.52 4 2.52 7.1v14.75h-3.55v-3.59a10.58 10.58 0 0 1-8.68 4.11c-4.55-.04-9.03-2.61-9.03-7.65zm17.74-1.77v-2.24a24.84 24.84 0 0 0-7-1c-4.48 0-7.05 2-7.05 4.95s2.8 4.81 6.07 4.81c4.39-.04 7.98-2.7 7.98-6.53zm7.05 8.86.42-3.08a8 8 0 0 0 1.73.33c2.89 0 5.32-1.26 5.32-19.37v-2h17.09v24.14h-3.59v-21h-10.09v.56c0 18.81-3.41 20.77-8 20.77a14.9 14.9 0 0 1-2.88-.35z" style="fill:#040706"/></g></g></svg>