<?xml version="1.0" encoding="utf-8"?>
<!-- Generator: Adobe Illustrator 27.0.1, SVG Export Plug-In . SVG Version: 6.00 Build 0)  -->
<svg version="1.1" id="Слой_1" xmlns="http://www.w3.org/2000/svg" xmlns:xlink="http://www.w3.org/1999/xlink" x="0px" y="0px"
	 viewBox="0 0 384 384" style="enable-background:new 0 0 384 384;" xml:space="preserve">
<style type="text/css">
	.st0{fill:#FFFFFF;}
	.st1{fill:#CCCCCC;}
</style>
<g id="bcd49117-1c17-41c6-ae1b-103ac598dbd3">
	<rect width="384" height="384"/>
</g>
<g id="e6dc44f3-48a4-4c2d-af2f-e94d460739b0">
	<polygon class="st0" points="96,96 132,132 288,132 252,96 	"/>
	<polygon class="st1" points="288,132 252,132 252,96 	"/>
	<path class="st1" d="M122.2,176.7c-2.4,1.8-5.4,0.9-9-2.7c-3.6-3.6-6.6-8.7-9-15.3c-2.3-6.1-3.5-12.5-3.6-19c0-6,1.2-10,3.6-11.8
		s5.4-0.9,9,2.7c3.6,3.6,6.6,8.7,9,15.3c2.3,6.1,3.5,12.5,3.6,19C125.8,170.9,124.6,174.9,122.2,176.7z M108,156.5
		c1,3.3,2.8,6.4,5.2,9c2.1,2.1,3.8,2.5,5.1,1.3c1.3-1.2,2-3.7,2-7.4c0-3.9-0.7-7.7-2-11.4c-1-3.3-2.8-6.4-5.2-9
		c-2.1-2.1-3.8-2.5-5.1-1.3s-2,3.7-2,7.4C106,149,106.7,152.8,108,156.5L108,156.5z"/>
	<path class="st1" d="M103.3,219v-7.7l13.1-13.8l-12.7-12.7v-8.9l19.4,19.4v7.9L110,216.9l13.1,13.1v8.8L103.3,219z"/>
	<path class="st0" d="M144,192v-42h36v8.4h-26.8v8.9H170v8.4h-16.8V192H144z"/>
	<path class="st0" d="M192,192v-42h36v8.4h-26.8v8.9H218v8.4h-16.8V192H192z"/>
	<path class="st0" d="M177.9,240.3c-9,8.4-22.9,8.4-31.9,0c-8.5-8.5-8.4-22.3,0.1-30.8c9-8.4,22.9-8.4,31.9,0
		C186.5,218,186.4,231.8,177.9,240.3L177.9,240.3z M152.9,234.2c2.3,2.5,5.7,3.9,9.1,3.8c3.4,0.1,6.7-1.3,9.1-3.8
		c4.7-5.4,4.7-13.4-0.1-18.8c-2.3-2.5-5.7-3.9-9.1-3.8c-3.4-0.1-6.7,1.3-9.1,3.8C148.1,220.9,148.2,228.9,152.9,234.2L152.9,234.2z"
		/>
	<path class="st0" d="M192,246v-42h8.5l19.7,25.9V204h9.1v42h-7.9l-20.3-26.7V246H192z"/>
	<path class="st0" d="M240,246v-42h35.7v8.2h-26.5v8.5H266v8.2h-16.8v8.8H276v8.2h-36V246z"/>
	<path class="st0" d="M162.1,283.1v4.5H144V284l9.3-8.7c0.8-0.7,1.5-1.5,2-2.4c0.3-0.6,0.5-1.3,0.5-2c0-0.9-0.3-1.7-1-2.2
		c-0.8-0.6-1.8-0.8-2.9-0.8c-1,0-2,0.2-2.8,0.6c-0.9,0.4-1.6,1-2.1,1.8l-4-2.6c1-1.4,2.3-2.6,3.9-3.3c1.8-0.8,3.7-1.2,5.7-1.2
		c1.6,0,3.2,0.3,4.7,0.9c1.3,0.5,2.3,1.4,3.1,2.5s1.1,2.4,1.1,3.8c0,1.3-0.3,2.5-0.8,3.7c-0.8,1.5-1.9,2.8-3.2,3.9l-5.5,5.2
		L162.1,283.1z"/>
	<path class="st0" d="M215.2,283.1v4.5H197V284l9.3-8.7c0.8-0.7,1.5-1.5,2-2.4c0.3-0.6,0.5-1.3,0.5-2c0-0.9-0.3-1.7-1-2.2
		c-0.8-0.6-1.8-0.8-2.9-0.8c-1,0-2,0.2-2.8,0.6c-0.9,0.4-1.6,1-2.1,1.8l-4-2.6c1-1.4,2.3-2.6,3.9-3.3c1.8-0.8,3.7-1.2,5.7-1.2
		c1.6,0,3.2,0.3,4.7,0.9c1.3,0.5,2.3,1.4,3.1,2.5s1.1,2.4,1.1,3.8c0,1.3-0.3,2.5-0.8,3.7c-0.8,1.5-1.9,2.8-3.2,3.9l-5.5,5.2
		L215.2,283.1z"/>
	<path class="st0" d="M172.3,286.4c-1.9-1-3.6-2.6-4.7-4.4c-2.3-3.9-2.3-8.8,0-12.7c1.1-1.9,2.8-3.4,4.7-4.4c4.2-2.1,9.2-2.1,13.5,0
		c6,3.2,8.2,10.6,5,16.6c-1.1,2.1-2.9,3.9-5,5C181.6,288.5,176.6,288.5,172.3,286.4z M182.9,282.3c1.1-0.6,2.1-1.6,2.7-2.7
		c1.3-2.5,1.3-5.5,0-8c-0.6-1.1-1.6-2.1-2.7-2.7c-2.4-1.3-5.3-1.3-7.7,0c-1.1,0.6-2.1,1.6-2.7,2.7c-1.3,2.5-1.3,5.5,0,8
		c0.6,1.1,1.6,2.1,2.7,2.7C177.6,283.6,180.5,283.6,182.9,282.3L182.9,282.3z"/>
	<g>
		<path class="st0" d="M238.1,276.3c-0.7-1.1-1.7-2-3.2-2.7c-1.4-0.6-3.4-1-5.7-1h-2l0.2-2.6l0.2-1.9l0,0h10v-4.5H223l-1.2,13.5h6.1
			c1.5,0,2.6,0.1,3.4,0.4c0.8,0.3,1.4,0.6,1.7,1.1c0.3,0.5,0.5,1,0.5,1.6c0,1-0.4,1.8-1.2,2.3c-0.8,0.6-1.9,0.8-3.3,0.8
			c-1.3,0-2.5-0.2-3.7-0.6c-1.2-0.4-2.2-0.9-3.1-1.6l-2.2,4.2c1.2,0.8,2.6,1.5,4.2,1.9c1.6,0.4,3.3,0.7,5,0.7c2.3,0,4.2-0.4,5.6-1.1
			c1.5-0.7,2.6-1.7,3.3-2.9c0.7-1.2,1.1-2.5,1.1-3.9C239.2,278.7,238.8,277.4,238.1,276.3z"/>
	</g>
</g>
</svg>
