<svg xmlns="http://www.w3.org/2000/svg" width="1280" height="1440" xml:space="preserve"><path fill="#040606" d="M1279.999975 1439.99999H.000007V-.000037h1279.999968V1439.99999"/>
    <path fill="#fff"
          d="M521.75466 602.030682H361.887999c-.266667 0-.533333.266667-.533333.533334v25.733332c0 .266667.266666.533334.533333.533334h159.866663c.266666 0 .533333-.266667.533333-.533334V602.69735c0-.4-.266667-.666667-.533333-.666667"/>
    <path fill="#ee252c"
          d="M928.287984 802.697344H770.287988c-.266667 0-.533334.266667-.533334.533333v25.733333c0 .266667.266667.533333.533334.533333h157.999996c.266666 0 .533333-.266666.533333-.533333v-25.733333c0-.266666-.266667-.533333-.533333-.533333"/>
    <path fill="#fff"
          d="M572.821326 764.964012c3.2 0 5.333333-2 5.333333-5.066667 0-3.066666-2.133333-5.2-5.333333-5.2h-6.8v10.266667zm.4-16.666667c7.2 0 12.266666 4.8 12.266666 11.6s-5.066666 11.6-12.266666 11.6h-7.2v14h-7.333333v-37.333333h14.533333v.133333M599.487992 764.164012c-4.666666 0-4.666666 4.666666-4.666666 8.266666 0 5.2 1.466666 7.466667 4.666666 7.466667 4.533333 0 4.8-4.266667 4.8-7.866667 0-3.6-.266667-7.866666-4.8-7.866666zm8.533333 18.4c-2.133333 2.266666-5.066666 3.333332-8.533333 3.333332-3.466667 0-6.4-1.2-8.4-3.333333-2.266666-2.4-3.066666-5.2-3.066666-10.666666 0-5.333333.8-8.133333 3.066666-10.533333 2.133334-2.266667 4.933333-3.333333 8.4-3.333333s6.4 1.2 8.533333 3.333333c2.266667 2.4 3.066667 5.2 3.066667 10.533333 0 5.466666-.8 8.266666-3.066667 10.666666M629.754658 764.297345c-1.2-.4-2.666667-.666667-4.133333-.666667-2.666667 0-4.133333.933334-4.133333 2.666667 0 1.333333.933333 2.133333 2.8 2.266667l4.266666.4c5.2.533333 8.133333 3.333333 8.133333 8 0 5.733333-4.4 8.933332-12.4 8.933332-2.533333 0-4.8-.4-6.666666-1.2-1.466667-.533333-2.266667-1.2-4.133333-2.8l4.4-4.4c1.2.933334 1.6 1.333334 2.666666 1.733334 1.333333.533333 2.8.8 4.533333.8 3.2 0 4.933334-1.066667 4.933334-2.933333 0-1.466667-.933334-2.266667-2.933334-2.4l-4.266666-.4c-5.333333-.533334-8-2.933333-8-7.6 0-5.466667 4.266667-8.8 11.066666-8.8 2.266667 0 4.666667.4 6.533334 1.066667 1.2.533333 2 .933333 3.333333 2.133333l-4.133333 4.266667c-.8-.533334-1.066667-.8-1.866667-1.066667M641.087991 785.630678v-27.333333h6.8v27.333333zm3.333333-30.666666c-2.4 0-4.266666-2-4.266666-4.266667 0-2.4 2-4.266666 4.266666-4.266666 2.266667 0 4.266667 1.866666 4.266667 4.133333 0 2.4-1.866667 4.4-4.266667 4.4M662.554657 785.630678c-4.8 0-7.866666-3.066667-7.866666-7.866667v-13.466666h-2.933334v-5.2h2.933334v-8.133333h6.8v8.133333h4.8v5.2h-4.8v13.066666c0 1.6.8 2.4 2.4 2.4h2.4v5.733333h-3.733334v.133334M671.08799 785.630678v-27.333333h6.8v27.333333zm3.333334-30.666666c-2.4 0-4.266667-2-4.266667-4.266667 0-2.4 2-4.266666 4.266667-4.266666 2.266666 0 4.266666 1.866666 4.266666 4.133333 0 2.4-1.866667 4.4-4.266666 4.4M695.88799 785.630678h-5.333334l-10-27.333333h7.2l5.6 16.933333 5.466667-16.933333h7.2l-10.133333 27.333333M719.08799 763.630678c-3.2 0-5.066667 2.133334-5.2 5.733334h10.399999c-.266667-3.6-2.133333-5.733334-5.2-5.733334zm-5.2 10.4c.266666 4.133333 2.266666 6.133333 6.266666 6.133333 1.066666 0 2.266666-.266666 3.2-.533333.933333-.4 1.6-.8 2.8-2l4.133333 4c-2 2-2.933333 2.533333-4.666667 3.333333-1.6.666667-3.466666.933333-5.6.933333-8.4 0-12.666666-4.8-12.666666-14 0-8.533332 4.533333-13.866665 11.866666-13.866665 7.2 0 11.866667 5.2 11.866667 13.066666v3.066666h-17.2v-.133333M578.687993 829.36401v-15.6h-12.666667v15.6h-7.333333v-37.333332h7.333333v15.2h12.666667v-15.2h7.333333v37.333332h-7.333333M601.087992 817.897344c-2.4 0-3.866667 1.066666-3.866667 3.066666 0 2.133334 1.466667 3.2 4.266667 3.2 3.466667 0 4.933333-1.333333 4.933333-4.8v-1.466666zm5.6 11.466666v-2.4c-1.2 1.2-1.733333 1.6-2.8 2-1.066667.4-2.266667.666667-3.866667.666667-5.866666 0-9.2-3.2-9.2-8.533333 0-4.933334 3.6-8 9.333334-8h6.4v-1.333333c0-3.066667-1.466667-4.266667-5.2-4.266667-2.4 0-3.466667.533333-5.2 2.266667l-4.4-4.266667c1.6-1.6 2.266667-2.133333 3.733333-2.8 1.6-.666667 3.466667-.933333 6-.933333 7.866666 0 11.733333 3.2 11.733333 9.6v18h-6.533333M635.221324 828.697343c-1.466666.666667-3.2.933334-5.066666.933334-7.866667 0-12.266666-5.2-12.266666-14.266667 0-8.533333 4.533333-13.733333 12.266666-13.733333 1.866667 0 3.6.266667 5.066666.933334 1.466667.666666 2.266667 1.2 3.866667 2.666666l-4.666666 4.666667c-1.6-1.6-2.666667-2.133333-4.4-2.133333-3.6 0-5.333334 2.666666-5.333334 7.866666s1.866667 7.866667 5.333334 7.866667c1.733333 0 2.8-.533334 4.4-2.133334l4.666666 4.533333c-1.6 1.6-2.4 2.133334-3.866667 2.8M659.354657 829.36401l-6.666666-11.333333-2.933334 3.2v8.133333h-6.8v-37.333332h6.8v21.2l9.066667-11.2h8.266666l-9.733333 11.066666 10.533333 16.266666h-8.533333M571.487993 866.56401c2.4 0 4.266666-.8 5.466666-2.266667 1.2-1.6 1.6-3.6 1.6-10.533334 0-5.6-.4-7.6-1.6-9.066666-1.2-1.466667-3.066666-2.266667-5.466666-2.266667h-5.466667v24.266666h5.466667zm.666666-30.8c4.133334 0 7.466667 1.2 9.866667 3.6 2.666666 2.666666 3.733333 5.866666 3.733333 11.6v3.333333c0 3.866666-.133333 6.8-.4 8.8-.266667 2.266666-1.733333 4.933333-3.333333 6.533333-2.4 2.4-5.733333 3.6-9.866667 3.6h-13.466666v-37.333333h13.466666v-.133333M599.754659 861.630676c-2.4 0-3.866667 1.066667-3.866667 3.066667 0 2.133333 1.466667 3.2 4.266667 3.2 3.466666 0 4.933333-1.333334 4.933333-4.8v-1.466667zm5.6 11.466666v-2.4c-1.2 1.2-1.733334 1.6-2.8 2-1.066667.4-2.266667.666667-3.866667.666667-5.866666 0-9.2-3.2-9.2-8.533333 0-4.933333 3.6-8 9.333333-8h6.4v-1.333333c0-3.066667-1.466666-4.266667-5.2-4.266667-2.4 0-3.466666.533334-5.2 2.266667l-4.4-4.266667c1.6-1.6 2.266667-2.133333 3.733334-2.8 1.6-.666666 3.466666-.933333 6-.933333 7.866666 0 11.733333 3.2 11.733333 9.6v18h-6.533333M628.021325 877.497342c-1.466667 3.866667-3.733334 5.6-7.866667 5.6h-2.666666v-6.133333h1.6c2 0 2.666666-.533333 3.466666-2.4l1.2-3.333333-9.333333-25.333333h7.2l5.6 16.933333 5.466666-16.933333h7.2l-11.866666 31.6M655.88799 851.76401c-1.2-.4-2.666666-.666667-4.133333-.666667-2.666666 0-4.133333.933333-4.133333 2.666666 0 1.333334.933333 2.133334 2.8 2.266667l4.266667.4c5.2.533333 8.133333 3.333333 8.133333 8 0 5.733333-4.4 8.933333-12.4 8.933333-2.533333 0-4.8-.4-6.666666-1.2-1.466667-.533333-2.266667-1.2-4.133334-2.8l4.4-4.4c1.2.933333 1.6 1.333333 2.666667 1.733333 1.333333.533334 2.8.8 4.533333.8 3.2 0 4.933333-1.066666 4.933333-2.933333 0-1.466666-.933333-2.266666-2.933333-2.4l-4.266667-.4c-5.333333-.533333-8-2.933333-8-7.6 0-5.466666 4.266667-8.8 11.066667-8.8 2.266667 0 4.666667.4 6.533333 1.066667 1.2.533334 2 .933334 3.333333 2.133334l-4.133333 4.266666c-.666666-.533333-1.066666-.8-1.866666-1.066666M405.087997 703.764013c0-11.2 9.066666-20.4 20.4-20.4h45.733332c11.2 0 20.4 9.066667 20.4 20.4v25.466666c0 11.2-9.066667 20.4-20.4 20.4h-45.733333c-11.2 0-20.4-9.066667-20.4-20.4zm-43.333332 126.53333h42.666665c.266667 0 .533334-.266666.533334-.533333v-49.466665c0-.266667.266666-.533334.533333-.533334h73.733331c34.533333 0 55.999999-19.333333 55.999999-50.533332v-26c0-31.599998-20.4-49.733331-55.999999-49.733331H361.754665c-.266667 0-.533334.266666-.533334.533333v175.73333c0 .266666.266667.533332.533334.533332M884.954652 729.23068c0 11.199999-9.066667 20.399999-20.4 20.399999H818.82132c-11.2 0-20.4-9.066667-20.4-20.4v-25.466666c0-11.2 9.066667-20.4 20.4-20.4h45.733332c11.2 0 20.4 9.066667 20.4 20.4zm43.333332-126.53333h-42.666666c-.266666 0-.533333.266666-.533333.533332v49.466666c0 .266666-.266667.533333-.533333.533333H810.82132c-34.533332 0-55.999998 19.333333-55.999998 50.533332v26c0 31.599999 20.399999 49.733332 55.999998 49.733332h117.599997c.266667 0 .533333-.266667.533333-.533334V603.230682c-.133333-.266666-.4-.533333-.666666-.533333M676.154657 653.364014h-73.733332c-.266666 0-.533333-.266666-.533333-.533333v-49.599999c0-.266666-.266667-.533333-.533333-.533333h-42.666666c-.266667 0-.533333.266667-.533333.533333v112.666664c0 .266667.266666.533334.533333.533334h42.666666c.266666 0 .533333-.266667.533333-.533334v-12.133333c0-11.2 9.066666-20.4 20.4-20.4h45.599998c11.2 0 20.4 9.066667 20.4 20.4v12.133333c0 .266667.266666.533334.533333.533334h42.666666c.266666 0 .533333-.266667.533333-.533334v-12c.133333-31.199999-21.333333-50.533332-55.866665-50.533332"/></svg>
