<svg xmlns="http://www.w3.org/2000/svg" width="579.549" height="178.212"><path d="M106.47 555.578v9.24h15.163v-61.226h-16.38v27.92c0 6.793-.42 11.438-1.255 13.957-.827 2.525-2.376 4.533-4.627 6.066-2.248 1.53-4.795 2.287-7.632 2.287-2.217 0-4.109-.526-5.683-1.596-1.579-1.064-2.706-2.566-3.41-4.499-.698-1.916-1.047-6.172-1.047-12.74v-31.395H65.226v38.106c0 4.688.3 8.282.897 10.807.609 2.505 1.678 4.759 3.211 6.745 1.533 1.979 3.793 3.599 6.793 4.887 2.99 1.273 6.301 1.904 9.93 1.904 8.2 0 14.997-3.48 20.413-10.463zm22.44-51.986h16.122v22.689h23.108v-22.689h16.108v61.226H168.14v-25.52h-23.108v25.52H128.91v-61.226zm93.966 0h-32.768v19.148l16.375-6.304v48.47h16.393v-48.47l16.392 6.304v-19.148h-16.392zm40.286 14.785c3.014-2.792 6.604-4.15 10.972-4.15 4.392 0 7.87 1.543 10.635 4.71 1.714 1.998 2.619 4.288 3.174 6.715h-29.35c.958-2.871 2.442-5.301 4.569-7.275zm27.01 26.394s-2.842 6.272-8.423 9.051c-2.08 1.036-4.688 1.555-7.727 1.555-5.408 0-9.553-2.016-12.65-6.165-2.24-2.969-3.582-6.309-4.087-10.109h46.207s1.95-16.625-6.408-27.27c-5.634-7.183-13.196-11.05-23.074-11.05-10.108 0-18.248 3.517-24.202 10.451-5.457 6.333-8.24 14.26-8.24 23.564 0 9.051 2.783 16.885 8.24 23.31 6.03 7.106 14.183 10.712 24.202 10.712 7.048 0 13.25-1.933 18.432-5.721 9.47-6.941 13.16-18.328 13.16-18.328h-15.43zm58.379 3.844c-2.479 3.027-5.588 4.54-9.31 4.54-3.89 0-7.184-1.65-9.891-4.943-2.702-3.298-4.057-8.393-4.057-15.293 0-6.005 1.29-10.553 3.885-13.616 2.595-3.068 5.84-4.586 9.779-4.586 3.764 0 6.921 1.55 9.468 4.676 2.554 3.121 3.837 7.899 3.837 14.336 0 6.9-1.242 11.852-3.711 14.886zm12.76-38.273c-4.929-5.561-10.917-8.353-17.974-8.353-4.063 0-7.752.987-11.074 2.95-3.316 1.969-5.952 4.476-7.892 7.525v-8.92h-15.04v84.016h16.122v-30.568c3.014 3.245 5.876 5.527 8.607 6.861 2.73 1.336 5.794 2.01 9.153 2.01 7.057 0 13.067-2.83 18.039-8.488 4.955-5.663 7.436-13.591 7.436-23.794 0-9.932-2.457-17.683-7.378-23.24zm107.706 32.249c-.386-11.712 18.172-17.683 31-11.084v21.954c-14.167 5.9-30.263.674-31-10.87zm31 22.227h18.1V534.74c0-9.915.625-16.412-3.505-22.82-4.145-6.414-12.37-8.944-18.173-8.944h-33.158c-3.11.124-2.37-3.606-2.122-4.356 7.858-29.646 14.197-38.367 24.91-37.492 4.613.621 7.467.745 9.594 3.364 1.746 2.117 2.374 2.37 5.731-2.743a921.606 921.606 0 0 0 4.982-8.34c1.12-1.994 3.996-4.606-.25-5.108-50.95-1.123-51.683 19.058-69.12 52.187-1.87 3.114-3.876 2.99-9.719 2.99h-17.069c-23.042 0-34.999 18.061-36.362 28.153-1.123 6.095-1.75 11.326 1.24 17.811 2.362 4.853 8.093 11.457 16.567 15.192 2.25.87 3.616-.745 3.734-.868 2.503-2.253 10.22-9.098 12.464-10.841 1.365-1.25-.26-1.994-1.254-2.113-14.319-1.748-19.555-5.61-22.04-15.085-.75-7.089 2.609-22.907 28.27-23.161 10.344.254 18.68-.987 14.821 8.221-13.947 34.63-17.192 40.988-31.763 69.002-8.843 12.958-19.793 14.83-37.747 9.216-4.657-1.46-6.11 1.768-6.75 3.155-.955 2.047-2.629 5.806-3.257 7.138-1 2.032-.194 2.735 1.254 2.723 25.04-.254 49.859-5.042 68.916-26.714 17.817-22.795 21.927-41.104 33.632-64.27 1.872-4.108 4.627-7.846 9.376-7.846h28.109c9.002 0 10.588 3.738 10.588 8.596-6.48-1.992-11.954-2.872-19.661-1.992-16.58 1.744-27.047 8.465-27.78 23.416.117 11.215 10.953 22.796 30.001 22.417 7.91.371 13.235-.74 17.44-5.115v4.305zm43.21 0v-26.355c2.339 0 4.111.514 5.305 1.52 1.176 1.017 2.597 3.287 4.215 6.84l7.147 17.995h17.12l-7.998-17.222a43.105 43.105 0 0 1-.626-1.198c-3.49-7.414-7.759-11.813-12.813-13.225 3.51-1.295 6.172-4.753 8.042-10.346 1.366-4.154 2.644-6.65 3.81-7.496 1.184-.798 3.888-1.206 8.108-1.206l-.058-10.717c-3.005-.184-5.122-.284-6.325-.284-3.963 0-7.145.847-9.578 2.525-2.425 1.685-4.663 5.52-6.715 11.522-1.562 4.504-2.891 7.42-3.987 8.76-1.106 1.337-2.99 2.159-5.646 2.464v-24.803h-16.119v61.226h16.119zm90.774-42.978-15.806 2.784c-.538-3.138-1.768-5.49-3.664-7.074-1.904-1.591-4.376-2.384-7.414-2.384-4.031 0-7.254 1.39-9.655 4.169-2.414 2.784-3.612 7.436-3.612 13.95 0 7.266 1.21 12.386 3.648 15.36 2.437 3.002 5.711 4.498 9.8 4.498 3.064 0 5.576-.888 7.529-2.648 1.954-1.768 3.332-4.812 4.13-9.13l15.817 2.632c-1.637 7.366-4.787 12.917-9.446 16.684-4.644 3.764-10.892 5.634-18.713 5.634-8.894 0-15.976-2.816-21.265-8.45-5.285-5.639-7.933-13.448-7.933-23.416 0-10.09 2.66-17.947 7.957-23.569 5.314-5.622 12.497-8.43 21.534-8.43 7.416 0 13.29 1.596 17.67 4.795 4.37 3.191 7.516 8.052 9.423 14.595zm-331.314 71.325h7.945l4.132 7.169 4.01-7.17h7.874l-7.261 11.278 7.945 12.025h-8.115l-4.6-7.485-4.623 7.485h-8.045l8.057-12.141-7.32-11.161zm-22.328 14.41-2.548-8.376-2.547 8.377h5.095zm1.526 5.062h-8.159l-1.164 3.83h-7.353l8.755-23.302h7.892l8.73 23.302h-7.537l-1.164-3.83zm-44.36-19.472h17.818v5.018h-10.589v4.038h9.063v4.717h-9.063v9.529h-7.23v-23.302zm-29.441 9.422h3.063c.33 0 .97-.1 1.916-.313a1.947 1.947 0 0 0 1.181-.723c.308-.388.456-.844.456-1.346 0-.751-.23-1.324-.728-1.726-.468-.396-1.377-.604-2.701-.604h-3.187v4.712zm-7.23 13.88v-23.302h12.025c2.229 0 3.936.189 5.12.567 1.176.379 2.122 1.092 2.85 2.115.727 1.04 1.08 2.3 1.08 3.784 0 1.283-.283 2.405-.821 3.34a6.604 6.604 0 0 1-2.287 2.281c-.616.374-1.468.682-2.55.924.864.289 1.49.578 1.888.864.264.194.65.601 1.152 1.227.502.64.839 1.118 1.01 1.455l3.505 6.745h-8.139l-3.878-7.123c-.48-.93-.921-1.518-1.3-1.797a3.073 3.073 0 0 0-1.787-.544h-.638v9.464h-7.23zm-35.026-23.302h19.308v4.981h-12.078v3.701h11.19v4.749h-11.19v4.574h12.42v5.297h-19.65v-23.302zm-36.546 0h21.915v5.757h-7.354v17.545h-7.195v-17.545h-7.366v-5.757zm-36.847 0h6.74l8.767 12.88v-12.88h6.793v23.302h-6.793l-8.719-12.815v12.815h-6.788v-23.302zm-23.829 0h7.23v23.303h-7.23v-23.303z" style="fill:#009a7f;fill-opacity:1;fill-rule:nonzero;stroke:none" transform="translate(-60.226 -443.256)"/><path style="fill:#009a7f;fill-opacity:1;stroke-width:.125;stroke:#009a7f;stroke-opacity:1" d="M23.077 122.606c-5.114-.512-9.926-2.568-12.823-5.476-2.26-2.27-3.805-5.31-4.484-8.826-.669-3.467-.669-3.47-.722-26.533L5 60.365h16.24l.061 18.469c.062 18.546.098 20.126.537 23.192.235 1.637.45 2.386 1.005 3.511 1.172 2.374 3.177 4.018 5.761 4.728 1.267.347 4.475.383 5.86.065 3.734-.857 6.81-3.069 8.468-6.09.65-1.182 1.032-2.283 1.331-3.825.72-3.713.867-8.224.873-26.644l.004-13.406h16.25v61.125H46.267l-.032-4.576-.033-4.576-1 1.158c-1.294 1.498-3.525 3.615-4.762 4.518-3.4 2.481-7.254 4.015-11.363 4.522-1.445.179-4.555.215-6 .07z"/></svg>