<svg width="196" height="41" xmlns="http://www.w3.org/2000/svg"><g fill="none" fill-rule="evenodd"><path d="M37.514 12.34a25.489 25.489 0 0 0-.9-2.09 23.078 23.078 0 0 0-1.106-1.997c-.652-1.002-1.31-1.9-2.072-2.705a12.017 12.017 0 0 0-2.676-2.131 16.567 16.567 0 0 0-2.905-1.24c-.964-.302-1.963-.508-3.102-.661a20.734 20.734 0 0 0-3.302-.119c-1.052.053-2.1.2-3.26.45-1.583.385-3.004.898-4.28 1.612a12.174 12.174 0 0 0-3.41 2.826c-.256.301-.465.555-.672.806a39.065 39.065 0 0 1-1.244 1.462 5.918 5.918 0 0 1-.558.55c-.184.152-.346.242-.48.249l-.085.004-.054-.065c-.115-.141-.15-.326-.12-.543.03-.204.118-.443.252-.701.172-.334.421-.709.715-1.098.332-.439.72-.895 1.117-1.329 1.172-1.279 2.42-2.303 3.813-3.124 1.392-.821 2.927-1.438 4.674-1.904h.005a21.113 21.113 0 0 1 3.499-.55c1.132-.075 2.275-.048 3.553.071h.005c1.247.15 2.344.362 3.408.68 1.064.32 2.092.746 3.203 1.324l.006.003a13.54 13.54 0 0 1 3.036 2.344c.857.88 1.598 1.864 2.334 2.976l.002.004c.457.723.848 1.414 1.201 2.12.353.705.67 1.43.98 2.218l.001.002a26.93 26.93 0 0 1 1.094 3.632l.001.003c.328 1.562.521 2.976.566 4.394.044 1.419-.06 2.84-.33 4.419l-.001.006c-.328 1.574-.752 2.918-1.374 4.172-.622 1.254-1.443 2.417-2.565 3.628l-.004.004c-1.04 1.049-2.025 1.954-3.08 2.785a27.08 27.08 0 0 1-3.484 2.322l-.005.002c-1.222.651-2.338 1.153-3.5 1.537-1.16.384-2.363.651-3.762.833h-.005c-1.426.142-2.676.154-3.914.03s-2.462-.382-3.833-.78h-.005a25.328 25.328 0 0 1-4.167-1.734c-1.272-.672-2.482-1.453-3.787-2.39l-.006-.003c-1.394-1.076-2.468-2.163-3.353-3.377-.884-1.212-1.578-2.55-2.213-4.13l-.002-.006C.761 25.454.377 23.922.175 22.368c-.203-1.554-.222-3.125-.097-4.88l.002-.007c.268-2.513.793-4.857 1.71-7.033A18.784 18.784 0 0 1 5.857 4.41c.986-.99 2.19-2.076 3.241-2.75.84-.536 1.599-.813 2.11-.586l.106.046-.009.114c-.003.057-.257.332-.66.764-.79.849-2.196 2.356-3.334 3.599C5.614 7.45 4.419 9.223 3.583 11.15c-.837 1.928-1.319 4.014-1.588 6.495-.119 1.618-.104 3.066.077 4.496.18 1.427.53 2.837 1.08 4.378.563 1.41 1.177 2.608 1.959 3.691.78 1.082 1.73 2.054 2.97 3.014 1.21.873 2.333 1.604 3.513 2.231a23.38 23.38 0 0 0 3.861 1.622c1.235.361 2.335.597 3.444.712 1.112.114 2.236.107 3.521-.017 1.266-.16 2.354-.4 3.404-.746 1.05-.345 2.063-.8 3.179-1.388a25.246 25.246 0 0 0 3.265-2.165c.989-.774 1.916-1.621 2.894-2.603 1.006-1.077 1.739-2.113 2.294-3.227.555-1.114.935-2.313 1.236-3.72.257-1.463.359-2.782.323-4.096-.035-1.313-.209-2.627-.504-4.082a25.267 25.267 0 0 0-.998-3.404z" fill="#EB0029"/><path d="M17.806 9.25a5.15 5.15 0 0 0-.017.323 345.449 345.449 0 0 0-.038 4.171l-.011 1.908c1.482-.497 2.934-.99 4.073-1.384a59.643 59.643 0 0 0 1.987-.715c.006-.215.004-.548.003-.955-.009-1.975-.025-5.594.853-5.68.234-.023.383-.02.505.197.087.153.133.43.173.957.047.62.071 1.44.081 2.253.015 1.16.001 2.3-.01 2.816.417-.115.938-.274 1.465-.435.475-.146.957-.294 1.355-.406a7.96 7.96 0 0 1 1.216-.262c.488-.053.905.005.985.336.155.644-.075.72-.64.905l-.076.024c-.646.215-1.407.406-2.177.6-.739.184-1.485.371-2.129.578-.087 1.738-.142 3.15-.176 4.388a135.213 135.213 0 0 0-.049 3.208c1.316-.43 2.462-.8 3.327-1.063.932-.283 1.533-.433 1.66-.383.105.04.187.111.24.2a.529.529 0 0 1 .071.331.677.677 0 0 1-.136.337.954.954 0 0 1-.483.322c-.45.141-1.082.346-1.884.609-.867.285-1.785.59-2.796.926l.01 2.832c.002 1.463.004 2.422.29 3.952.03.166.044.575-.008 1.002-.037.31-.108.633-.23.894-.134.29-.333.506-.617.559a.762.762 0 0 1-.222.005c-1.014-.12-.972-1.709-.956-2.361l.003-.12c.023-1.455.03-2.861.037-4.253l.011-1.95a423.1 423.1 0 0 0-4.069 1.383c-.917.317-1.63.573-1.992.716a58.72 58.72 0 0 0-.073 1.858c-.011.535-.006.905.014 1.097.023.226.065.28.116.347.052.069.111.146.173.317.102.282.195.834.187 1.377a2.947 2.947 0 0 1-.142.926c-.106.295-.28.524-.544.62a.802.802 0 0 1-.282.044c-.39-.006-.623-.163-.772-.402-.135-.217-.188-.496-.226-.781a9.828 9.828 0 0 1-.063-.725 26.823 26.823 0 0 1-.035-.955l-.115-.11a.972.972 0 0 0-.1-.085l-.109-.075c-.08-.056-.162-.111-.237-.17a3.056 3.056 0 0 0-.465-.3 6.816 6.816 0 0 0-.517-.237 5.661 5.661 0 0 0-.539-.184c-.284-.075-.615-.139-.956-.206-.628-.122-1.293-.25-1.819-.478l-.004-.003a1.512 1.512 0 0 1-.233-.134l-.002-.002a.917.917 0 0 1-.243-.262c-.02-.035-.038-.072-.056-.106a.466.466 0 0 1-.022-.064c-.154-.644.076-.72.64-.905l.077-.026c.64-.212 1.51-.434 2.39-.659.842-.215 1.694-.433 2.353-.646.088-1.737.143-3.15.177-4.388.032-1.18.045-2.207.049-3.207-1.332.434-2.593.84-3.563 1.137-1.05.321-1.77.51-1.897.459a.48.48 0 0 1-.24-.2.534.534 0 0 1-.071-.331.68.68 0 0 1 .137-.336.95.95 0 0 1 .482-.323c.45-.14 1.199-.383 2.117-.683.946-.31 1.998-.657 3.036-1l-.009-2.542a73.343 73.343 0 0 1 .03-2.771c.034-.979.105-1.952.249-2.759l.014-.084c.03-.174.067-.393.138-.585.132-.358.364-.624.815-.46.64.232.558 1.511.51 2.238zm5.196 13.683.754-.24a185.637 185.637 0 0 1 .238-7.541c-.82.218-3.018.92-5.393 1.679l-.734.234a184.641 184.641 0 0 1-.238 7.541c.818-.218 3.006-.916 5.373-1.673zM14.75 26.57c-.96.211-2.039.45-2.51.627.163.028.351.05.539.072.329.038.658.076.88.147l.194.061c.27.084.527.166.805.271l.002.001a7.3 7.3 0 0 1 .782.36c.145.078.284.163.421.256a70.527 70.527 0 0 1 .05-2.061c-.329.081-.735.171-1.163.265zM59.927 9.59c-.537 3.983-2.37 20.917-2.05 26.56.038.662.001 2.032.959 2.032 1.923 0 1.883-1.532 1.159-2.062-.11-.08-.207-.305-.19-1.085.196-8.28.861-17.99 1.3-25.903 5.053-2.285 7.99-3.609 13.932-5.393 3.7-1.11 6.991-.717 5.722-1.851-2.826-2.525-21.908 6.711-28.818 9.173-.75.356-4.986 1.771-4.534 2.48.576.902 10.945-3.375 12.52-3.95zM87.156 24c-.027 1.843-.491 4.146-.302 5.94-2.004-1.345-8.912-1.772-8.879-2.414.04-.76 7.845-3.155 9.18-3.526zm16.923 8.048c-.392.212-.325.631-.05 1.006 1.846 2.508 4.728 4.945 7.526 5.075 2.291.108 4.56-.56 6.294-2.256.542-.531.944-.87 1.421-1.486.244-.314.255-.229.514.084.586.707.316 2.506.584 3.286.49 1.43 3.349-.836.262-5.521-.149-.224-.371-.583-.667-.598-.971-.05-1.636 1.19-2.199 1.838-1.664 1.912-3.538 3.241-5.957 3.17-2.202-.065-4.85-2.821-6.212-4.103-.526-.496-.871-.842-1.516-.495zm-32.367 6.497c.893-.043 1.39-.04 1.98-2.41-.667-.35-2.081-1.376-2.865-.17-.507.778.037 2.58.885 2.58zm71.256-.377c1.585-.242.716-1.522-.416-2.035-2.061-.975-3.386-3.147-5.273-3.998-2.915-1.313-4.868-.465-7.05 1.83a16.7 16.7 0 0 0-1.509 1.797c-.219.302-.108.348-.447-.1-.493-.651-.108-1.952-.272-2.731-.198-.94-1.21-.872-1.432.03-.218.88-.133 2.264.23 3.312.296.855.818 1.849 1.638 1.88 1.039.041 1.4-1.264 1.956-1.875 1.493-1.642 3.92-3.607 6.176-2.527 1.723.824 4.608 4.691 6.399 4.417zm40.413-2.283c-.052-.002-.096-.293-.114-.4-.051-.3-.149-1.513-.336-2.287-.307-1.266-1.594-1.064-1.515.783.053 1.211.334 4.214 1.862 4.2 2.402-.02.926-5.222 5.252-5.547 2.156-.162 6.08 1.755 6.418 1.023.565-1.226-3.602-2.6-5.748-2.5-5.932.279-5.237 4.752-5.819 4.728zm-21.73-1.157c.937-1.072 3.996-1.461 5.464-1.661 1.45-.198 4.746-.236 4.9.527.124.467-2.381.549-3.742.548-.576 0-1.114.002-1.018.7.134.975 1.645.66 2.356.603 1.06-.084 4.46-.439 4.641-1.808.113-.854-1.526-1.608-2.414-1.8-2.636-.57-12.433-.109-12.212 3.874.266 3.105 5.211 2.445 7.343 2.342 1.716-.083 3.498-.28 5.229-.273 1.561.007 3.119.253 4.682.349.8.048 1.355-.28 1.349-.81-.007-.545-.913-.749-1.376-.814-2.018-.28-5.809-.229-7.074-.102-1.888.188-4.176.383-6.069.365-.844-.008-3.265-.658-2.059-2.04zm-8.62-26.271c.009-.644.304-2.789-.486-3.08-.734-.27-.853.77-.944 1.286-.359 2.052-.354 4.944-.348 7.05.014 4.812.071 8.905-.283 15.933-1.696.571-3.609.92-5.226 1.465-.653.22-.926.272-.767.942.137.57 1.737.167 2.519-.058 1.213-.35 2.495-.804 3.488-1.065-.102 1.889-.116 5.315.061 6.646.091.681.241 1.321 1.054 1.333 1.303.019 1.081-2.703.789-3.52-.166-.46-.317-.311-.378-.9-.05-.493-.03-1.852.081-3.954 1.703-.721 5.808-2.2 8.595-3.086.742-.238.798-.96.376-1.127-.485-.19-7.22 2.384-8.917 2.764.424-8.394.286-14.353.386-20.63zM99.186 20.426c2.789-.937 7.779-2.348 9.581-3.009.842-.309.696-.506.57-.662-.158-.194-.506-.292-1.401-.072a432.843 432.843 0 0 0-8.68 2.277c.428-4.418-.906-10.708-.238-14.697.149-.888-1.236-1.306-1.449-.22-.136.697-.198 1.877-.207 2.125-.148 4.21.709 9.119.446 13.055-2.36.675-6.941 2.02-9.14 2.556.522-4.448.884-8.893.847-13.313-.02-2.4-1.314-1.554-1.337-.477-.102 4.702-.528 9.539-1.11 14.31-3.135 1.131-11.528 3.9-11.773 5.29-.159.9 1.13 1.037 1.942 1.242 2.31.582 5.432.968 8.209 2.15 2.385 1.015 1.372 4.757 1.494 6.826.067 1.136.339 2.193 1.746 2.193.944-.056 1.337-1.244 1.257-3.02-.123-2.698-.24-4.427-1.666-6.13 0-1.802-.025-3.778.28-7.469a506.3 506.3 0 0 1 9.22-2.532c-.114 4.575-.353 8.598-.607 13.19-.04.721-.381 3.898 1.022 3.917 1.245.017 1.877-2.793.614-2.62-.105.014-.085.044-.066-.891a330.4 330.4 0 0 1 .446-14.02z" stroke="#2F0F48" fill="#FFF"/></g></svg>