<svg width="422" height="300" viewBox="0 0 422 300" fill="none" xmlns="http://www.w3.org/2000/svg">
<path d="M375.594 208.097L393.641 217.55V250.441C389.266 250.857 385.307 251.925 381.766 253.644C378.224 255.363 374.214 258.279 369.734 262.394C365.88 260.102 362.521 258.514 359.656 257.628C356.844 256.743 353.849 256.3 350.672 256.3C345.776 256.3 341.427 257.785 337.625 260.753C336.219 261.847 335.203 262.394 334.578 262.394C334.005 262.394 333.432 262.107 332.859 261.535C332.286 260.962 332 260.389 332 259.816C332 259.191 332.547 258.357 333.641 257.316C334.266 256.691 335.333 255.493 336.844 253.722L343.953 244.894L354.031 231.535L336.922 222.316V193.175C342.286 191.508 346.479 189.66 349.5 187.628C352.573 185.545 355.516 182.706 358.328 179.113C364.995 181.925 370.359 183.904 374.422 185.05C377.339 185.831 380.125 186.222 382.781 186.222C385.698 186.222 387.964 185.597 389.578 184.347C391.193 183.045 392 181.691 392 180.285C392 179.347 391.479 178.41 390.438 177.472C388.406 175.649 387.391 173.878 387.391 172.16C387.391 170.545 387.833 169.269 388.719 168.331C389.604 167.342 390.594 166.847 391.688 166.847C393.146 166.847 394.448 167.524 395.594 168.878C396.792 170.18 397.391 171.925 397.391 174.113C397.391 176.352 396.922 178.54 395.984 180.675C395.047 182.811 393.25 185.571 390.594 188.956L375.594 208.097ZM352.703 213.488L363.406 219.035L380.438 196.378C376.948 197.368 373.927 197.863 371.375 197.863C364.969 197.863 358.745 195.727 352.703 191.456V213.488ZM366.141 220.597L347.312 245.831C349.604 245.05 351.74 244.477 353.719 244.113C355.698 243.748 357.495 243.566 359.109 243.566C365.099 243.566 371.323 245.545 377.781 249.503V226.847L366.141 220.597Z" fill="black"/>
<path d="M316.433 179.847L340 205.463L302.561 229.912V244.082L321.949 251.246L335.069 242.915L336.908 245.25L309.831 262.847C304.316 260.096 299.775 258.123 296.21 256.93C292.644 255.736 287.574 254.49 281 253.192V251.246C282.894 250.208 284.148 248.936 284.761 247.431C285.429 245.873 285.763 242.551 285.763 237.464V192.928C291 191.163 295.346 189.554 298.8 188.1C301.307 187.01 307.185 184.259 316.433 179.847ZM303.731 188.801L302.561 189.346V224.617L324.54 210.291L303.731 188.801Z" fill="black"/>
<path d="M278.713 182.472L281.036 184.625C277.992 187.283 275.935 189.409 274.867 191.004C273.852 192.598 273.185 194.193 272.864 195.788C272.544 197.383 272.384 200.652 272.384 205.596V238.766C272.384 243.125 272.838 246.022 273.746 247.458C274.654 248.893 275.508 249.611 276.309 249.611C277.431 249.611 279.38 248.547 282.157 246.421L284 248.734L266.215 262.847C262.263 259.764 259.699 257.212 258.524 255.192C256.815 252.215 255.961 249.052 255.961 245.703V197.622L247.869 190.685L235.051 202.486V245.703L241.14 252.162L227.12 262.847L212.94 252.162L218.788 245.703V206.074C218.788 201.449 218.441 198.472 217.747 197.143C216.786 195.336 214.462 193.183 210.777 190.685L198.119 201.29V245.703L204.288 252.162L190.188 262.847L175.848 252.162L182.097 245.703V203.044C182.097 198.632 181.483 195.442 180.254 193.476C179.293 191.987 178.412 191.243 177.611 191.243C176.649 191.243 174.7 192.333 171.762 194.512L170 191.881L187.465 177.847C191.096 180.399 193.553 182.498 194.835 184.146C196.17 185.741 197.105 187.495 197.639 189.409C197.959 190.791 198.119 193.529 198.119 197.622L221.993 177.847C227.227 181.993 230.645 185.422 232.247 188.133C233.85 190.844 234.784 194.299 235.051 198.499L257.563 177.847L270.701 190.047L278.713 182.472Z" fill="black"/>
<path d="M159.019 150.847H169.107L158.145 168.029H154.967L159.019 150.847ZM152.981 178.052L167.121 189.745L160.846 195.87V239.142C160.846 243.703 161.269 246.673 162.117 248.052C162.964 249.43 163.838 250.12 164.738 250.12C165.374 250.12 165.956 249.987 166.486 249.722C167.227 249.351 168.763 248.29 171.093 246.54L173 249.006L154.967 262.847C150.731 259.824 148.003 256.987 146.785 254.336C145.567 251.631 144.958 246.938 144.958 240.256V195.87L139 189.745L152.981 178.052Z" fill="black"/>
<path d="M136.112 143.847L139 145.917C137.907 151.064 136.399 155.124 134.474 158.095C132.601 161.067 129.817 163.428 126.123 165.179C122.481 166.878 118.267 167.727 113.48 167.727C110.931 167.727 107.835 167.567 104.193 167.249V247.723C112.101 245.282 118.397 242.151 123.079 238.331C127.762 234.457 132.106 228.911 136.112 221.695L139 223.127C136.711 230.238 134.057 235.943 131.04 240.241C126.201 247.193 119.958 252.711 112.31 256.798C104.661 260.831 95.8166 262.847 85.7751 262.847C75.9938 262.847 66.8369 260.937 58.3042 257.116C53.3616 254.887 48.8351 251.756 44.7249 247.723C40.6146 243.69 37.2328 238.808 34.5794 233.077C31.978 227.346 30.6772 220.845 30.6772 213.575C30.6772 206.252 32.108 199.248 34.9696 192.561C37.8311 185.875 42.0454 179.481 47.6124 173.378C51.1504 169.557 56.1451 165.339 62.5966 160.722L52.7632 160.165C49.1213 159.952 45.0891 160.748 40.6667 162.553C36.2443 164.304 32.7844 166.665 30.287 169.637C27.8417 172.609 25.7086 177.04 23.8876 182.93L21 181.179C22.769 173.643 25.0582 167.78 27.8677 163.587C31.6138 158.016 36.5564 153.717 42.6958 150.693C48.8351 147.615 55.8329 146.076 63.6892 146.076C69.1521 146.076 78.8033 147.243 92.6429 149.578C106.482 151.913 116.004 153.08 121.206 153.08C124.692 153.08 127.346 152.55 129.167 151.488C131.04 150.374 133.355 147.827 136.112 143.847ZM71.3373 161.518L67.2011 161.12C60.2293 167.223 55.1045 173.325 51.8267 179.428C47.4043 187.653 45.1931 196.117 45.1931 204.82C45.1931 219.678 51.1764 231.804 63.1429 241.196C66.9409 237.959 69.2562 235.332 70.0886 233.316C70.9211 231.299 71.3373 227.187 71.3373 220.978V161.518ZM100.603 166.533C95.6605 165.843 91.2901 165.1 87.4921 164.304V211.904C87.4921 217.476 87.2579 221.031 86.7897 222.57C86.3735 224.056 85.3589 225.754 83.746 227.664C80.8324 230.954 75.0053 236.155 66.2645 243.266C70.6349 245.441 74.1728 246.901 76.8783 247.644C81.5608 248.917 86.0613 249.554 90.3796 249.554C92.6689 249.554 96.0767 249.262 100.603 248.678V166.533Z" fill="black"/>
<path d="M396.88 90.072L400.5 103.847L390 107.347L387.5 97.5411L380.326 98.3205L372.656 126.468L378.325 132.266L385.5 129.968V131.347L365.937 137.847C363.341 134.616 363.734 131.99 361.805 130.358C359.915 128.737 357.747 127.281 355.301 125.992L355.59 124.93C357.598 124.405 358.995 123.714 359.78 122.856C360.613 121.977 361.419 120.105 362.2 117.24L367.567 97.5411C368.243 95.0626 368.335 93.3243 367.844 92.3261C367.401 91.3064 366.765 90.6837 365.937 90.4579C365.029 90.2106 362.93 90.9896 361 91.847L359.779 90.0718L375.513 84.2499C378.297 87.256 380.09 89.6982 380.892 91.5765C381.418 92.7572 381.449 94.2005 380.984 95.9064L396.88 90.072Z" fill="black"/>
<path d="M352.577 75.1104L364.304 96.3864L334.445 106.099L332.003 115.564L344.048 123.776L354.471 120.53L355.328 122.415L333.748 129.383C330.445 126.57 327.674 124.45 325.438 123.023C323.201 121.595 319.944 119.867 315.664 117.838L316 116.537C317.476 116.179 318.554 115.551 319.233 114.654C319.96 113.732 320.761 111.572 321.638 108.174L329.315 78.4262C333.206 78.1731 336.46 77.8664 339.077 77.5062C340.982 77.2213 345.482 76.4227 352.577 75.1104ZM342.333 78.8458L341.438 79.0031L335.358 102.562L352.882 96.878L342.333 78.8458Z" fill="black"/>
<path d="M300.493 70.6196L319.159 55.4095L320.799 55.6758L317.924 69.802L329.293 71.6481L328.347 77.4693L316.979 75.6232L311.349 110.293L316.989 115.597L321.027 113.609L322.19 115.384L308.275 122.43C304.656 117.789 300.265 114.326 295.101 112.043L295.269 111.012C296.927 110.33 298.083 109.531 298.735 108.614C299.582 107.448 300.201 105.662 300.591 103.258L305.385 73.7404L300.125 72.8863L300.493 70.6196Z" fill="black"/>
<path d="M309.488 50.3413L306.527 58.3589L297.331 54.6774L295.391 66.6266L303.473 67.939L302.571 73.4921L294.489 72.1797L289.086 105.449L294.294 110.62L298.868 108.157L299.842 109.74L286.24 117.047C282.565 112.651 278.576 109.425 274.272 107.369L274.152 106.128C275.527 105.571 276.525 104.919 277.146 104.171C278.2 102.952 278.883 101.383 279.194 99.4661L283.904 70.4609L279.003 69.665L279.905 64.1118L284.806 64.9077L286.747 52.9586C292.508 50.4337 296.898 48.2289 299.915 46.3441L309.488 50.3413Z" fill="black"/>
<path d="M279.316 38.6499L280.143 41.048C277.554 42.0517 275.61 43.1009 274.308 44.1956C273.044 45.2591 272.118 46.499 271.528 47.9153C270.941 49.2979 270.547 51.4063 270.346 54.2404C270.282 55.1513 270.213 56.3672 270.141 57.8879L268.353 95.7555C268.129 99.9104 268.389 102.658 269.134 104C269.661 104.952 270.342 105.458 271.177 105.517C272.186 105.589 273.82 104.721 276.081 102.914L277.462 104.894L267.186 112.254L263.768 114.606C261.108 113.163 259.259 111.371 258.222 109.229C257.22 107.09 256.809 103.755 256.989 99.2241L235.745 112.624C225.016 104.642 217.617 100.508 213.546 100.22C212.538 100.148 211.664 100.392 210.925 100.95C210.372 101.352 210.067 101.957 210.01 102.767C209.948 103.644 210.21 104.629 210.797 105.722C211.567 107.2 211.936 108.159 211.905 108.598C211.859 109.239 211.577 109.778 211.056 110.216C210.538 110.62 209.931 110.798 209.235 110.748C208.366 110.687 207.694 110.3 207.219 109.589C206.519 108.623 206.219 107.416 206.322 105.965C206.437 104.345 207.034 102.573 208.114 100.649C209.231 98.6938 210.813 96.6017 212.859 94.3728C213.277 93.8938 213.658 93.4461 214.003 93.0296L222.163 83.6888C217.379 79.6543 214.08 75.8775 212.266 72.3584C210.487 68.8417 209.745 64.9916 210.041 60.8079C210.385 55.9494 211.973 51.5351 214.806 47.5648C217.674 43.597 221.75 40.5962 227.034 38.5625C232.352 36.5313 237.725 35.7076 243.152 36.0915C251.467 36.6798 259.288 40.0474 266.615 46.1945C268.63 44.4042 270.55 42.9633 272.375 41.8718C274.203 40.7465 276.516 39.6725 279.316 38.6499ZM252.811 48.5748C248.575 46.1729 244.283 44.8181 239.934 44.5105C235.307 44.1832 230.888 44.8708 226.677 46.5735C222.468 48.2424 219.244 50.5744 217.004 53.5694C214.766 56.5307 213.532 59.6477 213.301 62.9204C212.811 69.8369 216.24 76.2338 223.586 82.111L242.652 60.2157C240.14 58.6478 237.841 57.79 235.754 57.6424C232.866 57.4381 230.407 58.5866 228.377 61.0878C227.991 61.603 227.624 61.8483 227.276 61.8237C227.067 61.8089 226.866 61.693 226.672 61.4757C226.512 61.261 226.443 61.0018 226.464 60.6982C226.538 59.6522 227.18 58.2396 228.39 56.4602C229.634 54.6833 231.358 53.2964 233.562 52.2994C235.8 51.3048 238.102 50.8912 240.467 51.0586C242.903 51.2308 245.628 52.0001 248.643 53.3662L252.811 48.5748ZM259.174 54.2638C258.241 53.1128 257.612 52.3731 257.285 52.0448C257.058 51.7914 256.233 51.1057 254.808 49.9877L229.87 78.5374L257.945 80.5235L259.174 54.2638ZM223.711 85.5276L218.567 91.5215L244.293 104.48L257.231 96.5455L257.631 87.9272L223.711 85.5276Z" fill="black"/>
<path d="M170.516 58.0786L187.56 73.5774L164.707 92.1915L165.626 101.597L178.746 105.115L186.77 98.7484L188.122 100.181L171.588 113.587C167.81 112.113 164.718 111.093 162.313 110.528C159.908 109.963 156.518 109.46 152.142 109.018L152.016 107.726C153.185 106.916 153.921 105.992 154.223 104.954C154.559 103.878 154.562 101.652 154.232 98.2754L151.344 68.7163C154.648 67.211 157.38 65.8658 159.541 64.6809C161.107 63.7975 164.765 61.5968 170.516 58.0786ZM162.805 64.8316L162.076 65.2679L164.363 88.6775L177.781 77.7673L162.805 64.8316Z" fill="black"/>
<path d="M123.98 48.3372L124.688 49.415C122.388 51.2764 120.902 53.1135 120.231 54.9263C119.559 56.7391 119.498 59.4635 120.047 63.0996L122.424 78.8343L137.106 64.4724C140.936 66.0002 143.53 67.6489 144.888 69.4185C146.241 71.1559 147.266 74.3252 147.961 78.9266L151.263 100.791C151.895 104.974 151.877 108.104 151.209 110.179C150.156 113.563 147.778 116.951 144.072 120.341C139.223 124.825 132.824 129.033 124.874 132.966L123.858 131.293C130.263 127.725 134.641 124.694 136.991 122.2C139.341 119.706 140.747 117.223 141.21 114.75C141.547 112.889 141.154 108.242 140.031 100.809L136.977 80.5856C136.637 78.3332 136.152 76.8102 135.523 76.0165C134.597 74.9387 133.051 73.971 130.885 73.1132L122.781 81.1993L126.842 108.084L131.145 110.939L122.804 119.258L112.27 113.79L115.907 109.34L109.272 65.4182C108.67 61.4282 107.866 58.7522 106.86 57.3901C105.855 56.0281 104.107 54.9263 101.616 54.0847L102.028 52.8377C103.985 53.0358 105.578 53.3547 106.808 53.7942C108.033 54.2016 109.681 55.0058 111.753 56.2068C113.64 54.013 115.512 52.3314 117.372 51.1619C119.231 49.9925 121.434 49.0509 123.98 48.3372Z" fill="black"/>
<path d="M100.486 50.2024L102.742 51.0657C102.646 54.3958 102.124 57.1145 101.176 59.222C100.264 61.3221 98.6456 63.176 96.3213 64.7837C94.0261 66.3513 91.2277 67.4772 87.926 68.1614C86.1674 68.5257 84.0118 68.87 81.4589 69.1943L91.7409 118.815C96.884 116.179 100.826 113.349 103.568 110.324C106.303 107.266 108.591 103.226 110.433 98.203L112.607 98.6737C111.937 103.385 110.835 107.282 109.303 110.364C106.854 115.342 103.252 119.637 98.4988 123.25C93.7386 126.83 87.8952 129.337 80.9689 130.772C74.2219 132.17 67.6615 132.301 61.2877 131.165C57.5936 130.497 54.0713 129.214 50.7209 127.314C47.3704 125.415 44.414 122.888 41.8514 119.734C39.3248 116.572 37.597 112.749 36.6681 108.267C35.7325 103.751 35.8245 99.2278 36.944 94.6961C38.0636 90.1643 40.1535 85.6192 43.2138 81.0606C45.166 78.1991 48.0723 74.8839 51.9325 71.1151L45.0785 72.1771C42.5392 72.5667 39.8596 73.6339 37.0396 75.3785C34.2129 77.0903 32.128 79.0409 30.7851 81.2302C29.478 83.412 28.5728 86.4491 28.0693 90.3413L25.8538 89.6743C26.1112 84.7751 26.9411 80.8323 28.3434 77.8459C30.2154 73.8748 33.0756 70.518 36.9239 67.7755C40.7655 65.0002 45.3958 63.0511 50.8149 61.9282C54.5831 61.1474 61.3895 60.4877 71.234 59.9493C81.0786 59.4109 87.7952 58.7699 91.384 58.0262C93.7885 57.528 95.551 56.8215 96.6715 55.9069C97.8211 54.952 99.0927 53.0505 100.486 50.2024ZM58.0634 70.3566L55.1595 70.7024C51.1302 75.4617 48.3749 79.9571 46.8937 84.1884C44.8941 89.8921 44.4503 95.427 45.5622 100.793C47.4606 109.955 53.137 116.576 62.5913 120.657C64.7975 118.119 66.0589 116.168 66.3755 114.806C66.6921 113.443 66.4537 110.848 65.6605 107.02L58.0634 70.3566ZM78.8911 69.2657C75.3936 69.5468 72.2841 69.7133 69.5626 69.7654L75.6443 99.1155C76.3562 102.551 76.649 104.777 76.5226 105.793C76.4253 106.768 75.9425 107.96 75.074 109.369C73.4847 111.814 70.1297 115.853 65.009 121.487C68.3016 122.204 70.9284 122.598 72.8895 122.67C76.2822 122.786 79.4678 122.535 82.4465 121.918C84.0256 121.591 86.339 120.924 89.3867 119.917L78.8911 69.2657Z" fill="black"/>
</svg>
