<svg xmlns="http://www.w3.org/2000/svg" viewBox="0 0 1049.35 225.51"><g data-name="Слой 2"><g data-name="Слой 1"><path d="M909.31 89.53h93.36v11.73h-93.36zm-594.89 0h93.36v11.73h-93.36z" style="fill:none"/><path d="M465.97 66.08v93.36h46.68v-34.96H606v34.96h46.68v-58.41h-23.22V66.08h-46.68v35.18h-70.13V66.08h-46.68zm396.66 93.36h46.68v-35h140V66.08H862.63zm46.68-69.91h93.36v11.73h-93.36zm-664.79 93.13v-46.67h-46.68v89.52h186.49v-42.85H244.52zm0-93.13V42.85h139.81V0H197.84v89.53h46.68z"/><path d="M454.46 159.44V66.08H267.74v93.36h46.68v-35h93.36v35zm-140-58.18V89.53h93.36v11.73zm-175.03 34.73v46.67H0v42.85h186.11v-89.52h-46.68zm0-93.14v46.68h46.68V0H0v42.85h139.43zm524.76 116.59h186.95v-23.23H710.87v-11.73h140.27v-23.22H710.87V89.53h140.27V66.08H664.19v93.36zm-524.76-58.41h105.08v23.45H139.43z"/></g></g></svg>