<?xml version="1.0" encoding="utf-8"?>
<!-- Generator: Adobe Illustrator 27.8.1, SVG Export Plug-In . SVG Version: 6.00 Build 0)  -->
<svg version="1.1" xmlns="http://www.w3.org/2000/svg" xmlns:xlink="http://www.w3.org/1999/xlink" x="0px" y="0px"
	 viewBox="0 0 424.8 114.1" style="enable-background:new 0 0 424.8 114.1;" xml:space="preserve">
<style type="text/css">
	.st0{display:none;}
	.st1{display:inline;}
	.st2{fill:#163BFF;}
	.st3{fill:#ED1C24;}
</style>
<g id="Layer_2" class="st0">
	<rect class="st1" width="424.8" height="114.1"/>
</g>
<g id="Layer_1">
	<g>
		<g>
			<path d="M38.5,77.6c3.9-1.3,5.2-4.1,5.2-7.2c0-5.2-3.6-7.9-10.4-7.9H6.6v32.4h27.1c7.5,0,11-3.3,11-9.5
				C44.8,81.6,43,78.7,38.5,77.6z M16.1,68.4h14.2c2.6,0,3.9,1,3.9,3.1v0.7c0,2.2-1.3,3.2-3.9,3.2H16.1V68.4z M35.3,85.4
				c0,2.4-1.6,3.6-4.4,3.6H16.1v-7.9H31c2.9,0,4.4,1.2,4.4,3.3V85.4z"/>
			<path d="M80.6,62.5v17.1c0,7.1-3.6,8.7-11.2,8.7c-7.5,0-11.2-1.7-11.2-8.7V62.5h-9.5v17.7c0,11,7.2,15.4,20.7,15.4
				c13,0,19.8-4.4,19.8-15.4V62.5H80.6z"/>
		</g>
		<path d="M183.9,77.6c4-1.3,5.2-4.1,5.2-7.2c0-5.2-3.6-7.9-10.4-7.9h-26.7v32.4h27.1c7.5,0,11-3.3,11-9.5
			C190.2,81.6,188.4,78.7,183.9,77.6z M161.5,68.4h14.2c2.6,0,3.9,1,3.9,3.1v0.7c0,2.2-1.3,3.2-3.9,3.2h-14.2V68.4z M180.7,85.4
			c0,2.4-1.5,3.6-4.4,3.6h-14.9v-7.9h14.9c2.9,0,4.4,1.2,4.4,3.3V85.4z"/>
		<path d="M275.7,62.5v17.1c0,7.1-3.6,8.7-11.2,8.7c-7.5,0-11.2-1.7-11.2-8.7V62.5h-9.5v17.7c0,11,7.2,15.4,20.7,15.4
			c13,0,19.8-4.4,19.8-15.4V62.5H275.7z"/>
		<path d="M319.8,62.5v24l-18.9-24h-13v32.4h8.6v-24l18.9,24h13V62.5H319.8z"/>
		<path d="M330.7,62.5V70h15.4v24.9h9.5V70H371v-7.5H330.7z"/>
		<path d="M408.2,62.5l-11.3,13.4l-12.4-13.4h-11.3l0.7,0.7l17.8,19v12.7h9.5V82.3l17-19.8H408.2z"/>
		<path d="M198.6,16.8v24l-18.9-24h-13v32.4h8.6v-24l18.9,24h13V16.8H198.6z"/>
		<path d="M115.3,77V83H128c-0.4,2.4-2.1,3.9-5,4.7c-1.5,0.4-3.4,0.7-5.6,0.7c-0.7,0-1.5,0-2.2,0c-8.3,0-12.5-1.8-12.5-8.5v-2.7
			c0-6.5,4.2-8.5,12.5-8.5c6.8,0,10.5,0.9,12,4.1c0.1,0.1,0.1,0.3,0.2,0.4h9.6c-0.3-1.9-1-3.4-1.9-4.8c-0.8-1.2-1.9-2.3-3.1-3.2
			c-3.7-2.5-9.4-3.6-16.7-3.6c-13.9,0-22.1,4.4-22.1,17c0,12.1,7.4,16.3,19.9,16.7c0.7,0,1.4,0,2.2,0c1,0,2,0,3-0.1
			c11.5-0.6,19-5,19-15.6v-3H115.3z"/>
		<path d="M38.5,31.9c3.9-1.3,5.2-4.1,5.2-7.2c0-5.2-3.6-7.9-10.4-7.9H6.6v32.4h27.1c7.5,0,11-3.3,11-9.5C44.8,35.9,43,33,38.5,31.9
			z M16.1,22.7h14.2c2.6,0,3.9,1,3.9,3.1v0.7c0,2.2-1.3,3.2-3.9,3.2H16.1V22.7z M35.3,39.7c0,2.4-1.6,3.6-4.4,3.6H16.1v-7.9H31
			c2.9,0,4.4,1.2,4.4,3.3V39.7z"/>
		<path d="M49.2,16.8v32.4h9.5V16.8H49.2z"/>
		<path d="M67.1,41.3c-3.5,0-5.3,1.3-5.3,4.3c0,3.1,1.8,4.3,5.3,4.3c3.5,0,5.3-1.3,5.3-4.3C72.4,42.5,70.6,41.3,67.1,41.3z"/>
		<path d="M88.5,41.8l24.4-17.5v-7.5H75.7v7.4h24.1L75.4,41.7v7.5h38v-7.4H88.5z"/>
		<path d="M161.4,26.6c-0.5-1.7-1.3-3.1-2.4-4.4c-3.7-4.4-10.6-6.1-20.2-6.1c-15.1,0-23.4,4.1-23.4,16.8c0,12.9,8.4,17,23.4,17
			c1,0,2,0,2.9,0c1.9-0.1,3.8-0.2,5.4-0.5c9.8-1.5,15.2-6.1,15.2-16.4C162.3,30.5,162,28.4,161.4,26.6z M146.6,42
			c-2.1,0.5-4.7,0.7-7.8,0.7c-9.2,0-13.9-1.8-13.9-8.4v-2.7c0-6.2,4.7-8.3,13.9-8.3c9.2,0,13.9,2.1,13.9,8.3v2.7
			C152.7,38.6,150.7,40.9,146.6,42z"/>
		<path d="M222.7,42.3V36h19v-6.6h-19v-5.6h24.8v-7h-34.3v32.4h34.5v-6.9H222.7z"/>
		<path class="st2" d="M223.3,62.2c-1.2-0.1-2.5-0.2-3.8-0.3c-1,0-2-0.1-3-0.1s-2,0-3,0.1c-1.3,0.1-2.6,0.1-3.8,0.3
			C198.9,63.4,193,68,193,78.6c0,4,0.8,7.1,2.3,9.5c1.9,3,4.8,4.9,8.8,6.1c3.4,1,7.5,1.4,12.3,1.4c4.8,0,8.9-0.4,12.3-1.4
			c4-1.2,7-3.1,8.8-6.1c1.5-2.4,2.3-5.5,2.3-9.5C239.9,68,234.1,63.4,223.3,62.2z M230.4,80c0,5-2.7,7.2-8,8
			c-1.7,0.3-3.7,0.4-5.9,0.4c-2.2,0-4.2-0.1-5.9-0.4c-5.3-0.8-8-3.1-8-8.1v-2.7c0-5.5,3.7-7.7,10.9-8.2c0.9-0.1,1.9-0.1,2.9-0.1
			c1,0,2,0,3,0.1v0c7.3,0.4,10.9,2.7,10.9,8.2V80z"/>
		<g>
			<path class="st2" d="M209.1,55.5c-0.9-1-2.5-1.1-3.5-0.2c-0.5,0.4-0.8,1-0.8,1.7c0,0.7,0.2,1.3,0.6,1.8l6,6.8
				c0.5,0.5,1.2,0.8,1.9,0.8c0.6,0,1.2-0.2,1.6-0.6c0.5-0.4,0.8-1,0.9-1.7c0-0.7-0.2-1.3-0.6-1.8L209.1,55.5z"/>
			<path class="st2" d="M227.3,55.3c-1-0.9-2.6-0.8-3.5,0.2l-6,6.8c-0.4,0.5-0.7,1.1-0.6,1.8c0,0.7,0.3,1.3,0.9,1.7
				c0.5,0.4,1,0.6,1.6,0.6c0.7,0,1.4-0.3,1.9-0.8l6-6.8c0.4-0.5,0.7-1.1,0.6-1.8C228.1,56.3,227.8,55.7,227.3,55.3z"/>
		</g>
		<g>
			<path class="st3" d="M212.9,84c-0.3,0.7-0.6,1.4-1,2c-1,1.9-2.3,3.5-3.7,4.9c-3.2,3.3-7.2,5.5-11.6,6.4c-0.7-2.1-1.2-4.2-1.3-6.4
				c-0.1-2.8,0.2-5.6,1.1-8.3c0.5-1.4,1.1-2.9,1.9-4.2c3.4-6,7.4-9.3,15.3-9.3C215.4,74.4,215.3,78.5,212.9,84z"/>
			<circle class="st2" cx="206.8" cy="78" r="4.2"/>
		</g>
		<g>
			<path class="st3" d="M220.1,84c0.3,0.7,0.6,1.4,1,2c1,1.9,2.3,3.5,3.7,4.9c3.2,3.3,7.2,5.5,11.6,6.4c0.7-2.1,1.2-4.2,1.3-6.4
				c0.1-2.8-0.2-5.6-1.1-8.3c-0.5-1.4-1.1-2.9-1.9-4.2c-3.4-6-7.4-9.3-15.3-9.3C217.5,74.4,217.6,78.5,220.1,84z"/>
			<circle class="st2" cx="226.2" cy="78" r="4.2"/>
		</g>
	</g>
</g>
</svg>
