<svg xmlns="http://www.w3.org/2000/svg" width="2133.3333" height="1200" xml:space="preserve"><path fill="#1d2447" d="M2133.333257 1200H-.000023V.00003h2133.33328V1200"/>
    <path fill="#eff0f4"
          d="M300.79997 524.000017v183.066662h35.599999V524.000017h47.599998v-30.933333H253.333304v30.933333h47.466665M443.3333 706.933346h-35.6V493.066684h35.6v91.466665h59.333331v-91.466665h35.6v213.866662h-35.6V615.46668H443.3333v91.466665M568.26663 706.933346h106.799997v-30.933333h-71.199998v-60.666665h59.333331v-30.933333H603.86663v-60.399998h71.199998v-30.933333H568.266629v213.866662M827.199956 709.333346c-41.066665 0-67.999998-19.333333-67.999998-63.733332h35.6c0 12.533333 2.533332 31.333332 31.999998 31.333332 23.466666 0 27.6-15.866666 27.6-28.933332 0-16.133333-12.266667-29.2-36.4-39.333333-22.266666-9.2-53.999998-18.8-53.999998-58.266665 0-34.666666 24-59.733332 59.999998-59.733332 37.733333 0 60.533332 24.666666 61.333332 62.133332H849.73329c0-20.933333-7.6-30.799999-25.733333-30.799999-16.533333 0-24.399999 11.2-24.399999 28.533333 0 17.866666 15.2 22.533332 33.6 30.133332 23.333332 9.6 56.666664 20.533333 56.666664 67.466665-.133333 43.066666-27.866666 61.199999-62.666665 61.199999M947.86662 706.933346h35.6v-182.93333h47.466665v-30.933332H900.26662v30.933333h47.466666v182.933329h.133333M1074.266617 619.066681l19.866666-95.066664h4.533333l19.866666 95.066664zm52.666665-125.999997h-61.066665l-46.666665 213.866662h35.466665l13.2-59.466666h55.866665l14.4 59.466666h35.466666l-46.666666-213.866662M1298.933278 493.200018v182.933328h-.8l-47.999999-183.066662-.133333.4-.133334-.266666h-61.333331v213.733328h35.466665v-182.93333h.533334l49.333332 182.93333h60.399998V493.200018h-35.333332M1391.066609 674.000013h22.533333c10.266666 0 18.4-2.933333 24.533332-9.066666 6-6 9.2-13.733333 9.2-23.6V558.13335c0-9.733333-3.066666-17.466666-9.2-23.466666-6-6-14.266666-8.8-24.533332-8.8h-22.533333zm-35.866666-180.933329h58.533332c10.4 0 20 1.6 28.533333 4.8 8.533333 3.066667 15.866666 7.6 22 13.333333 5.999999 5.733333 10.799999 12.666667 14.133332 20.533333 3.333333 8 4.933333 16.933333 4.933333 26.533333v83.333331c0 9.733333-1.6 18.533333-4.933333 26.666666s-8.133333 14.933333-14.133333 20.666666-13.466666 10.133333-22 13.333333c-8.533333 3.2-17.999999 4.8-28.533332 4.8h-58.533332V493.066684M1542.666605 646.533347c0 9.733333 2.933333 17.333333 8.8 22.933333 5.866666 5.733333 13.733333 8.533333 23.466666 8.533333 9.866666 0 17.733333-2.8 23.466666-8.533333 5.866667-5.733333 8.8-13.333333 8.8-22.933333v-93.33333c0-9.733334-2.933333-17.333334-8.8-22.933334-5.866666-5.733333-13.733333-8.533333-23.466666-8.533333-9.866666 0-17.733333 2.8-23.466666 8.533333-5.866667 5.733334-8.8 13.333333-8.8 22.933333zm32.133333 62.799999c-10.133333 0-19.466667-1.466667-27.866666-4.4-8.4-2.933334-15.6-7.066667-21.333333-12.666667-5.866667-5.466666-10.4-12.133333-13.6-19.866666-3.2-7.866666-4.8-16.4-4.8-25.866666v-93.33333c0-9.466667 1.6-18 4.8-25.733334 3.2-7.733333 7.733333-14.266666 13.6-19.733332 5.866666-5.466667 12.933333-9.733333 21.333333-12.666667 8.4-2.933333 17.733333-4.4 27.866666-4.4s19.466666 1.466667 27.866666 4.4c8.4 2.933334 15.6 7.066667 21.333332 12.666667 5.866667 5.466666 10.4 12.133333 13.6 19.733332 3.2 7.733334 4.8 16.266667 4.8 25.733333v93.333331c0 9.2-1.6 17.733333-4.8 25.6-3.2 7.866666-7.733333 14.4-13.733333 19.866666-5.866666 5.466666-13.066666 9.733333-21.333333 12.8-8.133333 3.066666-17.333333 4.533333-27.733332 4.533333M1666.399935 493.066684v213.866662h35.6V615.46668h47.466665V584.53335h-47.466666v-60.533332h59.333332v-30.933333h-94.93333M1879.99993 493.066684v213.866662h-35.6V615.46668h-47.466665V584.53335h47.466666v-60.533332h-59.333332v-30.933333h94.933331"/></svg>
