<svg xmlns="http://www.w3.org/2000/svg" width="368.504" height="368.504" xml:space="preserve"><path fill="#C00" d="M84.206 84.206h200.092v200.093H84.206z"/><path d="M200.38 168.144h2.252v11.334h-2.252zm-31.468 2.279 7.089.003c.27.001.504.229.512.505h2.254c-.008-1.536-1.25-2.779-2.766-2.787h-7.089c-1.535 0-2.785 1.26-2.785 2.811v1.172c0 1.55 1.25 2.812 2.782 2.812h7.073c.288 0 .53.231.53.523v1.208a.533.533 0 0 1-.53.529v.008h-9.695v2.271l9.812-.006c1.482-.057 2.668-1.207 2.668-2.707v-1.303c0-1.559-1.25-2.81-2.784-2.81l-7.073-.005a.527.527 0 0 1-.527-.523v-1.172a.531.531 0 0 1 .529-.529m12.109-2.279h2.254v11.334h-2.254zm-34.823 0h-7.094c-1.523.008-2.756 1.26-2.764 2.799h2.256a.532.532 0 0 1 .508-.52h7.094c.288 0 .523.237.523.529v1.172a.524.524 0 0 1-.523.523l-7.094.005a2.796 2.796 0 0 0-2.764 2.798v4.026h2.256v-4.026a.52.52 0 0 1 .508-.514h7.094c1.537 0 2.781-1.265 2.781-2.812v-1.172c0-1.548-1.244-2.808-2.781-2.808m39.327 2.279h5.179v6.265c.008 1.539 1.246 2.785 2.762 2.791V177.2a.539.539 0 0 1-.516-.513v-6.265h5.178v-2.279h-12.603v2.28zm-24.434-2.279h-7.07c-1.538 0-2.781 1.26-2.781 2.805v5.636c0 1.552 1.243 2.896 2.781 2.896v-.002h7.07c1.536 0 2.785-1.26 2.785-2.808v-5.718c0-1.549-1.249-2.809-2.785-2.809zm.524 8.526a.526.526 0 0 1-.524.529l-7.07.008a.536.536 0 0 1-.533-.537v-5.724c0-.293.238-.523.533-.523h7.07c.291 0 .524.24.524.529v5.718zm60.744-6.247h7.043c.283.003.5.23.509.517h2.252c-.004-1.545-1.235-2.788-2.761-2.796h-7.043c-1.541 0-2.78 1.26-2.78 2.811v5.718c0 1.548 1.239 2.808 2.78 2.808l7.035.004c1.521-.004 2.76-1.256 2.769-2.791h-2.252a.535.535 0 0 1-.517.517l-7.035-.008a.53.53 0 0 1-.53-.529l-.004-1.731h7.577v-2.284h-7.577l.004-1.7c0-.295.237-.536.53-.536m-10.315 5.48c-.317.577-.567.534-.806.076l-3.881-7.835h-2.471l5.608 11.334c1.594 0 2.834-1.008 4.069-3.674l3.789-7.66h-2.465l-3.843 7.759zm-23.718 13.122h-7.074v-.004c-1.535 0-2.785 1.266-2.785 2.811v5.631c0 1.553 1.25 2.896 2.785 2.896v-.002h7.074c1.535 0 2.773-1.258 2.773-2.807v-5.715c.001-1.55-1.238-2.81-2.773-2.81zm.524 8.524a.531.531 0 0 1-.521.527l-7.074.008a.53.53 0 0 1-.53-.535v-5.719c0-.293.232-.525.53-.525h7.074c.279 0 .521.24.521.529v5.715zm-30.649-4.012h-8.132v-1.719a.536.536 0 0 1 .515-.514v-2.281c-1.522.01-2.761 1.262-2.768 2.795v8.535h2.253v-4.545h8.132v1.756a.538.538 0 0 1-.52.512v2.277c1.523-.006 2.75-1.252 2.766-2.789v-8.541h-2.246v4.514zm15.766-4.512v7.223c0 .295-.362.74-.71.412l-8.297-7.635c-1.287.266-2.261 1.438-2.261 2.811v8.521h2.261v-7.248c0-.293.345-.734.7-.404l8.307 7.633c1.281-.268 2.25-1.443 2.25-2.812v-8.498l-2.25-.003zm-38.208 2.28h7.048c.28.002.499.232.503.516h2.258c-.013-1.543-1.248-2.785-2.761-2.795h-7.048c-1.528 0-2.779 1.262-2.779 2.811v5.715c0 1.549 1.251 2.807 2.779 2.807l7.036.004c1.524-.004 2.756-1.256 2.772-2.789h-2.258a.531.531 0 0 1-.515.516l-7.036-.008a.525.525 0 0 1-.524-.527v-5.715a.53.53 0 0 1 .525-.535m77.561-2.28h-7.078v-.004c-1.527 0-2.771 1.266-2.771 2.811v5.631c0 1.553 1.244 2.896 2.771 2.896v-.002h7.078c1.535 0 2.783-1.258 2.783-2.807v-5.715c.001-1.55-1.248-2.81-2.783-2.81zm.534 8.524a.527.527 0 0 1-.533.527l-7.076.008a.533.533 0 0 1-.518-.535v-5.719c0-.293.236-.525.518-.525h7.076c.301 0 .533.24.533.529v5.715zm26.671-6.244h7.047c.273.002.5.232.504.516h2.264c-.014-1.543-1.248-2.785-2.768-2.799l-7.047.004c-1.531 0-2.779 1.262-2.779 2.811v5.715c0 1.543 1.248 2.807 2.779 2.807l7.039.004c1.525-.004 2.762-1.256 2.773-2.789h-2.264a.531.531 0 0 1-.514.516l-7.039-.008a.527.527 0 0 1-.521-.527v-1.738h7.567v-2.271h-7.567v-1.703a.538.538 0 0 1 .526-.538m-44.916 6.244.002-5.729a.537.537 0 0 1 .514-.514v-2.281c-1.521.008-2.754 1.262-2.766 2.795v5.729c0 1.549 1.244 2.807 2.773 2.807h5.078v-2.271l-5.078-.008a.531.531 0 0 1-.523-.528m66.832-4.012-7.078-.01a.528.528 0 0 1-.527-.521v-1.172c0-.289.246-.529.535-.529l7.084.002c.273.002.498.23.508.504h2.256c-.018-1.533-1.25-2.775-2.764-2.785h-7.084c-1.539 0-2.787 1.262-2.787 2.811v1.172c0 1.547 1.248 2.805 2.779 2.805h7.078c.287 0 .521.238.521.531v1.207a.525.525 0 0 1-.521.527v.008h-9.699v2.271l9.807-.006c1.48-.057 2.67-1.205 2.67-2.705v-1.303c0-1.559-1.25-2.807-2.778-2.807m-41.3-2.236 7.092.004a.532.532 0 0 1 .506.518h2.256a2.793 2.793 0 0 0-2.762-2.797h-7.092c-1.535 0-2.779 1.262-2.779 2.811v5.715c0 1.549 1.244 2.807 2.779 2.807h7.072c1.529 0 2.779-1.264 2.779-2.807v-1.207c0-1.557-1.25-2.805-2.779-2.805h-5.35v2.271h5.35c.291 0 .525.238.525.531v1.207a.527.527 0 0 1-.525.527h-7.072a.52.52 0 0 1-.521-.527v-5.715a.525.525 0 0 1 .521-.533m12.111-2.276h2.246v11.33h-2.246zm-129.967 2.28h5.17v6.262c.01 1.537 1.245 2.783 2.768 2.789v-2.277a.518.518 0 0 1-.512-.512v-6.262h5.166v-2.279h-12.592v2.279zm17.625 0h7.046a.525.525 0 0 1 .506.516h2.252c-.009-1.543-1.235-2.785-2.758-2.795h-7.046c-1.533 0-2.778 1.262-2.778 2.811v5.715c0 1.549 1.245 2.807 2.778 2.807l7.042.004c1.518-.004 2.753-1.256 2.762-2.789h-2.252a.535.535 0 0 1-.51.516l-7.042-.008a.523.523 0 0 1-.523-.527v-1.738h7.569v-2.271h-7.569v-1.703c0-.298.229-.538.523-.538" fill="#FFF"/></svg>