<svg width="1273" height="378" viewBox="0 0 1273 378" fill="none" xmlns="http://www.w3.org/2000/svg">
<g clip-path="url(#clip0_5070_9931)">
<path d="M472.298 126.108H496.68L532.688 233H533.011L569.018 126.108H593.4V253.184H577.576V146.291H577.253L541.407 253.184H524.453L488.607 146.291H488.284V253.184H472.46V126.108H472.298Z" fill="#100C08"/>
<path d="M695.449 206.681C695.449 214.27 694.48 221.052 692.543 227.188C690.605 233.323 687.699 238.49 684.146 242.689C680.594 246.887 675.911 250.278 670.583 252.538C665.254 254.799 659.28 255.929 652.498 255.929C645.716 255.929 639.742 254.799 634.414 252.538C629.085 250.278 624.564 247.048 621.012 242.689C617.459 238.329 614.553 233.323 612.615 227.188C610.678 221.052 609.709 214.27 609.709 206.681C609.709 199.092 610.678 192.472 612.615 186.336C614.553 180.361 617.459 175.194 621.012 170.835C624.564 166.475 629.247 163.246 634.414 160.985C639.742 158.725 645.716 157.594 652.498 157.594C659.28 157.594 665.254 158.725 670.583 160.985C675.911 163.246 680.432 166.475 684.146 170.835C687.86 175.194 690.605 180.2 692.543 186.336C694.48 192.31 695.449 199.092 695.449 206.681ZM679.625 206.681C679.625 201.514 678.979 196.831 677.849 192.472C676.719 188.112 674.942 184.56 672.682 181.33C670.421 178.262 667.515 175.84 664.124 174.064C660.733 172.288 656.858 171.481 652.337 171.481C647.816 171.481 643.94 172.288 640.711 174.064C637.32 175.84 634.575 178.262 632.314 181.33C630.054 184.398 628.278 188.112 627.147 192.472C626.017 196.831 625.371 201.514 625.371 206.681C625.371 211.848 626.017 216.692 627.147 221.052C628.278 225.411 630.054 229.125 632.314 232.193C634.575 235.261 637.482 237.683 640.711 239.459C644.102 241.235 647.977 242.043 652.337 242.043C656.696 242.043 660.733 241.235 664.124 239.459C667.515 237.683 670.26 235.261 672.682 232.193C674.942 229.125 676.719 225.411 677.849 221.052C678.979 216.692 679.625 212.009 679.625 206.681Z" fill="#100C08"/>
<path d="M712.726 160.501H728.55V231.386H728.873L774.408 160.501H792.654V253.023H776.668V182.137H776.345L730.972 253.023H712.726V160.501ZM737.754 124.493C738.561 128.207 740.015 131.113 742.437 133.212C744.859 135.311 748.25 136.442 752.932 136.442C757.615 136.442 761.167 135.473 763.428 133.212C765.85 131.113 767.303 128.207 767.949 124.331H782.643C782.643 127.722 781.835 130.952 780.382 133.697C778.929 136.442 776.991 138.864 774.246 140.801C771.663 142.739 768.433 144.354 764.881 145.322C761.167 146.453 757.13 146.937 752.771 146.937C748.411 146.937 744.374 146.453 740.66 145.322C737.108 144.354 733.879 142.739 731.295 140.801C728.712 138.864 726.613 136.442 725.159 133.697C723.706 130.952 722.899 127.722 722.899 124.17H737.593L737.754 124.493Z" fill="#100C08"/>
<path d="M931.517 189.565C931.517 195.055 931.033 200.545 929.903 205.874C928.772 211.202 927.158 216.531 924.897 221.375C922.637 226.38 919.892 230.901 916.501 235.1C913.11 239.298 909.073 243.012 904.552 246.241C899.869 249.309 894.702 251.892 888.889 253.507C883.077 255.283 876.618 256.091 869.675 256.091C862.731 256.091 856.273 255.283 850.46 253.507C844.647 251.731 839.48 249.309 834.797 246.241C830.276 243.173 826.239 239.459 822.848 235.1C819.458 230.901 816.551 226.219 814.452 221.375C812.191 216.531 810.577 211.202 809.447 205.874C808.316 200.545 807.832 195.055 807.832 189.565C807.832 179.716 809.285 170.673 812.03 162.438C814.775 154.203 818.812 147.26 824.14 141.286C829.469 135.473 835.928 130.79 843.517 127.561C851.106 124.331 859.986 122.717 869.675 122.717C879.363 122.717 888.082 124.331 895.833 127.561C903.583 130.79 910.042 135.311 915.209 141.286C920.376 147.26 924.574 154.203 927.319 162.438C930.064 170.673 931.517 179.716 931.517 189.565ZM914.563 189.565C914.563 181.976 913.594 175.033 911.495 168.736C909.558 162.438 906.49 156.948 902.776 152.266C898.901 147.745 894.218 144.031 888.728 141.609C883.077 139.025 876.779 137.733 869.675 137.733C862.57 137.733 856.111 139.025 850.621 141.609C844.97 144.192 840.287 147.745 836.573 152.266C832.698 156.787 829.792 162.277 827.854 168.736C825.916 175.033 824.786 182.138 824.786 189.565C824.786 196.993 825.755 204.259 827.531 210.718C829.307 217.176 832.214 222.505 835.927 227.026C839.641 231.547 844.324 235.1 849.975 237.683C855.627 240.267 862.247 241.397 869.836 241.397C877.425 241.397 884.045 240.105 889.697 237.683C895.348 235.1 900.031 231.709 903.745 227.026C907.458 222.343 910.203 217.015 912.141 210.718C914.079 204.42 914.886 197.316 914.886 189.565H914.563Z" fill="#100C08"/>
<path d="M1004.02 241.881H1003.69C1002.08 244.788 1000.3 247.21 998.527 248.986C996.751 250.762 994.813 252.215 992.876 253.184C990.938 254.153 988.839 254.96 986.578 255.283C984.479 255.606 982.219 255.768 979.958 255.768C975.437 255.768 971.077 254.637 966.879 252.538C962.681 250.439 958.806 247.21 955.576 243.011C952.185 238.813 949.602 233.646 947.503 227.349C945.565 221.052 944.435 213.947 944.435 205.873C944.435 201.837 944.758 197.961 945.242 193.925C945.727 189.888 946.695 186.174 947.987 182.622C949.279 179.07 950.732 175.679 952.67 172.611C954.607 169.543 956.868 166.798 959.452 164.537C962.035 162.277 965.103 160.501 968.494 159.209C971.885 157.917 975.76 157.271 979.958 157.271C983.188 157.271 985.933 157.756 988.516 158.563C991.1 159.532 993.36 160.662 995.136 161.954C997.074 163.407 998.689 164.86 1000.14 166.475C1001.6 168.09 1002.73 169.543 1003.86 170.996H1004.18V125.462H1020V170.996H1020.33C1021.29 169.543 1022.59 168.09 1024.04 166.475C1025.49 164.86 1027.11 163.407 1029.04 161.954C1030.98 160.501 1033.24 159.37 1035.67 158.563C1038.25 157.594 1040.99 157.271 1044.22 157.271C1048.42 157.271 1052.3 157.917 1055.69 159.209C1059.08 160.501 1062.15 162.277 1064.73 164.537C1067.31 166.798 1069.57 169.381 1071.51 172.611C1073.45 175.679 1074.9 179.07 1076.19 182.622C1077.32 186.174 1078.29 189.888 1078.94 193.925C1079.58 197.961 1079.75 201.837 1079.75 205.873C1079.75 213.947 1078.78 221.213 1076.68 227.349C1074.58 233.646 1072 238.813 1068.6 243.011C1065.21 247.21 1061.5 250.278 1057.3 252.538C1053.1 254.637 1048.58 255.768 1044.22 255.768C1041.96 255.768 1039.7 255.606 1037.6 255.283C1035.5 254.96 1033.4 254.153 1031.31 253.184C1029.37 252.215 1027.43 250.762 1025.49 248.986C1023.55 247.21 1021.94 244.788 1020.33 241.881H1020V289.515H1004.18V241.881H1004.02ZM1004.02 198.607C1004.02 194.248 1003.53 190.372 1002.4 186.982C1001.27 183.591 999.819 180.846 998.043 178.424C996.267 176.163 994.006 174.387 991.584 173.095C989.162 171.965 986.578 171.319 983.995 171.319C979.797 171.319 976.083 172.288 973.176 174.064C970.109 175.84 967.687 178.424 965.749 181.653C963.811 184.882 962.519 188.596 961.551 192.794C960.582 196.993 960.259 201.675 960.259 206.519C960.259 209.103 960.42 211.848 960.743 214.593C961.066 217.499 961.551 220.244 962.197 222.828C962.842 225.573 963.811 228.156 964.942 230.578C966.072 233 967.525 235.099 969.301 237.037C971.077 238.975 973.015 240.266 975.437 241.397C977.859 242.527 980.443 243.011 983.672 243.011C990.292 243.011 995.298 240.589 998.85 235.907C1002.4 231.224 1004.02 224.604 1004.02 215.885V198.446V198.607ZM1040.02 243.011C1043.25 243.011 1046 242.527 1048.42 241.397C1050.84 240.266 1052.94 238.813 1054.72 237.037C1056.49 235.261 1057.95 233 1059.08 230.578C1060.21 228.156 1061.18 225.573 1061.82 222.828C1062.47 220.083 1062.95 217.338 1063.28 214.593C1063.6 211.848 1063.76 209.103 1063.76 206.519C1063.76 201.675 1063.28 197.154 1062.47 192.794C1061.5 188.596 1060.21 184.721 1058.27 181.653C1056.33 178.424 1053.91 176.002 1051 174.064C1048.1 172.126 1044.38 171.319 1040.19 171.319C1037.6 171.319 1035.02 171.965 1032.6 173.095C1030.18 174.387 1028.08 176.002 1026.14 178.424C1024.36 180.684 1022.75 183.591 1021.78 186.982C1020.65 190.372 1020.16 194.248 1020.16 198.607V216.046C1020.16 224.765 1021.94 231.386 1025.33 236.068C1028.72 240.751 1033.73 243.173 1040.19 243.173L1040.02 243.011Z" fill="#100C08"/>
<path d="M1096.7 160.501H1112.52V231.386H1112.85L1158.38 160.501H1176.63V253.023H1160.64V182.138H1160.32L1114.95 253.023H1096.7V160.501Z" fill="#100C08"/>
<path d="M1272.06 220.567C1271.89 222.828 1271.41 225.25 1270.76 227.995C1270.12 230.578 1269.15 233.323 1267.86 235.907C1266.57 238.49 1264.95 241.074 1263.01 243.496C1261.08 245.918 1258.65 248.017 1255.75 249.955C1252.84 251.892 1249.61 253.346 1245.74 254.476C1241.86 255.606 1237.5 256.091 1232.5 256.091C1229.75 256.091 1227.01 255.768 1223.94 255.122C1220.87 254.476 1217.96 253.346 1215.22 251.731C1212.31 250.116 1209.73 248.179 1207.15 245.757C1204.56 243.335 1202.3 240.267 1200.36 236.714C1198.43 233.162 1196.81 228.802 1195.68 224.12C1194.55 219.276 1193.91 213.786 1193.91 207.488C1193.91 199.899 1195.04 192.956 1197.13 186.82C1199.4 180.684 1202.3 175.517 1205.85 171.158C1209.57 166.96 1213.77 163.569 1218.61 161.308C1223.45 159.048 1228.62 157.917 1233.95 157.917C1238.79 157.917 1243.15 158.402 1246.71 159.532C1250.42 160.501 1253.65 161.954 1256.39 163.73C1259.14 165.506 1261.56 167.444 1263.34 169.705C1265.27 171.965 1266.73 174.387 1268.02 176.809C1269.31 179.231 1270.12 181.815 1270.76 184.398C1271.41 186.982 1271.73 189.404 1271.89 191.826H1257.04C1256.23 185.529 1254.13 180.684 1250.58 177.132C1247.03 173.58 1242.02 171.804 1235.73 171.804C1231.37 171.804 1227.49 172.772 1224.26 174.549C1221.03 176.325 1218.29 178.747 1216.19 181.976C1214.09 185.206 1212.47 189.081 1211.34 193.602C1210.21 198.123 1209.73 203.129 1209.73 208.457C1209.73 214.593 1210.38 219.76 1211.51 224.281C1212.64 228.641 1214.25 232.355 1216.35 235.1C1218.45 238.006 1221.03 240.105 1224.1 241.397C1227.17 242.689 1230.72 243.496 1234.6 243.496C1237.34 243.496 1239.92 243.012 1242.51 242.043C1244.93 241.074 1247.19 239.621 1249.13 237.683C1251.07 235.746 1252.68 233.323 1254.13 230.578C1255.59 227.834 1256.56 224.604 1257.04 221.052H1271.89L1272.06 220.567Z" fill="#100C08"/>
<path d="M325.375 0H106.576L189.037 81.9627C190.891 81.8548 192.757 81.8008 194.637 81.8008C213.418 81.7922 231.829 86.9907 247.798 96.8113C263.768 106.632 276.661 120.685 285.027 137.389C286.638 137.284 288.268 137.227 289.908 137.227C303.456 137.23 316.733 140.996 328.24 148.101C339.746 155.206 349.023 165.365 355.023 177.432L380.912 151.714V58.0359C380.662 43.2081 374.815 29.0143 364.53 18.2658C354.244 7.51739 340.27 0.998362 325.375 0V0Z" fill="#00B4FF"/>
<path d="M355.061 177.432L249.818 282.008L342.605 374.181C353.757 369.996 363.381 362.57 370.223 352.872C377.064 343.174 380.806 331.654 380.959 319.812V151.677L355.061 177.432Z" fill="#FF6E6E"/>
<path d="M42.2864 248.015C39.4818 241.177 38.0455 233.862 38.0578 226.479C38.0578 195.799 62.3454 170.929 92.2998 170.929C92.9998 170.929 93.6901 170.929 94.3805 170.977C97.0091 147.404 107.97 125.523 125.313 109.224C142.656 92.9254 165.257 83.2664 189.095 81.9654L106.635 0.050293H55.9595C40.8867 1.00466 26.7462 7.62768 16.4149 18.5718C6.08359 29.516 0.337743 43.9591 0.346384 58.9625V289.687L42.2864 248.015Z" fill="#23D3FF"/>
<path d="M249.733 282.007H92.2807C84.0935 282.015 76.0172 280.126 68.6931 276.492C56.702 270.488 47.312 260.365 42.2672 248.002L0.327271 289.684V318.935C0.327271 334.598 6.59058 349.618 17.7393 360.693C23.2596 366.177 29.8132 370.527 37.0258 373.495C44.2384 376.463 51.9689 377.99 59.7758 377.99H321.512C328.695 377.987 335.818 376.696 342.54 374.18L249.733 282.007Z" fill="#00F5D0"/>
<path d="M380.662 58.0359C380.413 43.1951 374.556 28.9898 364.255 18.239C353.953 7.48825 339.958 0.977899 325.049 0L55.6131 0C40.5452 0.967703 26.4126 7.5948 16.0841 18.5361C5.75553 29.4773 0.00507372 43.9128 0 58.9122H0V318.945C0 334.607 6.26331 349.628 17.4121 360.703C28.5608 371.778 43.6818 378 59.4485 378H321.214C328.397 377.997 335.52 376.707 342.241 374.19H342.308C353.461 370.006 363.086 362.581 369.927 352.882C376.769 343.184 380.51 331.663 380.662 319.821V153.619V58.0359Z" fill="url(#paint0_radial_5070_9931)"/>
<path d="M355.301 177.546C349.301 165.48 340.024 155.32 328.517 148.215C317.011 141.111 303.734 137.344 290.186 137.341C288.546 137.341 286.925 137.398 285.315 137.503C276.946 120.799 264.051 106.747 248.08 96.9262C232.11 87.1057 213.697 81.9071 194.914 81.9153C192.997 81.9153 191.175 81.9724 189.315 82.0772C165.476 83.3782 142.875 93.0372 125.532 109.336C108.189 125.635 97.2285 147.516 94.5999 171.088C93.9095 171.088 93.2192 171.041 92.5192 171.041C62.5648 171.041 38.2772 195.911 38.2772 226.591C38.265 233.974 39.7012 241.289 42.5058 248.127C47.5505 260.489 56.9405 270.612 68.9316 276.616C76.2558 280.251 84.332 282.139 92.5192 282.131H250.058L355.31 177.556L355.301 177.546Z" fill="white"/>
<path fill-rule="evenodd" clip-rule="evenodd" d="M322.853 170.317C334.135 170.154 345.3 172.617 355.453 177.508L250.162 282.083V239.287H250.258C251.1 220.72 259.115 203.19 272.636 190.344C286.157 177.498 304.143 170.325 322.853 170.317Z" fill="#FFD12F"/>
</g>
<defs>
<radialGradient id="paint0_radial_5070_9931" cx="0" cy="0" r="1" gradientUnits="userSpaceOnUse" gradientTransform="translate(190.331 189.005) scale(190.293 189.033)">
<stop stop-color="#261C38" stop-opacity="0.6"/>
<stop offset="0.28" stop-color="#261C38" stop-opacity="0.3"/>
<stop offset="0.86" stop-color="#302640" stop-opacity="0.05"/>
<stop offset="1" stop-color="#302640" stop-opacity="0"/>
</radialGradient>
<clipPath id="clip0_5070_9931">
<rect width="1272.06" height="378" fill="white"/>
</clipPath>
</defs>
</svg>
