<svg xmlns="http://www.w3.org/2000/svg" version="1.1" id="Layer_1" x="0" y="0" viewBox="0 0 113.729 71.453"
     style="enable-background:new 0 0 113.729 71.453" xml:space="preserve"><style type="text/css" id="style3">.st0{fill:#fff}</style>
    <g id="g5"><path class="st0" d="M1.966 21.416C.39 19.156-2.088 13.502 3.272 9.248c3.908-3.1 10.025-6.8 14.776-8.41 3.938-1.334 6.803-1.095 7.919.865 0 0 2.458 3.432 1.719 6.296-.14.542-1.84 3.517-1.84 3.517l-7.412 14.122 9.04-11.741s.391-.689 1.41-.858c1.615-.268 4.55 1.906 2.875 3.027-.245.164-.576.311-.986.478-.7-.19-15.655 18.621-17.041 20.32-.463.568-.763 1.322-.786 1.77-.056 1.097-.528 3.315-3.639 2.094 0 0-3.187-1.73-.869-5.431 0 0 9.011-17.31 10.431-20.715 1.394-3.343 4.838-8.662 2.076-10.141 0 0-.676-.529-3.67 1.538.025-.018-12.382 8.343-13.473 10.285 0 0-1.087 1.063-.876 2.23.198 1.099 1.302 1.406 1.09 2.377-.288 1.324-1.764.955-2.05.545z" id="path7"/>
        <path class="st0"
              d="M40.669 31.344c-.491.788-1.3 1.8-1.568 2.093-.816.89-2.177 2.979.154 5.315 1.935 1.939 3.137 2.091 3.888 1.899.262-.067.373-.084.291-.701-.059-.446-.38-1.304-.051-2.252.707-2.036 12.358-22.413 13.202-23.766.581-.931 1.185-3.037-1.396-5.519-2.579-2.483-3.529-3.268-2.884.703-.024.279.546 2.07-2.631 7.18-.097.156-1.244 2.184-2.384 4.207-.934 1.658-5.862 9.624-6.621 10.841z"
              id="path9"/>
        <path class="st0"
              d="M38.221 25.664s-4.467-4.083-9.106 2.062-4.573 10.871-3.103 11.619c1.47.748 5.73-1.253 7.745-8.542 0 0-2.864-3.339-.296-4.81 0 0 1.567-1.714 3.534.507 0 0 1.386 1.229 1.02 3.348 0 0 2.458 1.016 3.729 1.284s-1.343 3.141-2.614 2.873l-2.213-1.072s-5.783 10.855-11.832 7.487c0 0-7.054-3.54 1.625-15.635 0 0 4.007-5.212 8.948-4.414-.001-.001 4.456 1.151 2.563 5.293z"
              id="path11"/>
        <path class="st0"
              d="M70.445 44.02c-.72-.835-2.567-1.203-2.964-1.282.299-1.189 2.992-14.436 4.175-15.731 1.183-1.299-1.607-4.152-2.79-4.668 0 0-.843-.691-.76 1.207 0 0-4.899-7.515-15.211 2.682 0 0-8.283 8.294-3.214 13.307 0 0 3.55 5.009 12.173-2.852 0 0 4.392-4.377 5.239-5.691 0 0-1.307 5.119-3.389 11.363-1.611-.256-12.827-.102-20.103 1.761-7.136 1.827-12.751 6.422-14.439 8.427-3.17 3.766-3.817 7.28-3.789 8.678.031 1.602.737 4.769 3.03 6.725 2.294 1.956 5.196 2.984 7.128 3.184 1.257.13 5.262 1.266 12.404-1.687 3.302-1.365 8.311-5.627 10.462-8.375 5.08-6.49 8.202-14.878 8.21-14.902 3.596.598 5.502 1.672 6.062 2.692.001 0-.657-3.022-2.224-4.838zm-7.321-14.676c-2.072 2.7-4.673 4.783-6.321 5.967-2.942 2.115-5.276 2.179-5.598 1.544-.516-1.788.143-3.405 1.298-5.179.944-1.451 2.482-3.295 2.482-3.295 5.318-6.773 10.212-4.718 10.469-3.843.304 1.857-1.05 3.138-2.33 4.806zM50.376 60.29c-5.485 4.345-12.382 4.63-15.331 3.999-2.636-.563-4.095-3.056-4.093-5.351.002-2.58 3.047-5.4 4.523-6.605 4.126-3.368 10.544-5.283 12.899-5.737 4.334-.837 13.348-1.192 13.348-1.192S56.916 55.11 50.376 60.29z"
              id="path13"/>
        <g id="g15"><path class="st0" d="m99.556 42.111-4.276 3.668c-.07.06-.219.102-.376.121-.157.019-.599-.08-.689-.112-3.061-1.083-8.093-3.821-7.412-10.414l-.867-.326c-3.408 3.882-7.952 7.549-11.167 6.486-4.276-1.414-4.685-5.547-2.977-9.691 2.482-6.023 9.361-12.125 15.247-10.178 3.034 1.004 4.058 2.946 3.766 5.141l.397.474c.326.058.643.138.895.221.558.184.889.404.731.789-1.515 3.678-2.059 8.983-.593 12.002.247.509.716 1.139 1.366 1.696 1.106.947 2.707 1.275 4.18.916.617-.152 1.279-.396 1.775-.793M87.968 28.213a.404.404 0 0 0 .018-.379c-.602-1.287-1.364-2.035-2.249-2.328-3.84-1.271-9.578 5.647-11.146 9.454-.814 1.976-.77 3.578.469 3.988 4.997 1.653 10.7-7.004 12.908-10.735z" id="path17"/></g>
        <path class="st0"
              d="m101.817 28.856.069-.274c.783-.35 3.6-1.458 6.469-.71l.055.023c.328.198 3.693 2.436 1.54 9.712-.038.13-.659 1.6-1.446 2.566-2.154 2.642-6.814 6.382-13.797 5.725-.061-.006-.237-.064-.218-.121a.948.948 0 0 1 .286-.374c.728-.448 2.199-1.33 4.193-2.817.389-.29 1.89-1.386 2.763-2.77.347-.549 1.38-2.55 1.539-4.636.194-2.532-.588-5.243-1.453-6.324z"
              id="path19"/>
        <path class="st0"
              d="M96.328 47.436s19.096-.424 12.98-7.049l-.001-.001c.014-.006 2.605-1.084 4.316-.953.002 0 .003.001.002.003l-.37 2.635c0 .002-.002.006-.003.004-.046-.08-.909-1.553-1.818-.318 0 0 4.585 2.345.791 5.213.001 0 1.188.718-15.897.466z"
              id="path21"/>
        <g id="g23"><path class="st0" d="M97.045 56.38c-2.276 0-3.701-1.455-3.701-3.758 0-2.061 1.323-3.768 3.78-3.768 1.569 0 3.151.788 3.308 2.323h-1.054c-.235-.939-1.088-1.505-2.276-1.505-1.896 0-2.692 1.424-2.692 2.939 0 1.829 1.021 2.95 2.681 2.95 1.357 0 2.188-.728 2.355-2.071h1.054c-.18 1.829-1.482 2.89-3.455 2.89z" id="path25"/>
            <path class="st0" d="M107.373 49.844h-2.681v6.364h-1.055v-6.364h-2.681v-.829h6.416v.829z" id="path27"/>
            <path class="st0" d="M113.529 49.844h-4.194v2.243h3.701v.798h-3.701v3.323h-1.054v-7.192h5.248v.828z"
                  id="path29"/></g></g>
    <path style="fill:#fff;fill-opacity:1"
          d="M9.913 40.849c-.818-.255-1.538-.889-1.93-1.698-.275-.568-.324-.869-.26-1.584.07-.776.421-1.543 2.88-6.308 5.36-10.378 9.927-19.764 10.877-22.342.795-2.161.732-3.492-.202-4.278-.37-.31-.561-.37-.936-.292-1.19.249-4.101 2.108-9.782 6.247-7.604 5.54-8.766 7.057-7.016 9.16.706.85.328 1.918-.678 1.918-.645 0-.994-.383-1.702-1.868C.303 18 .062 16.892.153 15.163c.183-3.524 1.854-5.396 8.59-9.62 2.773-1.74 7.018-3.84 9.234-4.57 3.001-.988 4.866-1.144 6.399-.535 1.558.62 3.312 3.957 3.33 6.338.008 1.03-.03 1.148-.904 2.8-5.038 9.528-8.373 15.93-8.322 15.98.033.033 2.159-2.663 4.723-5.992 5.223-6.782 5.151-6.712 6.605-6.364 1.419.34 2.619 1.587 2.268 2.357-.088.193-.492.52-.897.725-.43.219-1.208.874-1.87 1.578-2.488 2.645-15.522 18.589-16.083 19.674-.119.23-.288.807-.376 1.282-.22 1.188-.55 1.763-1.16 2.018-.606.253-1 .256-1.777.015z"
          id="path3371"/>
    <path style="fill:#fff;fill-opacity:1"
          d="M26.455 40.841c-1.635-.45-2.722-1.375-3.458-2.944-.373-.796-.402-1.004-.394-2.827.007-1.733.058-2.122.43-3.255.511-1.557 1.83-4.145 3.025-5.937.965-1.446 2.556-3.049 3.926-3.955 2.278-1.507 4.875-1.969 6.476-1.152 1.377.703 2.105 1.737 2.105 2.992 0 .756-.26 1.749-.433 1.656-2.217-1.186-3.347-1.388-4.981-.891-1.826.554-3.293 1.883-5.17 4.682-.864 1.29-2.03 3.66-2.435 4.951-.444 1.414-.573 3.588-.258 4.34.325.777.857 1.092 1.686.998 2.5-.281 5.301-3.615 6.597-7.848.228-.747.233-.88.037-1.135-.482-.63-1.098-2.134-1.098-2.682 0-.812.332-1.36 1.156-1.905.853-.565 1.517-.606 2.338-.144 1.169.656 1.956 2.003 1.956 3.344v.806l1.343.486c.738.267 1.437.484 1.551.482.338-.007 8.547-13.664 10.255-17.06.33-.656.75-1.69.936-2.299.299-.986.325-1.306.237-2.944-.054-1.012-.038-1.93.036-2.042.228-.346 1.033.194 2.533 1.7 1.675 1.68 2.105 2.475 2.103 3.877l-.002.984-3.722 6.51c-4.427 7.744-7.05 12.451-8.766 15.734-1.356 2.593-1.326 2.472-1.163 4.702.031.431 0 .457-.6.5-.832.061-1.87-.466-3.028-1.54-1.593-1.474-1.99-2.94-1.219-4.5l.378-.763-.989-.481c-.771-.376-1.004-.436-1.06-.271-.284.819-2.413 3.624-3.81 5.018-1.734 1.731-3.012 2.538-4.52 2.853-.97.203-1.127.2-1.998-.04z"
          id="path3373"/>
    <path style="fill:#fff;fill-opacity:1"
          d="M35.725 71.105c-3.762-.616-6.99-2.41-8.59-4.775-1.263-1.868-1.91-4.401-1.59-6.23.945-5.416 4.999-10.004 11.993-13.577 4.07-2.079 8.456-3.163 15.409-3.808 2.466-.229 8.176-.433 9.619-.343l1.217.075.933-3.007c1.12-3.613 2.485-8.409 2.412-8.481-.028-.029-.284.237-.567.591-1.18 1.474-4.687 5.055-5.961 6.086-4.663 3.77-8.387 4.407-10.825 1.849-.818-.86-1.142-1.397-1.436-2.387-.314-1.06-.298-1.966.061-3.37.711-2.78 3-6.149 5.91-8.694 5.106-4.47 9.66-5.276 12.926-2.29.449.41.857.745.908.745.051 0 .093-.235.093-.521 0-.287.066-.562.147-.612.39-.241 2.124 1.166 2.87 2.329.705 1.097.742 1.61.189 2.6-.481.862-1.019 2.59-1.903 6.12-.607 2.426-2.06 8.911-2.06 9.195 0 .105.426.315.946.467 1.316.386 1.82.737 2.476 1.726.57.858 1.48 2.973 1.392 3.235-.026.077-.304-.035-.618-.249-.759-.515-2.317-1.093-3.865-1.432-1.169-.256-1.266-.258-1.35-.024-.43 1.193-1.664 3.889-2.784 6.085-3.094 6.066-5.886 9.763-9.852 13.05-3.608 2.99-6.133 4.3-10.34 5.363-1.877.475-5.731.616-7.76.284zm3.922-6.597c3.969-.397 7.682-1.812 10.65-4.056 2.303-1.74 5.499-5.399 8.034-9.194 1.326-1.986 3.396-5.535 3.396-5.823 0-.106-.23-.137-.643-.086-.354.044-1.495.12-2.536.17-4.515.213-9.234.75-11.381 1.293-3.02.764-6.778 2.283-9.152 3.7-3.14 1.874-5.742 4.454-6.743 6.69-.454 1.015-.441 2.67.032 3.906.47 1.23 1.865 2.644 2.971 3.01 1.508.5 3.109.617 5.372.39zm13.916-27.487c2.756-.819 6.872-4.15 9.983-8.082 1.467-1.855 1.962-2.815 1.964-3.812.002-.859-.36-1.21-1.534-1.492-2.215-.531-5.087.593-7.431 2.908-1.81 1.787-4.154 4.95-5.012 6.759-.418.883-.478 1.17-.478 2.272 0 1.073.043 1.292.293 1.476.387.283 1.2.272 2.215-.03z"
          id="path3375"/>
    <path style="fill:#fff;fill-opacity:1"
          d="M93.557 45.45c-1.63-.643-3.206-1.692-4.332-2.886-1.643-1.742-2.368-3.562-2.368-5.946 0-1.272-.004-1.286-.436-1.465-.427-.177-.468-.148-2.24 1.61-2.074 2.057-4.171 3.615-5.802 4.31-2.165.921-4.145.603-5.814-.935-1.053-.971-1.503-2.03-1.577-3.71-.144-3.3 1.652-7.13 4.945-10.545 4.047-4.198 8.468-5.527 12.198-3.666 1.631.814 2.509 2.058 2.629 3.726.082 1.15.22 1.332 1.214 1.616.358.102.685.273.726.38.041.107-.094.7-.301 1.316a19.704 19.704 0 0 0-1.04 6.345c-.013 4.344 1.27 6.622 4.147 7.359.77.197 1.076.206 1.851.055a15.186 15.186 0 0 1 1.204-.196c.434-.026 2.171-1.546 2.902-2.538.775-1.053 1.497-2.823 1.754-4.3.348-2-.053-4.794-.919-6.402l-.43-.8.328-.215c.6-.391 2.125-.714 3.735-.788 2.066-.096 2.595.075 3.362 1.088 1.141 1.508 1.541 3.743 1.124 6.282-.53 3.221-1.642 5.122-4.193 7.163-3.003 2.402-6.369 3.594-10.115 3.58-1.237-.004-1.62-.07-2.552-.437zM77.95 38.922c1.845-.621 3.732-2.11 5.813-4.586 1.356-1.613 4.304-5.9 4.304-6.259 0-.73-1.194-2.136-2.153-2.536-2.138-.892-5.45.98-8.545 4.833-2.612 3.25-3.909 6.492-3.169 7.922.138.266.265.485.284.486.019.001.306.1.64.22.852.308 1.752.282 2.826-.08z"
          id="path3377"/>
    <path style="fill:#fff;fill-opacity:1"
          d="M100.792 47.181c4.812-.583 7.883-1.57 9.107-2.924.889-.984.889-1.9-.002-3.249-.208-.313-.35-.593-.317-.621.234-.2 2.201-.73 2.988-.805l.96-.093-.102.894c-.056.491-.137 1.018-.18 1.171-.073.263-.095.261-.413-.038-.419-.393-.872-.403-1.212-.027-.25.277-.234.307.445.774.82.564 1.585 1.681 1.585 2.313 0 .618-.369 1.325-1.028 1.968l-.564.551-2.042.156c-1.123.086-4.018.149-6.433.14-4.334-.016-4.37-.019-2.793-.21z"
          id="path3379"/>
    <path style="fill:#fff;fill-opacity:1"
          d="M108.353 52.63v-3.557h5.147v.757h-4.238v2.27h3.633v.757h-3.634v3.331h-.908V52.63z" id="path3381"/>
    <path style="fill:#fff;fill-opacity:1"
          d="M103.66 53.009v-3.18h-1.286c-1.272 0-1.287-.004-1.287-.378v-.378h6.207v.378c0 .376-.01.379-1.363.379h-1.362v6.358h-.909v-3.18z"
          id="path3383"/>
    <path style="fill:#fff;fill-opacity:1"
          d="M96.317 56.312a4.414 4.414 0 0 1-1.098-.347c-.79-.398-1.34-1.038-1.633-1.899-.227-.667-.282-1.629-.135-2.335.236-1.13.91-2.018 1.879-2.479 1.427-.678 3.436-.415 4.432.58.327.327.531.72.64 1.232l.022.104h-.513c-.455 0-.515-.007-.534-.066a5.029 5.029 0 0 0-.15-.336c-.231-.485-.743-.87-1.361-1.023-.366-.091-1.194-.092-1.53 0-.737.197-1.26.623-1.592 1.293-.259.523-.315.804-.317 1.59-.002.797.04 1.009.309 1.57.14.295.224.411.46.646.32.317.532.45.942.588.485.164 1.301.182 1.78.04a2.031 2.031 0 0 0 1.268-1.047c.138-.283.253-.657.253-.822 0-.086.003-.086.516-.086h.516l-.025.215c-.037.31-.23.859-.41 1.166a3.268 3.268 0 0 1-.443.549c-.459.452-1.013.72-1.76.85-.36.063-1.135.071-1.516.017z"
          id="path3385"/></svg>
