<svg xmlns="http://www.w3.org/2000/svg" viewBox="0 0 1556.24 217.55"><g data-name="Слой 2"><path d="M0 53.08h22.75v111.38H0zm120.45 0H97.69v111.38h70.49v-21.64h-47.73V53.08zm137.95 0h-22.75v111.38h70.48v-21.64H258.4V53.08zM439 116c0 19.41-9.55 28.74-22.91 28.74s-22.92-9.34-22.92-28.74V53.08H370.1v64.18c0 31.34 19.73 49.11 46 49.11s46-17.77 46-49.11V53.08H439zm151.31-20.12-28.64-42.8h-26.1v111.38h22.76V84.59l30.86 46.94h2.07l31.03-46.94v79.87h22.75V53.08h-26.25l-28.48 42.8zm129.67-42.8h22.75v111.38h-22.75zm169.46 74.65-46.47-74.65h-26.09v111.38h22.75V89.83l46.31 74.63h26.25V53.08h-22.75v74.65zm129.33-74.65-41.69 111.38h24l9.55-26.25h45l9.39 26.25h24.19l-41.64-111.38zm-.32 63.49 14.64-40.42 14.64 40.42zm115.01-41.85h31.99v89.74h22.75V74.72h32.14V53.08h-86.88v21.64zm391.59 47.9c15.59-4 26.19-15.12 26.19-33.26 0-22.12-15.38-36.28-39.24-36.28h-47.89v111.38h22.75v-40.1h12.57l28.8 40.1h28zm-15.59-18.14h-22.59V74.72h22.59c11.78 0 19.37 5.73 19.37 15-.01 9.03-7.44 14.76-19.37 14.76zM1237.23 0h205.22v21.64h-205.22zm0 195.9h205.22v21.64h-205.22zm160.21-87.13a57.6 57.6 0 1 0-57.6 57.6 57.6 57.6 0 0 0 57.6-57.6zm-93.56 0a36 36 0 1 1 36 36 36 36 0 0 1-36.01-36z" style="fill:#4e8fcd" data-name="Слой 1"/></g></svg>