<svg version="1.1" id="Layer_1" xmlns="http://www.w3.org/2000/svg" x="0" y="0" viewBox="0 0 466 468" style="enable-background:new 0 0 466 468" xml:space="preserve"><style>.st0,.st11,.st8{fill-rule:evenodd;clip-rule:evenodd}.st8{fill:#784717}.st11{fill:#bcbec0}</style><path class="st0" d="m231.9 386.4 1.1-.5c12-6 22.6-16.4 32.2-25.6 2.4-2.3 3.5-4.3 5.6-7 40.7-50.1 59.5-110.4 66.6-174.1h.1l1.8-24.9.1-17.4c-38.9-3-73.7-42.7-100.9-44.3-2.2-.3-4.4-.4-6.6-.4-2.2 0-4.4.1-6.6.4-27.2 1.7-62.1 41.3-100.9 44.3l.1 17.4 1.8 24.9h.1c7.1 63.7 25.8 124 66.6 174.1 2.1 2.6 3.2 4.7 5.6 7 9.6 9.2 20.2 19.6 32.2 25.6l1.1.5z"/><path d="M231.9 373c.4.1.7.1 1 .1 11-5.5 20.6-15 29.4-23.4 2.2-2.1 3.2-4 5.1-6.4 37.2-45.7 54.3-100.8 60.7-158.9h.1l1.6-22.7.1-15.9c-35.5-2.8-67.3-38.9-92.1-40.5-2-.3-4-.4-6-.4s-4 .1-6 .4c-24.8 1.5-56.6 37.7-92.1 40.5l.1 15.9 1.6 22.7h.1c6.5 58.1 23.6 113.2 60.7 158.9 2 2.4 2.9 4.3 5.1 6.4 8.8 8.4 18.4 17.9 29.4 23.4.5 0 .8 0 1.2-.1z" style="fill-rule:evenodd;clip-rule:evenodd;fill:#6d6e71"/><path d="M138.9 151.1h2.6V162c0 .3-.2.5-.5.5h-1c-.3 0-.5-.2-.5-.5v-8l-1.4 2.7c-.1.2-.2.2-.4.2-.1 0-.3 0-.4-.1l-.6-.3c-.3-.2-.5-.3-.5-.5v-.2l2.7-4.7zm-1.5 27.3c0 2.7.8 4.1 2.4 4.1 1.6 0 2.4-1.4 2.4-4.1 0-2.7-.8-4.1-2.4-4.1-1.6.1-2.4 1.4-2.4 4.1zm-2.1 0c0-3.9 1.5-5.8 4.5-5.8s4.5 1.9 4.5 5.8-1.5 5.8-4.5 5.8-4.5-1.9-4.5-5.8zm3.6 16.3h2.6v10.9c0 .3-.2.5-.5.5h-1c-.3 0-.5-.2-.5-.5v-8l-1.4 2.7c-.1.1-.2.2-.3.2-.1-1-.3-2-.4-3l1.5-2.8zm3.1 29.5c.1-.6.2-1.3.2-2.1 0-2.1-.5-3.4-1.4-3.8-.1-.6-.2-1.3-.4-1.9 2.6.2 3.9 2.2 3.9 5.7 0 2.4-.6 4-1.7 5-.2-1-.4-2-.6-2.9zm17.6-85.6c-.7 1.3-2 2-3.7 2-.3 0-.5 0-.8-.1 1.5-.6 3-1.2 4.5-1.9zm-6.1 18c0 2.7.8 4.1 2.4 4.1 1.6 0 2.4-1.4 2.4-4.1 0-2.7-.8-4.1-2.4-4.1-1.6.1-2.4 1.4-2.4 4.1zm-2.1 0c0-3.9 1.5-5.8 4.5-5.8s4.5 1.9 4.5 5.8-1.5 5.8-4.5 5.8-4.5-1.9-4.5-5.8zm3.6 16.3h2.6v10.9c0 .3-.2.5-.5.5h-1c-.3 0-.5-.2-.5-.5v-8l-1.4 2.7c-.1.2-.2.2-.4.2-.1 0-.3 0-.4-.1l-.6-.3c-.3-.2-.5-.3-.5-.5v-.2l2.7-4.7zm-1.5 27.4c0 2.7.8 4.1 2.4 4.1 1.6 0 2.4-1.4 2.4-4.1 0-2.7-.8-4.1-2.4-4.1-1.6 0-2.4 1.4-2.4 4.1zm-2.1 0c0-3.9 1.5-5.8 4.5-5.8s4.5 1.9 4.5 5.8-1.5 5.8-4.5 5.8-4.5-2-4.5-5.8zm17.5-65.3c0 2.7.8 4.1 2.4 4.1 1.6 0 2.4-1.4 2.4-4.1 0-1.5-.3-2.6-.8-3.3.6-.3 1.2-.7 1.8-1 .7 1 1.1 2.4 1.1 4.3 0 3.9-1.5 5.8-4.5 5.8s-4.5-1.9-4.5-5.7c.7-.4 1.4-.7 2.1-1.1v1zm1.5 16.2h2.6v10.9c0 .3-.2.5-.5.5h-1c-.3 0-.5-.2-.5-.5v-8l-1.4 2.7c-.1.2-.2.2-.4.2-.1 0-.3 0-.4-.1l-.6-.3c-.3-.2-.5-.3-.5-.5v-.2l2.7-4.7zm-1.5 27.4c0 2.7.8 4.1 2.4 4.1 1.6 0 2.4-1.4 2.4-4.1 0-2.7-.8-4.1-2.4-4.1-1.6.1-2.4 1.4-2.4 4.1zm-2.1 0c0-3.9 1.5-5.8 4.5-5.8s4.5 1.9 4.5 5.8-1.5 5.8-4.5 5.8-4.5-1.9-4.5-5.8zm2.1 21.9c0 2.7.8 4.1 2.4 4.1 1.6 0 2.4-1.4 2.4-4.1 0-2.7-.8-4.1-2.4-4.1-1.6 0-2.4 1.4-2.4 4.1zm-2.1 0c0-3.9 1.5-5.8 4.5-5.8s4.5 1.9 4.5 5.8-1.5 5.8-4.5 5.8c-3-.1-4.5-2-4.5-5.8zm2.1 21.8c0 2.7.8 4.1 2.4 4.1 1.6 0 2.4-1.4 2.4-4.1 0-2.7-.8-4.1-2.4-4.1-1.6 0-2.4 1.4-2.4 4.1zm-2.1 0c0-3.9 1.5-5.8 4.5-5.8s4.5 1.9 4.5 5.8-1.5 5.8-4.5 5.8-4.5-2-4.5-5.8zm3.6 16.3h2.6v10.9c0 .3-.2.5-.5.5h-1c-.3 0-.5-.2-.5-.5v-8l-1.4 2.7c-.1.2-.2.2-.4.2-.1 0-.3 0-.4-.1l-.6-.3c-.3-.2-.5-.3-.5-.5v-.2l2.7-4.7zm-1.5 27.4c0 2.7.8 4.1 2.4 4.1 1.6 0 2.4-1.4 2.4-4.1 0-2.7-.8-4.1-2.4-4.1-1.6 0-2.4 1.4-2.4 4.1zm-2.1 0c0-3.9 1.5-5.8 4.5-5.8s4.5 1.9 4.5 5.8-1.5 5.8-4.5 5.8c-3-.1-4.5-2-4.5-5.8zm18-137.8h2.6v10.9c0 .3-.2.5-.5.5h-1c-.3 0-.5-.2-.5-.5v-8l-1.4 2.7c-.1.2-.2.2-.4.2-.1 0-.3 0-.4-.1l-.6-.3c-.3-.2-.5-.3-.5-.5v-.2l2.7-4.7zm-1.5 27.4c0 2.7.8 4.1 2.4 4.1 1.6 0 2.4-1.4 2.4-4.1 0-2.7-.8-4.1-2.4-4.1-1.6.1-2.4 1.4-2.4 4.1zm-2.1 0c0-3.9 1.5-5.8 4.5-5.8s4.5 1.9 4.5 5.8-1.5 5.8-4.5 5.8-4.5-1.9-4.5-5.8zm2.1 21.9c0 2.7.8 4.1 2.4 4.1 1.6 0 2.4-1.4 2.4-4.1 0-2.7-.8-4.1-2.4-4.1-1.6 0-2.4 1.4-2.4 4.1zm-2.1 0c0-3.9 1.5-5.8 4.5-5.8s4.5 1.9 4.5 5.8-1.5 5.8-4.5 5.8c-3-.1-4.5-2-4.5-5.8zm2.1 21.8c0 2.7.8 4.1 2.4 4.1 1.6 0 2.4-1.4 2.4-4.1 0-2.7-.8-4.1-2.4-4.1-1.6 0-2.4 1.4-2.4 4.1zm-2.1 0c0-3.9 1.5-5.8 4.5-5.8s4.5 1.9 4.5 5.8-1.5 5.8-4.5 5.8-4.5-2-4.5-5.8zm3.6 16.3h2.6v10.9c0 .3-.2.5-.5.5h-1c-.3 0-.5-.2-.5-.5v-8l-1.4 2.7c-.1.2-.2.2-.4.2-.1 0-.3 0-.4-.1l-.6-.3c-.3-.2-.5-.3-.5-.5v-.2l2.7-4.7zm-1.5 27.4c0 2.7.8 4.1 2.4 4.1 1.6 0 2.4-1.4 2.4-4.1 0-2.7-.8-4.1-2.4-4.1-1.6 0-2.4 1.4-2.4 4.1zm-2.1-.1c0-3.9 1.5-5.8 4.5-5.8s4.5 1.9 4.5 5.8-1.5 5.8-4.5 5.8-4.5-1.9-4.5-5.8zm22.3-129.6v4c0 .3-.2.5-.5.5h-1c-.3 0-.5-.2-.5-.5v-2.8c.6-.4 1.3-.8 2-1.2zm-4.2 20.5c0 2.7.8 4.1 2.4 4.1 1.6 0 2.4-1.4 2.4-4.1 0-2.7-.8-4.1-2.4-4.1-1.5.1-2.4 1.4-2.4 4.1zm-2 0c0-3.9 1.5-5.8 4.5-5.8s4.5 1.9 4.5 5.8-1.5 5.8-4.5 5.8-4.5-1.9-4.5-5.8zm17.5-21.7c0 2.7.8 4.1 2.4 4.1 1.6 0 2.4-1.4 2.4-4.1 0-2.7-.8-4.1-2.4-4.1-1.6.1-2.4 1.4-2.4 4.1zm-2.1 0c0-1.5.2-2.7.7-3.6 1.9-.8 3.7-1.4 5.5-1.9 1.9.6 2.8 2.5 2.8 5.5 0 3.9-1.5 5.8-4.5 5.8s-4.5-1.9-4.5-5.8zm2.1 21.9c0 2.7.8 4.1 2.4 4.1 1.6 0 2.4-1.4 2.4-4.1 0-2.7-.8-4.1-2.4-4.1-1.6 0-2.4 1.4-2.4 4.1zm-2.1 0c0-3.9 1.5-5.8 4.5-5.8s4.5 1.9 4.5 5.8-1.5 5.8-4.5 5.8-4.5-2-4.5-5.8zm2.1 21.8c0 2.7.8 4.1 2.4 4.1 1.6 0 2.4-1.4 2.4-4.1 0-2.7-.8-4.1-2.4-4.1-1.6.1-2.4 1.4-2.4 4.1zm-2.1 0c0-3.9 1.5-5.8 4.5-5.8s4.5 1.9 4.5 5.8-1.5 5.8-4.5 5.8-4.5-1.9-4.5-5.8zm3.6 16.3h2.6V183c0 .3-.2.5-.5.5h-1c-.3 0-.5-.2-.5-.5v-8l-1.4 2.7c-.1.2-.2.2-.4.2-.1 0-.3 0-.4-.1l-.6-.3c-.3-.2-.5-.3-.5-.5v-.2l2.7-4.7zm-1.5 27.4c0 2.7.8 4.1 2.4 4.1 1.6 0 2.4-1.4 2.4-4.1 0-2.7-.8-4.1-2.4-4.1-1.6 0-2.4 1.4-2.4 4.1zm-2.1 0c0-3.9 1.5-5.8 4.5-5.8s4.5 1.9 4.5 5.8-1.5 5.8-4.5 5.8-4.5-2-4.5-5.8zm16.9-87c0 2.7.8 4.1 2.4 4.1 1.6 0 2.4-1.4 2.4-4.1 0-2.7-.8-4.1-2.4-4.1-1.6 0-2.4 1.4-2.4 4.1zm-2.1 0c0-3.9 1.5-5.8 4.5-5.8s4.5 1.9 4.5 5.8-1.5 5.8-4.5 5.8-4.5-2-4.5-5.8zm3.6 16.3h2.6v10.9c0 .3-.2.5-.5.5h-1c-.3 0-.5-.2-.5-.5v-8l-1.4 2.7c-.1.2-.2.2-.4.2-.1 0-.3 0-.4-.1l-.6-.3c-.3-.2-.5-.3-.5-.5v-.2l2.7-4.7zm-1.5 27.3c0 2.7.8 4.1 2.4 4.1 1.6 0 2.4-1.4 2.4-4.1 0-2.7-.8-4.1-2.4-4.1-1.6.1-2.4 1.4-2.4 4.1zm-2.1 0c0-3.9 1.5-5.8 4.5-5.8s4.5 1.9 4.5 5.8-1.5 5.8-4.5 5.8-4.5-1.9-4.5-5.8zm3.6 16.3h2.6v10.9c0 .3-.2.5-.5.5h-1c-.3 0-.5-.2-.5-.5v-8l-1.4 2.7c-.1.2-.2.2-.4.2-.1 0-.3 0-.4-.1l-.6-.3c-.3-.2-.5-.3-.5-.5v-.2l2.7-4.7zm-1.5 27.4c0 2.7.8 4.1 2.4 4.1 1.6 0 2.4-1.4 2.4-4.1 0-2.7-.8-4.1-2.4-4.1-1.6.1-2.4 1.4-2.4 4.1zm-2.1 0c0-3.9 1.5-5.8 4.5-5.8s4.5 1.9 4.5 5.8-1.5 5.8-4.5 5.8-4.5-1.9-4.5-5.8zm2.1 21.8c0 2.7.8 4.1 2.4 4.1 1.6 0 2.4-1.4 2.4-4.1 0-2.7-.8-4.1-2.4-4.1-1.6.1-2.4 1.4-2.4 4.1zm-2.1 0c0-3.9 1.5-5.8 4.5-5.8s4.5 1.9 4.5 5.8-1.5 5.8-4.5 5.8-4.5-1.9-4.5-5.8zm2.1 21.9c0 2.7.8 4.1 2.4 4.1 1.6 0 2.4-1.4 2.4-4.1 0-2.7-.8-4.1-2.4-4.1-1.6 0-2.4 1.4-2.4 4.1zm-2.1 0c0-3.9 1.5-5.8 4.5-5.8s4.5 1.9 4.5 5.8-1.5 5.8-4.5 5.8-4.5-2-4.5-5.8zm3.6 16.3h2.6v10.9c0 .3-.2.5-.5.5h-1c-.3 0-.5-.2-.5-.5v-8l-1.4 2.7c-.1.2-.2.2-.4.2-.1 0-.3 0-.4-.1l-.6-.3c-.3-.2-.5-.3-.5-.5v-.2l2.7-4.7zm-1.5 27.3c0 2.7.8 4.1 2.4 4.1 1.6 0 2.4-1.4 2.4-4.1 0-2.7-.8-4.1-2.4-4.1-1.6.1-2.4 1.4-2.4 4.1zm-2.1 0c0-3.9 1.5-5.8 4.5-5.8s4.5 1.9 4.5 5.8-1.5 5.8-4.5 5.8-4.5-1.9-4.5-5.8zm18.2-174.6c0 2.7.8 4.1 2.4 4.1 1.6 0 2.4-1.4 2.4-4.1 0-2.7-.8-4.1-2.4-4.1-1.6 0-2.4 1.4-2.4 4.1zm-2.1 0c0-3 .9-4.8 2.7-5.5 1.9.6 3.8 1.3 5.8 2.2.3.9.5 1.9.5 3.3 0 3.9-1.5 5.8-4.5 5.8s-4.5-2-4.5-5.8zm2.1 21.8c0 2.7.8 4.1 2.4 4.1 1.6 0 2.4-1.4 2.4-4.1 0-2.7-.8-4.1-2.4-4.1-1.6.1-2.4 1.4-2.4 4.1zm-2.1 0c0-3.9 1.5-5.8 4.5-5.8s4.5 1.9 4.5 5.8-1.5 5.8-4.5 5.8-4.5-1.9-4.5-5.8zm3.6 16.3h2.6v10.9c0 .3-.2.5-.5.5h-1c-.3 0-.5-.2-.5-.5v-8l-1.4 2.7c-.1.2-.2.2-.4.2-.1 0-.3 0-.4-.1l-.6-.3c-.3-.2-.5-.3-.5-.5v-.2l2.7-4.7zm-1.5 27.4c0 2.7.8 4.1 2.4 4.1 1.6 0 2.4-1.4 2.4-4.1 0-2.7-.8-4.1-2.4-4.1-1.6 0-2.4 1.4-2.4 4.1zm-2.1 0c0-3.9 1.5-5.8 4.5-5.8s4.5 1.9 4.5 5.8-1.5 5.8-4.5 5.8-4.5-2-4.5-5.8zm17.6-64.3c.2 2 1 3 2.4 3 .7 0 1.2-.2 1.6-.7.6.3 1.2.7 1.8 1-.7.9-1.9 1.4-3.3 1.4-3 0-4.5-1.9-4.5-5.8.6.4 1.3.8 2 1.1zm1.5 15.2h2.6v10.9c0 .3-.2.5-.5.5h-1c-.3 0-.5-.2-.5-.5v-8l-1.4 2.7c-.1.2-.2.2-.4.2-.1 0-.3 0-.4-.1l-.6-.3c-.3-.2-.5-.3-.5-.5v-.2l2.7-4.7zm-1.6 27.4c0 2.7.8 4.1 2.4 4.1 1.6 0 2.4-1.4 2.4-4.1 0-2.7-.8-4.1-2.4-4.1-1.6.1-2.4 1.4-2.4 4.1zm-2 0c0-3.9 1.5-5.8 4.5-5.8s4.5 1.9 4.5 5.8-1.5 5.8-4.5 5.8-4.5-1.9-4.5-5.8zm2 21.9c0 2.7.8 4.1 2.4 4.1 1.6 0 2.4-1.4 2.4-4.1 0-2.7-.8-4.1-2.4-4.1-1.6 0-2.4 1.4-2.4 4.1zm-2-.1c0-3.9 1.5-5.8 4.5-5.8s4.5 1.9 4.5 5.8-1.5 5.8-4.5 5.8-4.5-1.9-4.5-5.8zm2 21.9c0 2.7.8 4.1 2.4 4.1 1.6 0 2.4-1.4 2.4-4.1 0-2.7-.8-4.1-2.4-4.1-1.6 0-2.4 1.4-2.4 4.1zm-2 0c0-3.9 1.5-5.8 4.5-5.8s4.5 1.9 4.5 5.8-1.5 5.8-4.5 5.8-4.5-2-4.5-5.8zm3.6 16.3h2.6v10.9c0 .3-.2.5-.5.5h-1c-.3 0-.5-.2-.5-.5v-8l-1.4 2.7c-.1.2-.2.2-.4.2-.1 0-.3 0-.4-.1l-.6-.3c-.3-.2-.5-.3-.5-.5v-.2l2.7-4.7zm-1.6 27.4c0 2.7.8 4.1 2.4 4.1 1.6 0 2.4-1.4 2.4-4.1 0-2.7-.8-4.1-2.4-4.1-1.6 0-2.4 1.4-2.4 4.1zm-2-.1c0-3.9 1.5-5.8 4.5-5.8s4.5 1.9 4.5 5.8-1.5 5.8-4.5 5.8-4.5-1.9-4.5-5.8zm17.1-114.1h2.6v10.9c0 .3-.2.5-.5.5h-1c-.3 0-.5-.2-.5-.5v-8l-1.4 2.7c-.1.2-.2.2-.4.2-.1 0-.3 0-.4-.1l-.6-.2c-.3-.2-.5-.3-.5-.5v-.2l2.7-4.8zm-1.6 27.4c0 2.7.8 4.1 2.4 4.1 1.6 0 2.4-1.4 2.4-4.1 0-2.7-.8-4.1-2.4-4.1-1.6.1-2.4 1.4-2.4 4.1zm-2 0c0-3.9 1.5-5.8 4.5-5.8s4.5 1.9 4.5 5.8-1.5 5.8-4.5 5.8-4.5-1.9-4.5-5.8zm2 21.8c0 2.7.8 4.1 2.4 4.1 1.6 0 2.4-1.4 2.4-4.1 0-2.7-.8-4.1-2.4-4.1-1.6.1-2.4 1.4-2.4 4.1zm-2 0c0-3.9 1.5-5.8 4.5-5.8s4.5 1.9 4.5 5.8-1.5 5.8-4.5 5.8-4.5-1.9-4.5-5.8zm2 21.9c0 2.7.8 4.1 2.4 4.1 1.6 0 2.4-1.4 2.4-4.1 0-2.7-.8-4.1-2.4-4.1-1.6 0-2.4 1.4-2.4 4.1zm-2 0c0-3.9 1.5-5.8 4.5-5.8s4.5 1.9 4.5 5.8-1.5 5.8-4.5 5.8-4.5-2-4.5-5.8zm3.6 16.3h2.6v10.9c0 .3-.2.5-.5.5h-1c-.3 0-.5-.2-.5-.5v-8l-1.4 2.7c-.1.2-.2.2-.4.2-.1 0-.3 0-.4-.1l-.6-.3c-.3-.2-.5-.3-.5-.5v-.2l2.7-4.7zm-1.6 27.3c0 2.7.8 4.1 2.4 4.1 1.6 0 2.4-1.4 2.4-4.1 0-2.7-.8-4.1-2.4-4.1-1.6.1-2.4 1.4-2.4 4.1zm-2 0c0-3.9 1.5-5.8 4.5-5.8s4.5 1.9 4.5 5.8-1.5 5.8-4.5 5.8-4.5-1.9-4.5-5.8zm18.1-109.1c0 2.7.8 4.1 2.4 4.1 1.6 0 2.4-1.4 2.4-4.1v-.9c.7.4 1.4.8 2.2 1.1-.1 3.7-1.6 5.5-4.5 5.5-3 0-4.5-1.9-4.5-5.8 0-1.8.3-3.2 1-4.1.6.3 1.2.7 1.7 1-.5.7-.7 1.8-.7 3.2zm19.1 5.8c-.4.1-.8.1-1.2.1-1.9 0-3.2-.7-3.9-2.2 1.7.8 3.4 1.5 5.1 2.1zm-3.6 16.2c0 2.7.8 4.1 2.4 4.1 1.6 0 2.4-1.4 2.4-4.1 0-2.7-.8-4.1-2.4-4.1-1.6 0-2.4 1.4-2.4 4.1zm-2.1 0c0-3.9 1.5-5.8 4.5-5.8s4.5 1.9 4.5 5.8-1.5 5.8-4.5 5.8-4.5-2-4.5-5.8zm3.6 16.3h2.6v10.9c0 .3-.2.5-.5.5h-1c-.3 0-.5-.2-.5-.5v-8l-1.4 2.7c-.1.2-.2.2-.4.2-.1 0-.3 0-.4-.1l-.6-.3c-.3-.2-.5-.3-.5-.5v-.2l2.7-4.7zm-1.5 27.4c0 2.7.8 4.1 2.4 4.1 1.6 0 2.4-1.4 2.4-4.1 0-2.7-.8-4.1-2.4-4.1-1.6 0-2.4 1.4-2.4 4.1zm-2.1 0c0-3.9 1.5-5.8 4.5-5.8s4.5 1.9 4.5 5.8-1.5 5.8-4.5 5.8c-3-.1-4.5-2-4.5-5.8zm16.9-43.9c0 2.7.8 4.1 2.4 4.1 1.6 0 2.4-1.4 2.4-4.1 0-2.7-.8-4.1-2.4-4.1-1.6.1-2.4 1.4-2.4 4.1zm-2.1 0c0-3.9 1.5-5.8 4.5-5.8s4.5 1.9 4.5 5.8-1.5 5.8-4.5 5.8-4.5-1.9-4.5-5.8zm2.1 21.8c0 2.7.8 4.1 2.4 4.1 1.6 0 2.4-1.4 2.4-4.1 0-2.7-.8-4.1-2.4-4.1-1.6.1-2.4 1.4-2.4 4.1zm-2.1 0c0-3.9 1.5-5.8 4.5-5.8s4.5 1.9 4.5 5.8-1.5 5.8-4.5 5.8-4.5-1.9-4.5-5.8zm2.1 21.9c0 2.7.8 4.1 2.4 4.1 1.6 0 2.4-1.4 2.4-4.1 0-2.7-.8-4.1-2.4-4.1-1.6 0-2.4 1.4-2.4 4.1zm-2.1 0c0-3.9 1.5-5.8 4.5-5.8 1.5 0 2.6.5 3.3 1.4-.5 3.3-.9 6.6-1.5 9.8-.5.2-1.2.3-1.9.3-2.9.1-4.4-1.9-4.4-5.7zm3.6 16.3h.9c-.2 1.2-.5 2.4-.7 3.7l-1 1.9c-.1.2-.2.2-.4.2-.1 0-.3 0-.4-.1l-.6-.3c-.3-.2-.5-.3-.5-.5v-.2l2.7-4.7z" style="fill:#414042;fill-rule:evenodd;clip-rule:evenodd"/><path d="M156.6 274.6c10.9 26.2 24.6 49.7 40 69.5 9.6 12.3 21.4 22.8 35 29.7 35-16.9 57.8-56 76.2-99.8l-156.5-14.4 5.3 15z" style="fill-rule:evenodd;clip-rule:evenodd;fill:#211f1f"/><path d="M308 180.9c3.2 7.9 15.8 24 12.6 34.9l-4.7 1.3c-.2.1-.5.1-.8.2-.2 0-.6.1-.7.2-.2 0-.5.1-.7.2 2.1 28.4-2.7 44.8-17.5 64.7-3.9 5.3-4 2.4-8 4.5-.2.1-.4.3-.6.4-2.4 1.6-10.4 16.8-39 30.7-2.9 1.4-10.1 5.4-15.3 6.1-5.1-.6-12.4-4.7-15.3-6.1-28.5-13.9-36.6-29.1-39-30.7-.2-.1-.4-.3-.6-.4-4-2.1-4.1.8-8-4.5-14.8-19.9-19.6-36.3-17.5-64.7-.2-.1-.5-.1-.7-.2-.2 0-.5-.1-.7-.2-.2 0-.5-.1-.8-.2l-4.7-1.3c-3.2-11 9.4-27.1 12.6-34.9-2-2.2-9.3-12.5-6.9-17.6 2.3-4.8 1.5 2.1 4.1-8.5 1.9-8.1 6.1-8.3 7.8-11.5 2.7-5.2-1.3-5.7 12.6-4.5 5 .5 6.5.7 10.6 2.4 6.7 2.9 14.3-2.5 20.2-2 9.8.8 2.5-.6 8.9-1.7 8.5-1.4 9.6 7.7 17.4 6.1 7.8 1.6 8.9-7.5 17.4-6.1 6.4 1.1-.9 2.5 8.9 1.7 5.9-.5 13.5 4.9 20.2 2 4.1-1.8 5.6-2 10.6-2.4 13.9-1.3 9.9-.8 12.6 4.5 1.7 3.2 5.9 3.4 7.8 11.5 2.5 10.6 1.8 3.6 4.1 8.5 2.3 5-4.9 15.4-6.9 17.6zm-74.7 148.8c3.7-.8 14.4-5.6 16.6-6.6 8.4-4.1 15-8 22.2-13.5 9-6.9 17.8-17.4 19.6-18.1 6.7-2.8 6.1-1.9 12.7-11.4 12-17.3 17.9-34.3 17.9-58 16.6-3.9-4.6-35-8.6-41.1 3.3-2.4 6.8-10.3 6.8-16.4 0-4.1-1.5-4.2-3-6.7-4-6.5 1.9-3-8.8-16.3-3.9-4.9-3.5-11.9-24.9-6.9-18.9 4.4-11 .1-21.3-.1-14.6-.3-.4-1.9-14.5-1.9-4.3 0-12.2 5.8-12.6 5.8-.7 0-1.4-.1-2.1-.1-.7.1-1.4.1-2.1.1-.3 0-8.2-5.8-12.6-5.8-14.1 0 .1 1.6-14.5 1.9-10.4.2-2.4 4.4-21.3.1-21.4-4.9-20.9 2.1-24.9 6.9-10.8 13.3-4.8 9.8-8.8 16.3-1.5 2.4-3 2.6-3 6.7 0 6.2 3.4 14 6.8 16.4-4.1 6.1-25.2 37.2-8.6 41.1 0 23.7 5.9 40.6 17.9 58 6.6 9.5 6 8.7 12.7 11.4 1.8.7 10.6 11.2 19.6 18.1 7.2 5.5 13.9 9.4 22.2 13.5 2.2 1 12.9 5.8 16.6 6.6z" style="fill-rule:evenodd;clip-rule:evenodd;fill:#161414"/><path d="M247.1 148.4c5.1-1.7 8.5-4.8 15-4.2l-2.5 4.3 11.5-3c.2.6.1.7.1.9v4c9-1.2 14.6-10.9 20-4.7.1.1.3.4.4.6 1.8-2.5 1.1-2.2 4.7-3.4l2 4.2c.5.5 1.1.8 1.8 1.2 7.7 4.6 7.6 9.4 5.9 20.4l4.5-2.5c-1.1 6.6-4.9 10.6-9.1 14.2 4.8 9.4 12.6 17.5 15 31.7-3.1-3.2-5.6-7.1-9.9-9.5 2.9 22.2 6 41.5-5.3 63.8-3.1 6.1-7.1 10.1-9.4 14.7-2.6-1.8-1.6-1.4-2.9-4.8-8.6 12.3-10.5 16.9-23.4 26-7.6 5.4-21.3 14.2-32.2 17.2-10.9-2.9-24.6-11.8-32.2-17.2-12.8-9.1-14.7-13.6-23.4-26-1.3 3.4-.3 3-2.9 4.8-2.3-4.5-6.4-8.6-9.4-14.7-11.3-22.3-8.2-41.6-5.3-63.8-4.2 2.5-6.7 6.3-9.9 9.5 2.4-14.3 10.2-22.4 15-31.7-4.2-3.6-8-7.6-9.1-14.2l4.5 2.5c-1.7-11-1.8-15.9 5.9-20.4.6-.4 1.2-.6 1.8-1.2l2-4.2c3.6 1.2 2.9.9 4.7 3.4.1-.2.3-.5.4-.6 5.4-6.2 11 3.6 20 4.7v-4c0-.2-.1-.4.1-.9l11.5 3-2.5-4.3c6.4-.6 9.9 2.5 15 4.2-.6-2.5-1.9-4.2-2.8-6.2 5.4 1 7.1 3.7 10.5 6.1 1.6 1.1 3.6 1 6.1.5 2.4.5 4.5.6 6.1-.5 3.5-2.3 5.2-5.1 10.5-6.1-.9 2-2.2 3.7-2.8 6.2zm-13.8 175.5c5.1-.6 12.4-4.7 15.3-6.1 28.5-13.9 36.6-29.1 39-30.7.2-.1.4-.3.6-.4 4-2.1 4.1.8 8-4.5 14.8-19.9 19.6-36.3 17.5-64.7.2-.1.5-.1.7-.2.2 0 .5-.1.7-.2.2 0 .5-.1.8-.2l4.7-1.3c3.2-11-9.4-27.1-12.6-34.9 2-2.2 9.3-12.5 6.9-17.6-2.3-4.8-1.5 2.1-4.1-8.5-1.9-8.1-6.1-8.3-7.8-11.5-2.7-5.2 1.3-5.7-12.6-4.5-5 .5-6.5.7-10.6 2.4-6.7 2.9-14.3-2.5-20.2-2-9.8.8-2.5-.6-8.9-1.7-8.5-1.4-9.6 7.7-17.4 6.1-7.8 1.6-8.9-7.5-17.4-6.1-6.4 1.1.9 2.5-8.9 1.7-5.9-.5-13.5 4.9-20.2 2-4.1-1.8-5.6-2-10.6-2.4-13.9-1.3-9.9-.8-12.6 4.5-1.7 3.2-5.9 3.4-7.8 11.5-2.6 10.6-1.8 3.6-4.1 8.5-2.4 5.1 4.9 15.4 6.9 17.6-3.2 7.9-15.8 24-12.6 34.9l4.7 1.3c.2.1.5.1.8.2.2 0 .6.1.7.2.2 0 .5.1.7.2-2 28.4 2.7 44.8 17.5 64.7 3.9 5.3 4 2.4 8 4.5.2.1.4.3.6.4 2.4 1.6 10.4 16.8 39 30.7 2.9 1.5 10.2 5.5 15.3 6.1z" style="fill-rule:evenodd;clip-rule:evenodd;fill:#58595b"/><linearGradient id="SVGID_1_" gradientUnits="userSpaceOnUse" x1="233.321" y1="294.135" x2="233.321" y2="152.186"><stop offset="0" style="stop-color:#a87149"/><stop offset=".271" style="stop-color:#a06a41"/><stop offset=".685" style="stop-color:#8c582c"/><stop offset="1" style="stop-color:#784717"/></linearGradient><path d="M233.3 197c.9-2.7 1.4-5.5 1.5-7.9 2.2 4.4 2.5 7 3 12.6 1.5-2.7 3.4-4.7 6.5-6.8l-.6 7.7c10.8-3 8.1-12.4 25.5-7.1l-7.1 4.4c4.4 3.2 10.5 2.6 16.2 1.9-2.8 12-12 11.5-15.7 14.6l11.9 3.9c-7.3 7.4-9.3 3.9-13.2 7.4 8.1 6.2 7.3 22.4 7 33.3 18.2-18.7 15.2-39.6 15.7-56.7 7.2 15.6 4.6 34.8-1.1 50.3-2.6 7-6.7 14.8-10.3 20.7-2.2 3.7-3.9 6.3-6.1 9.4-2.4 3.4-4.4 5.8-6.4 9.4 6.4-3.3 18.4-19.9 23.2-27.4 1.5-2.4 2.1-3.3 3.1-5.7.2-.5 1.1-2.6 1.1-2.7l1.9-2.9 3.5 5c5.5-14.4 9.3-30.5 8.2-47.6-.9-14.3-5.3-30.9-19.7-35.5 3.1-1.9 7.3-1.3 11.5-.6-1.4-3.5-7.7-8.7-11.4-11.1-6.2-3.8-11.2-4.1-18.9-5.4l6.7-2.3c-1.4-9.5-67.5-5.5-72.2 0l6.7 2.3c-7.7 1.2-12.7 1.5-18.9 5.4-3.8 2.3-10 7.5-11.4 11.1 4.1-.7 8.4-1.3 11.5.6-14.4 4.6-18.8 21.2-19.7 35.5-1.1 17.1 2.8 33.2 8.2 47.6l3.5-5 1.9 2.9c0 .1.9 2.2 1.1 2.7 1 2.3 1.5 3.3 3.1 5.7 4.8 7.5 16.9 24.1 23.2 27.4-2-3.6-4-6-6.4-9.4-2.2-3.1-3.9-5.7-6.1-9.4-3.5-5.9-7.7-13.6-10.3-20.7-5.7-15.5-8.3-34.8-1.1-50.3.5 17.1-2.5 38 15.7 56.7-.3-10.9-1.1-27.1 7-33.3-3.9-3.5-5.9-.1-13.2-7.4l11.9-3.9c-3.7-3.1-12.9-2.7-15.7-14.6 5.7.7 11.8 1.3 16.2-1.9l-7.1-4.4c17.4-5.4 14.8 4.1 25.5 7.1l-.6-7.7c3 2.1 5 4.1 6.5 6.8.5-5.6.8-8.2 3-12.6.4 2.4.8 5.2 1.7 7.9z" style="fill-rule:evenodd;clip-rule:evenodd;fill:url(#SVGID_1_)"/><path d="M243.2 243.7c2.3 2.4 1.1 5.5-1.1 5.6-2.8-3.6-6.9 1-1 2.9 2 0 3.6-.7 4.2-1.7 4.9-8.1-3.7-12.4-12-12-9.5.5-16 3.3-12 11.9.3.7 2 1.9 4.2 1.8 6-1.9 1.9-6.5-1-2.9-2.1 0-3.3-3.1-1.1-5.6 4-4.4 15.8-4.4 19.8 0z" style="fill-rule:evenodd;clip-rule:evenodd;fill:#808285"/><path class="st8" d="M274.5 155.5c10.6 3.2 7.9 3.2 14.7 7.9-.4-1.9-.4-2.3-1.3-4.1-1.4-2.8-1.4-1.6-2.2-4.5 4.2-4.4 5.6-4.1 12.3-3.2l-12.9-2.9c-1.7.1-4.4 2.5-5.2 3.2-3.1 2.6-1.3 1.4-5.4 3.6z"/><path d="M221.8 274c.5 7.3 4.1 12.7 11.5 12.9 7.4-.2 11-5.6 11.5-12.9-4.4 2.4-7.9 3.4-11.5 3.5-3.5-.1-7.1-1.1-11.5-3.5zm21.4-30.3c2.3 2.4 1.1 5.5-1.1 5.6-2.8-3.6-6.9 1-1 2.9 2 0 3.6-.7 4.2-1.7 4.9-8.1-3.7-12.4-12-12-9.5.5-16 3.3-12 11.9.3.7 2 1.9 4.2 1.8 6-1.9 1.9-6.5-1-2.9-2.1 0-3.3-3.1-1.1-5.6 4-4.4 15.8-4.4 19.8 0zm-9.9 75.4c-10.9-2.9-24.6-11.8-32.2-17.2-12.8-9.1-14.7-13.6-23.4-26-1.3 3.4-.3 3-2.9 4.8-2.3-4.5-6.4-8.6-9.4-14.7-11.3-22.3-8.2-41.6-5.3-63.8-4.2 2.5-6.7 6.3-9.9 9.5 2.4-14.3 10.2-22.4 15-31.7-4.2-3.6-8-7.6-9.1-14.2l4.5 2.5c-1.7-11-1.8-15.9 5.9-20.4.6-.4 1.2-.6 1.8-1.2l2-4.2c3.6 1.2 2.9.9 4.7 3.4.1-.2.3-.5.4-.6 5.4-6.2 11 3.6 20 4.7v-4c0-.2-.1-.4.1-.9l11.5 3-2.5-4.3c6.4-.6 9.9 2.5 15 4.2-.6-2.5-1.9-4.2-2.8-6.2 5.4 1 7.1 3.7 10.5 6 1.6 1.1 3.6 1 6.1.5 2.4.5 4.5.6 6.1-.5 3.5-2.3 5.2-5.1 10.5-6-1 2-2.2 3.8-2.8 6.2 5.1-1.7 8.5-4.8 15-4.2l-2.5 4.3 11.5-3c.2.6.1.7.1.9v4c9-1.2 14.6-10.9 20-4.7.1.1.3.4.4.6 1.8-2.5 1.1-2.2 4.7-3.4l2 4.2c.5.5 1.1.8 1.8 1.2 7.7 4.6 7.6 9.4 5.9 20.4l4.5-2.5c-1.1 6.6-4.9 10.6-9.1 14.2 4.8 9.4 12.6 17.5 15 31.7-3.1-3.2-5.6-7.1-9.9-9.5 2.9 22.2 6 41.5-5.3 63.8-3.1 6.1-7.1 10.1-9.4 14.7-2.6-1.8-1.6-1.4-2.9-4.8-8.6 12.3-10.5 16.9-23.4 26-7.6 5.5-21.2 14.3-32.2 17.2zm-12.1-138.7c-2.8-29.4 42-27.9 48.2-22.4l-6.7 2.3c7.7 1.2 12.7 1.5 18.9 5.4 3.8 2.3 10 7.5 11.4 11.1-4.1-.7-8.4-1.3-11.5.6 14.4 4.6 18.8 21.2 19.7 35.5 1.1 17.1-2.8 33.2-8.2 47.6l-3.5-5-1.9 2.9c0 .1-.9 2.2-1.1 2.7-1 2.3-1.5 3.3-3.1 5.7-4.8 7.5-16.9 24.1-23.2 27.4 2-3.6 4-6 6.4-9.4 2.2-3.1 3.9-5.7 6.1-9.4 3.5-5.9 7.7-13.6 10.3-20.7 5.7-15.5 8.3-34.8 1.1-50.3-.5 17.1 2.5 38-15.7 56.7.3-10.9 1.1-27.1-7-33.3 3.9-3.5 5.9-.1 13.2-7.4l-11.9-3.9c3.7-3.1 12.9-2.7 15.7-14.6-5.7.7-11.8 1.3-16.2-1.9l7.1-4.4c-17.4-5.4-14.8 4.1-25.5 7.1l.6-7.7c-3 2.1-5 4.1-6.5 6.8-.5-5.6-.8-8.2-3-12.6-.2 2.5-.6 5.3-1.5 7.9-.9-2.7-1.4-5.5-1.5-7.9-2.2 4.4-2.5 7-3 12.6-1.5-2.7-3.4-4.7-6.5-6.8l.6 7.7c-10.8-3-8.1-12.4-25.5-7.1l7.1 4.4c-4.4 3.2-10.5 2.6-16.2 1.9 2.8 12 12 11.5 15.7 14.6l-11.9 3.9c7.3 7.4 9.3 3.9 13.2 7.4-8.1 6.2-7.3 22.4-7 33.3-18.2-18.7-15.2-39.6-15.7-56.7-7.2 15.6-4.6 34.8 1.1 50.3 2.6 7 6.7 14.8 10.3 20.7 2.2 3.7 3.9 6.3 6.1 9.4 2.4 3.4 4.4 5.8 6.4 9.4-6.4-3.3-18.4-19.9-23.2-27.4-1.5-2.4-2.1-3.3-3.1-5.7-.2-.5-1.1-2.6-1.1-2.7l-1.9-2.9-3.5 5c-5.5-14.4-9.3-30.5-8.2-47.6.9-14.3 5.3-30.9 19.7-35.5-3.1-1.9-7.3-1.3-11.5-.6 1.4-3.5 7.7-8.7 11.4-11.1 6.2-3.8 11.2-4.1 18.9-5.4l-6.7-2.3c24.4-4.7 11.2 6 23.8 22.4zm12.1 24.5.1-.1c1 3.2 2 6.9 2.5 11.2l3.1-6c.1.2.2.5.3.7.1.3.5 1.1.6 1.4.6 1.3 0 .7 1 2.4 1.9-1.8 2.9-2.7 4-6 3.7 1.7 4.3 3.2 9 1.8 7.8-2.4 4.7-.8 9.2-1.8-1.5 4.5-7.3 5.1-12.4 5.4 1.6 1.7 5.2 4.1 7.3 5.7-5.9-.3-8.4-1.3-12.8-3.5-2.4 4.9-3 8.4-.6 13.8l2.4-6.5 3.6 5.7c.1-.2.4.4 1 .5l-2.6-8.7c7.5 3.8 8.9 15.7 7.6 26.8-1.3 11.2-5.4 19.2-18.1 14.4 1.2-8.8 14-6.7 14-16.2 0-9.3-5.5-10-14.2-14.3-1.6 1.6-2.5 3.2-4.9 4.3l-.1.1-.1-.1c-2.4-1.1-3.3-2.7-4.9-4.3-8.7 4.3-14.1 5-14.2 14.3 0 9.6 12.8 7.5 14 16.2-12.8 4.8-16.8-3.2-18.1-14.4-1.3-11.1.1-23 7.6-26.8l-2.6 8.7c.7-.1 1-.7 1-.5l3.6-5.7 2.4 6.5c2.4-5.5 1.8-9-.6-13.8-4.3 2.2-6.9 3.2-12.8 3.5 2.1-1.6 5.7-4 7.3-5.7-5.1-.2-10.9-.9-12.4-5.4 4.5 1 1.4-.6 9.2 1.8 4.6 1.5 5.3-.1 9-1.8 1.2 3.3 2.1 4.2 4 6 1-1.7.4-1 1-2.4.1-.3.4-1.1.6-1.4.1-.2.2-.5.3-.7l3.1 6c.5-4.2 1.5-8 2.5-11.2 0 .1.1.1.1.1zm0 66c2.4-.1 4.9-.3 7.5-.8l2 2.3c-3.6 1.6-6.5 2.3-9.4 2.3-2.9 0-5.8-.7-9.4-2.3l2-2.3c2.4.5 4.9.7 7.3.8zm41.2-115.4c10.6 3.2 7.9 3.2 14.7 7.9-.4-1.9-.4-2.3-1.3-4.1-1.4-2.8-1.4-1.6-2.2-4.5 4.2-4.4 5.6-4.1 12.3-3.2l-12.9-2.9c-1.7.1-4.4 2.5-5.2 3.2-3.1 2.6-1.3 1.4-5.4 3.6zm-82.3 0c-4.1-2.2-2.3-1-5.4-3.6-.8-.7-3.6-3.1-5.2-3.2l-12.9 2.9c6.7-.9 8.1-1.2 12.3 3.2-.8 2.9-.8 1.7-2.2 4.5-.9 1.8-.9 2.2-1.3 4.1 6.7-4.7 4-4.7 14.7-7.9z" style="fill-rule:evenodd;clip-rule:evenodd;fill:#161515"/><path d="M233.2 235.7c-2.4-1.1-3.3-2.7-4.9-4.3-8.7 4.3-14.1 5-14.2 14.3 0 9.6 12.8 7.5 14 16.2-12.8 4.8-16.8-3.2-18.1-14.4-1.3-11.1.1-23 7.6-26.8l-2.6 8.7c.7-.1 1-.7 1-.5l3.6-5.7 2.4 6.5c2.4-5.5 1.8-9-.6-13.8-4.3 2.2-6.9 3.2-12.8 3.5 2.1-1.6 5.7-4 7.3-5.7-5.1-.2-10.9-.9-12.4-5.4 4.5 1 1.4-.6 9.2 1.8 4.6 1.5 5.3-.1 9-1.8 1.2 3.3 2.1 4.2 4 6 1-1.7.4-1 1-2.4.1-.3.4-1.1.6-1.4.1-.2.2-.5.3-.7l3.1 6c.5-4.2 1.5-8 2.5-11.2 0 .1.1.1.1.1l.1-.1c1 3.2 2 6.9 2.5 11.2l3.1-6c.1.2.2.5.3.7.1.3.5 1.1.6 1.4.6 1.3 0 .7 1 2.4 1.9-1.8 2.9-2.7 4-6 3.7 1.7 4.3 3.2 9 1.8 7.8-2.4 4.7-.8 9.2-1.8-1.5 4.5-7.3 5.1-12.4 5.4 1.6 1.7 5.2 4.1 7.3 5.7-5.9-.3-8.4-1.3-12.8-3.5-2.4 4.9-3 8.4-.6 13.8l2.4-6.5 3.6 5.7c.1-.2.4.4 1 .5l-2.6-8.7c7.5 3.8 8.9 15.7 7.6 26.8-1.3 11.2-5.4 19.2-18.1 14.4 1.2-8.8 14-6.7 14-16.2 0-9.3-5.5-10-14.2-14.3-1.6 1.6-2.5 3.2-4.9 4.3l-.1.1-.1-.1zM221.8 274c4.4 2.4 7.9 3.4 11.5 3.5 3.5 0 7.1-1.1 11.5-3.5-.5 7.3-4.1 12.7-11.5 12.9-7.4-.3-10.9-5.6-11.5-12.9z" style="fill:#a87149;fill-rule:evenodd;clip-rule:evenodd"/><path class="st8" d="M192.2 155.5c-10.6 3.2-7.9 3.2-14.7 7.9.4-1.9.4-2.3 1.3-4.1 1.4-2.8 1.4-1.6 2.2-4.5-4.2-4.4-5.6-4.1-12.3-3.2l12.9-2.9c1.7.1 4.4 2.5 5.2 3.2 3.1 2.6 1.3 1.4 5.4 3.6z"/><path class="st11" d="m225.8 265.1 2.2 5c1.8.3 3.5.4 5.3.5 1.7-.1 3.5-.2 5.3-.5l2.2-5 1.9 7.2c-3.6 1.6-6.5 2.3-9.4 2.3-2.9 0-5.8-.7-9.4-2.3l1.9-7.2z"/><ellipse class="st11" cx="217" cy="206.5" rx="2.4" ry="2"/><ellipse class="st11" cx="249.2" cy="206.5" rx="2.4" ry="2"/><path d="M229.5 302.1c4.5 1.2 9.4 2.6 14.6 3.9v-.1l49.4 11.6c1.6.5 5.1-7.7 5.7-8.7 0 0 17.4-.6 22.3 9 .6 1.4 1 3.2.4 4.2l-.5 1.4-11.5 31.6v.1c-.2.5-.5 1.4-.8 2.3-1.2 3.5-2.4 7-5.4 9.2l-.6.4-.7.1c-9.8 2.1-37.8-6-56.7-11.5-5.8-1.7-10.8-3.1-13.9-3.9-8.4-2.1-17.9-4.4-27.5-5.8-4.1-.6-8.2-1-12.3-1.1-1.5 2-.6 6.1 3.8 8.4 1.9 1-.1 2.7 1.8 6-8.1-1-11-1.8-19.6-.5-5.3.9-11.7 2-15.4-1.4l-19.2-42.6h.2c-.9-2.2-1.5-4.2-1.6-6.1-.1-3.2 1.1-5.9 4.4-8.2 8.3-6 19.1-8 30.2-8 10.8.1 21.9 2.1 31.2 4.2 4.6.9 12.3 3 21.7 5.5z" style="fill-rule:evenodd;clip-rule:evenodd;fill:#191617"/><linearGradient id="SVGID_2_" gradientUnits="userSpaceOnUse" x1="223.491" y1="362.017" x2="233.726" y2="303.97"><stop offset="0" style="stop-color:#383838"/><stop offset=".479" style="stop-color:#262626"/><stop offset="1" style="stop-color:#0d0d0d"/></linearGradient><path d="M318.3 322.4c-14.4 5.4-92.1-18.5-111.2-22.8-18.4-4.2-43.5-7.9-58.9 3.2-4.6 3.3-3.3 7.3-.7 12.8l16 35.8c-.5-7.8 10.2-8.2 12.7-8.8 17.7-3.4 39.5 1.7 56.4 5.9 13.8 3.4 57.4 18 69.2 15.4 2.8-2.1 3.7-6.4 5.1-10.1l11.4-31.4z" style="fill-rule:evenodd;clip-rule:evenodd;fill:url(#SVGID_2_)"/><linearGradient id="SVGID_3_" gradientUnits="userSpaceOnUse" x1="165.438" y1="350.504" x2="191.889" y2="350.504"><stop offset="0" style="stop-color:#0d0d0d"/><stop offset="1" style="stop-color:#1f1f1f"/></linearGradient><path d="M188.1 344.6c-5.7-.1-25.1 1.1-22.4 9.2 2.1 6.3 16.8-1 26.2 1.8-4.2-3.4-5.6-7.8-3.8-11z" style="fill-rule:evenodd;clip-rule:evenodd;fill:url(#SVGID_3_)"/><linearGradient id="SVGID_4_" gradientUnits="userSpaceOnUse" x1="298.012" y1="316.039" x2="318.645" y2="316.039"><stop offset="0" style="stop-color:#1f1f1f"/><stop offset="1" style="stop-color:#0d0d0d"/></linearGradient><path d="M318.6 319.5c-3-6-8.1-7.5-17.7-7.5l-3 6.3c5.4 2 17.7 2.3 20.7 1.2z" style="fill-rule:evenodd;clip-rule:evenodd;fill:url(#SVGID_4_)"/><linearGradient id="SVGID_5_" gradientUnits="userSpaceOnUse" x1="227.898" y1="347.607" x2="234.274" y2="311.445"><stop offset="0" style="stop-color:#ffc742"/><stop offset=".334" style="stop-color:#ffb530"/><stop offset="1" style="stop-color:#ff8500"/></linearGradient><path d="M181.7 323.3c1.2-1.3 2.4-2.6 3.6-4-.2-1.5-.3-3.1-.5-4.6-.2-1.5-.4-3.1-.6-4.6-1.7-1.5-3.3-2.9-5-4.4-2.8.3-5.6.7-8.3 1-2.8.4-5.5.8-8.3 1.2.4 2.5.9 5 1.3 7.5.5 2.5.9 4.9 1.4 7.3.4 2.4.9 4.8 1.3 7.1s.8 4.7 1.1 7c1.2-.4 2.3-.7 3.5-1 1.2-.3 2.3-.5 3.5-.7-.2-1.5-.4-3-.7-4.5-.2-1.5-.4-3-.7-4.5.4-.1.9-.1 1.3-.2 1.1 1.4 2.2 2.7 3.2 4.1 1.1 1.4 2.1 2.9 3.2 4.3 1.4-.1 2.7-.1 4.1-.1 1.4 0 2.7 0 4.1.1-1.2-2-2.5-3.9-3.7-5.8-1.2-1.7-2.5-3.4-3.8-5.2zm-4.6-4.3c-1.6.2-3.1.5-4.7.7-.4-2.2-.8-4.4-1.1-6.7 1.6-.2 3.2-.5 4.8-.7.3 2.2.6 4.5 1 6.7zm13.9-8.7c1.5-1.7 2.9-3.4 4.4-5.1 2 .2 4 .5 5.9.7 2 .2 4 .5 5.9.7 1.2 1.8 2.4 3.6 3.5 5.4-.2 1.5-.3 3.1-.5 4.6-.2 1.5-.3 3.1-.5 4.6-.2 1.5-.3 3.1-.4 4.6-.1 1.5-.3 3.1-.4 4.6-1.5 1.7-2.9 3.4-4.3 5.1-1.9-.2-3.9-.4-5.8-.6-1.9-.2-3.9-.4-5.8-.6-1.2-1.8-2.4-3.6-3.5-5.4.1-1.6.2-3.1.3-4.7.1-1.6.2-3.1.3-4.7.1-1.6.2-3.1.3-4.7.3-1.4.4-2.9.6-4.5zm11.5 18.3.3-3.9.3-3.9c.1-1.3.2-2.6.4-3.9.1-1.3.2-2.6.4-3.9-1-.1-2.1-.2-3.1-.4-1-.1-2.1-.2-3.1-.4l-.3 3.9-.3 3.9-.3 3.9-.3 3.9c1 .1 2.1.2 3.1.3.8.3 1.9.4 2.9.5zm89.8 12.2c-.5 1.9-1 3.7-1.4 5.6.5-3.5 1.1-6.9 1.6-10.4l-4.8-1.2c-1.7 3.2-3.4 6.3-5.1 9.5.8-1.8 1.5-3.6 2.3-5.4.9-3.7 1.8-7.4 2.8-11-2.1-.5-4.1-1-6.1-1.5-1 4.5-2 8.9-3 13.4-1 4.4-2 8.9-3 13.3 2.1.5 4.3 1.1 6.4 1.6 1.6-2.9 3.1-5.8 4.7-8.8-.5 3.2-1 6.4-1.4 9.6 2.2.5 4.3 1.1 6.5 1.6 1.9-4.2 3.8-8.5 5.7-12.7 1.9-4.2 3.8-8.5 5.7-12.7-2.1-.5-4.1-1-6.2-1.5-1.7 3.5-3.2 7.1-4.7 10.6zm-31.7-5.8c-1.2 4.5-2.3 9-3.5 13.5 4.4 1.2 8.7 2.4 13.1 3.6.8-1.8 1.6-3.7 2.4-5.5-2.6-.7-5.3-1.4-7.9-2.2l1.5-5.7c2.3.6 4.6 1.3 7 1.9.8-1.8 1.6-3.6 2.4-5.5-2.6-.7-5.3-1.4-7.9-2.2.3-1.3.7-2.7 1-4 2.3.6 4.6 1.3 7 1.9.8-1.8 1.6-3.7 2.4-5.5-4.7-1.3-9.4-2.6-14-3.8-1.1 4.5-2.3 9-3.5 13.5zm-7.4 1.1c.9 4 1.8 8 2.6 11.9-2.4-.7-4.8-1.4-7.2-2.2-.7-3.3-1.3-6.6-2-9.9-.4-.1-.8-.2-1.1-.3-.8 2.9-1.6 5.7-2.4 8.6-2-.6-4.1-1.2-6.1-1.8 1.3-4.5 2.5-8.9 3.8-13.4 1.3-4.5 2.5-8.9 3.8-13.4 4.4 1.3 8.9 2.7 13.3 4 .7 1.9 1.4 3.7 2.1 5.6-.8 2.9-1.6 5.7-2.4 8.6-1.5.7-3 1.5-4.4 2.3zm-2.1-5.5-3.9-1.2 1.8-6.3 3.9 1.2-1.8 6.3zm-27.4-6.8c-.8 2.9-1.6 5.7-2.3 8.6.7 2 1.3 4.1 2 6.1 3.8 1.1 7.6 2.2 11.3 3.3.9-2 1.7-4 2.6-6l-8.4-2.4c.7-2.5 1.4-5 2-7.4.7-2.5 1.4-5 2-7.4l7.5 2.1c.8-1.8 1.7-3.6 2.5-5.5-4.1-1.2-8.2-2.3-12.3-3.5-1.6 1.2-3.1 2.4-4.6 3.6-.7 2.8-1.5 5.7-2.3 8.5z" style="fill-rule:evenodd;clip-rule:evenodd;fill:url(#SVGID_5_)"/><path class="st0" d="M145.2 307.8c2.9-5.7 19.1-10.4 14.7-8.7-4.4 1.6-12.5 7.5-13.2 14.5-1-2.2-1.5-4.1-1.5-5.8z"/><path class="st0" d="M147.2 314.8c1.3-5.6 13.3-9.8 10-8.3-3.2 1.5-8.5 7.2-7.9 13l-1.7-3.9c-.1-.3-.3-.5-.4-.8zm2.6 5.7c.7-3.9 8.7-8.3 6.6-6.9-2.2 1.5-5.9 6.3-5.1 10.1l-.4-.8-1.1-2.4zm152.5 43.8c-5.3 1.8-18.3-5.1-14.5-3.4 3.7 1.6 12.4 2.9 17.1-1.1-.8 1.9-1.6 3.5-2.6 4.5z"/><path class="st0" d="M305.3 358.7c-4.2 2.8-14.3-1.9-11.4-.9 2.9 1 9.7.6 12.9-3.4l-1.3 3.5c-.1.3-.1.5-.2.8zm1.8-5.2c-2.8 2-10.5-.1-8.3.4 2.3.4 7.5-.4 9.3-3.3l-.2.7-.8 2.2z"/></svg>