<svg xmlns="http://www.w3.org/2000/svg" width="300" height="138.683" viewBox="269 228.296 300 138.683" xml:space="preserve"><path d="M357.864 359.962c-.529-.15-1.436-.289-2.407-.289-1.31 0-1.688.252-1.688.856 0 .555.252.755 1.776.921 2.004.225 2.898.993 2.898 2.67 0 2.118-1.104 2.827-3.703 2.859h-.363c-1.001-.017-2.007-.177-2.674-.416l.416-1.738c.568.151 1.449.29 2.407.29 1.31 0 1.725-.188 1.725-.856 0-.555-.239-.819-1.888-.995-1.88-.202-2.761-.82-2.761-2.445 0-2.181 1.261-3.012 3.867-3.012 1.06 0 2.118.165 2.811.416l-.416 1.739zm5.785-.177c-.34.92-.745 2.104-1.147 3.327h2.521a76.759 76.759 0 0 1-1.045-3.327h-.329zm1.952 5.077h-3.617a69.95 69.95 0 0 0-.566 1.941h-2.168c.732-2.458 2.104-6.313 3.112-8.783h3.139c.83 2.747 2.14 6.489 3.085 8.783h-2.243a42.78 42.78 0 0 1-.742-1.941zm11.441-6.842h2.596v8.784h-1.966v-5.936c-.668 1.474-1.587 3.715-2.166 5.205h-1.614c-.555-1.463-1.425-3.793-2.053-5.205v5.936h-1.966v-8.784h2.722c.73 1.462 1.6 3.491 2.255 5.141a74.75 74.75 0 0 1 2.192-5.141zm8.367 1.765a99.87 99.87 0 0 0-1.148 3.327h2.521a76.759 76.759 0 0 1-1.045-3.327h-.328zm1.952 5.077h-3.616a63.641 63.641 0 0 0-.566 1.941h-2.167c.732-2.458 2.104-6.313 3.112-8.783h3.137c.832 2.747 2.142 6.489 3.087 8.783h-2.244a41.507 41.507 0 0 1-.743-1.941zm6.301-2.859h2.255c.442 0 .77-.313.77-1.096 0-.793-.29-1.159-.745-1.159h-2.279l-.001 2.255zm5.972 4.8h-2.532c-1.361-2.395-1.991-3.138-2.533-3.138h-.907v3.138h-2.029v-8.783h4.901c1.802 0 2.407 1.123 2.407 2.571 0 1.259-.529 2.356-2.191 2.443.592.217 1.246 1.01 2.884 3.769zm5.283-7.018c-.341.92-.744 2.104-1.147 3.327h2.52a78.177 78.177 0 0 1-1.045-3.327h-.328zm1.952 5.077h-3.616a70.317 70.317 0 0 0-.567 1.941h-2.167c.732-2.458 2.105-6.313 3.112-8.783h3.138c.832 2.747 2.141 6.489 3.087 8.783h-2.243a41.398 41.398 0 0 1-.744-1.941zm18.376-1.108c0 2.616-1.196 3.201-3.398 3.225h-.282c-2.181-.023-3.4-.608-3.4-3.225v-5.733h.919v5.746c0 2.053.906 2.419 2.633 2.419 1.738 0 2.622-.415 2.622-2.419v-5.746h.905l.001 5.733zm3.486 3.049h-.907v-8.783h1.235c1.562 2.319 3.111 4.928 4.497 7.436v-7.436h.92v8.783h-1.083a115.792 115.792 0 0 0-4.662-7.862v7.862zm8.413-8.783h.906v8.784h-.906zm9.611 0h.906c-.97 2.937-2.04 5.848-3.313 8.784h-1.197c-.932-2.949-2.19-6.353-3.3-8.784h1.033a88.935 88.935 0 0 1 2.911 8.09c1.172-2.747 2.09-5.343 2.96-8.09zm8.785 0v.756h-5.102v2.949h3.614v.756h-3.614v3.566h5.102v.757h-6.01v-8.784zm2.893.756v3.428h2.947c1.034 0 1.551-.643 1.551-1.649 0-1.147-.529-1.778-1.488-1.778h-3.01v-.001zm3.01-.756c1.954 0 2.495 1.199 2.495 2.547 0 1.233-.604 2.318-2.533 2.318.632.213 1.74 1.698 3.075 3.917h-1.133c-1.398-2.456-2.558-3.804-3.214-3.804h-1.701v3.804h-.906v-8.782h3.917zm8.169.607c-1.562 0-2.559.364-2.559 1.725 0 .882.494 1.388 2.231 1.512 2.103.165 3.037.921 3.037 2.547 0 1.836-1.379 2.547-3.466 2.569h-.174c-.771-.009-1.761-.145-2.421-.353l.252-.807c.541.201 1.538.328 2.23.328 1.549 0 2.621-.365 2.621-1.728 0-.869-.478-1.573-2.218-1.7-2.104-.15-3.061-.73-3.061-2.344 0-1.876 1.373-2.571 3.514-2.571.771 0 1.738.141 2.42.342l-.252.818c-.403-.201-1.437-.338-2.154-.338zm4.896-.607h.906v8.784h-.906zm6.674 8.783h-.919v-8.025h-3.049v-.758h7.006v.758h-3.038zm8.546 0h-.922v-4.223a66 66 0 0 0-3.426-4.561h1.146a49.181 49.181 0 0 1 2.81 3.845 54.113 54.113 0 0 0 2.772-3.845h1.045c-1.097 1.563-2.23 3.102-3.427 4.561l.002 4.223zM269 339.239c0 5.979 2.231 7.769 6.948 7.769 1.369 0 3.116-.188 4.253-.484l-.653-3.052c-.716.23-1.958.399-2.885.399-2.947 0-4.042-.548-4.042-4.59 0-4.063 1.095-4.483 4.042-4.483.927 0 2.168.147 2.885.399l.653-2.989c-1.116-.315-2.885-.526-4.253-.526-4.717-.001-6.948 1.558-6.948 7.557zm23.344 7.475h3.748c-1.579-3.832-3.769-10.085-5.158-14.675h-5.242c-1.685 4.127-3.979 10.569-5.201 14.675h3.622c.253-.905.569-2.021.947-3.242h6.043a72.033 72.033 0 0 0 1.241 3.242zm-3.958-11.727a127.069 127.069 0 0 0 1.748 5.558h-4.211a178.226 178.226 0 0 1 1.916-5.558h.547zm17.641 5.642c-1.095-2.758-2.548-6.147-3.769-8.59h-4.547v14.674h3.284v-9.916c1.052 2.357 2.505 6.252 3.432 8.694h2.695c.968-2.483 2.505-6.231 3.621-8.694v9.916h3.284v-14.674h-4.337a122.152 122.152 0 0 0-3.663 8.59zm21.723 6.085h3.748c-1.579-3.832-3.769-10.085-5.158-14.675h-5.242c-1.685 4.127-3.979 10.569-5.201 14.675h3.622c.252-.905.568-2.021.947-3.242h6.043a70.84 70.84 0 0 0 1.241 3.242zm-3.958-11.727a128.32 128.32 0 0 0 1.747 5.558h-4.21c.674-2.042 1.347-4.021 1.916-5.558h.547zm12.714 4.357v-4.4h3.664c.926 0 1.431.653 1.431 2.253 0 1.537-.589 2.147-1.473 2.147h-3.622zm0 7.37v-4.569h4.821c2.737 0 4-2.295 4-4.947 0-3.011-1.011-5.158-4.021-5.158h-8.189v14.675h3.389v-.001zm10.881-7.475c0 5.979 2.231 7.769 6.948 7.769 1.369 0 3.116-.188 4.253-.484l-.653-3.052c-.715.23-1.958.399-2.884.399-2.947 0-4.042-.548-4.042-4.59 0-4.063 1.095-4.483 4.042-4.483.926 0 2.169.147 2.884.399l.653-2.989c-1.116-.315-2.884-.526-4.253-.526-4.717-.001-6.948 1.558-6.948 7.557zm26.629 7.475c-2.126-6.38-3.622-7.496-5.18-8.085.653-.61 2.358-2.8 4.8-6.59h-4.042c-1.874 3.031-4 5.726-5.179 7.031v-7.031h-3.389v14.674h3.389v-6.842c2.316.252 3.706 1.452 5.58 6.842l4.021.001zm15.345-14.675h-4.148c-1.811 3.348-3.811 6.758-5.832 10.063v-10.063h-3.327v14.675h4.442c1.895-3.074 3.79-6.4 5.516-9.664v9.664h3.348v-14.675h.001zm17.324 0h-4.148c-1.81 3.348-3.81 6.758-5.832 10.063v-10.063h-3.327v14.675h4.443c1.894-3.074 3.79-6.4 5.516-9.664v9.664h3.348v-14.675zm-10.022-3.663c0 2.063 1.243 3.011 3.305 3.011 2.126 0 3.327-.947 3.327-3.011h-1.979c0 .905-.442 1.095-1.263 1.095-.842 0-1.263-.189-1.263-1.095h-2.127zm22.715 18.338h-1.811c.757-1.011 1.684-2.38 2.358-3.579-.863-2.737-3.39-8.19-5.159-11.096h1.726c1.432 2.569 3.263 6.338 4.379 9.495 1.579-3.137 3.326-6.778 4.253-9.495h1.578c-1.914 4.885-4.883 10.843-7.324 14.675zm11.492-7.18h7.789v7.18h1.495v-14.675h-1.495v6.127h-7.789v-6.127h-1.516v14.675h1.516v-7.18zm15.661 5.579c2.821-4.358 5.474-8.778 7.789-13.074h1.812v14.675h-1.495v-12.485c-2.316 4.189-4.947 8.611-7.559 12.485h-2.063v-14.675h1.517v13.074h-.001zm21.746.337h-5.748v-5.979h5.664c1.516 0 2.146 1.306 2.146 3.074.001 1.705-.504 2.905-2.062 2.905zm-.211-7.221h-5.537v-4.928h5.537c1.537 0 1.938.927 1.938 2.4 0 1.307-.422 2.528-1.938 2.528zm.589.589c2.611-.231 2.905-1.558 2.905-3.306 0-1.832-.568-3.474-3.495-3.474h-7.053v14.674h7.286c2.356 0 3.662-1.41 3.662-4.147.001-2-.526-3.62-3.305-3.747zm17.536-6.779v1.263h-8.527v4.928h6.043v1.263h-6.043v5.958h8.527v1.264h-10.043V332.04h10.043v-.001zm4.944 7.937v-6.675h5.116c1.579 0 2.399 1.307 2.399 3.475 0 1.874-.778 3.2-2.505 3.2h-5.01zm0 6.738v-5.39h5.137c3.032 0 4.063-2.232 4.063-4.526 0-2.527-.905-4.759-4.168-4.759h-6.548v14.674l1.516.001zm11.999-7.475c0 5.979 2.168 7.769 6.716 7.769 1.305 0 2.969-.231 4.105-.589l-.484-1.347c-.885.336-2.463.546-3.601.546-3.705 0-5.095-1.01-5.095-6.379 0-5.39 1.39-6.189 5.095-6.189 1.138 0 2.716.211 3.601.568l.484-1.368c-1.137-.337-2.801-.568-4.105-.568-4.548-.001-6.716 1.558-6.716 7.557zm15.619 5.874c2.82-4.358 5.474-8.778 7.789-13.074h1.811v14.675h-1.494v-12.485c-2.316 4.189-4.948 8.611-7.559 12.485h-2.063v-14.675h1.517v13.074h-.001zm19.114-11.811h5.074v-1.263h-11.707v1.263h5.096v13.412h1.537v-13.412zm17.998-1.263v1.263h-8.527v4.928h6.043v1.263h-6.043v5.958h8.527v1.264h-10.043V332.04h10.043v-.001zm8.061 1.263H569v-1.263h-11.706v1.263h5.096v13.412h1.536v-13.412zm-147.95-52.707c-.181.005-.362.014-.544.014-12.641 0-22.886-10.247-22.886-22.886 0-12.64 10.245-22.887 22.886-22.887.182 0 .363.009.544.013v-6.537c-.181-.003-.362-.016-.544-.016-16.251 0-29.425 13.176-29.425 29.426s13.173 29.425 29.425 29.425c.182 0 .363-.011.544-.014v-6.538zm-.544-32.68a9.807 9.807 0 0 0-9.808 9.808c0 5.418 4.391 9.809 9.808 9.809.185 0 .364-.016.544-.027.182-.006.362-.027.544-.027 9.028 0 16.347 7.318 16.347 16.347 0 9.029-7.318 16.348-16.347 16.348-.183 0-.363-.022-.544-.028v-6.539c.18.011.362.028.544.028a9.808 9.808 0 0 0 9.809-9.809c0-5.417-4.392-9.807-9.809-9.807-.183 0-.365.015-.544.028-.183.006-.359.027-.544.027-9.029 0-16.347-7.318-16.347-16.347s7.318-16.347 16.347-16.347c.185 0 .361.021.544.027v6.539c-.18-.012-.359-.03-.544-.03zm1.088 6.483c16.251 0 29.425 13.175 29.425 29.424 0 16.252-13.174 29.426-29.425 29.426-.183 0-.363-.012-.544-.012v-6.54c.182.005.362.014.544.014 12.64 0 22.886-10.246 22.886-22.888 0-12.639-10.246-22.885-22.886-22.885-.183 0-.363.009-.544.014v-6.539c.181-.003.362-.014.544-.014z"/></svg>