<svg xmlns="http://www.w3.org/2000/svg" viewBox="0 0 871.96 503.1"><defs><style>.cls-2{fill-rule:evenodd;fill:#8ac6c5}</style></defs><g id="Слой_2" data-name="Слой 2"><g id="Слой_1-2" data-name="Слой 1"><path d="M630.31 115.05c.59 5.89 11 13.41 20.16 4.17 7.39-7.46 53.9-34.32 74-41.6l.3-1c.58-1.92 1-5.64 1.44-7.55-6.76-3.72-73.71 34.1-82.7 43.18-1.07 1.07-12.1 7.34-13.2 2.8zM687 248.74c-.32-12.09 1-40.45 1.41-43.85.58-4.29.87-8.62 1.27-12.93 1.13-12.16 12.18-47.68-4-53.78 3.71 1.91 3.22 6.61 2.5 9.9A330.32 330.32 0 0 0 682.7 185c-.4 4.31-.69 8.64-1.27 12.93-.48 3.51-1.83 33.77-1.37 45.06.13 3.35 0 5.32 4.1 5.89a8.07 8.07 0 0 0 2.82-.14zm-60.59-4.92a4.78 4.78 0 0 1-4.84-.59c-3.2-7.73-4.09-15.88-4.28-24.14s1.42-16.34 3.15-24.39a98.3 98.3 0 0 1 9.66-25.29c2.85-5.39 8.44-11.77 15-8.29 6 3.17 11.34-4.71 16.39-9.22 1.61-1.43 13.51-13.9 13.65-13.9.53-.27.64-2.35.26-3.34a15.2 15.2 0 0 0-3-5 45.6 45.6 0 0 1 8.67 9.54 29 29 0 0 0-5.87 4.3c-4.24 4.18-11.38 8.62-14.72 13.6-1.41 2.11-3.12 7-4.64 11.72a5.91 5.91 0 0 1-3.72-.67c-6.59-3.48-12.18 2.9-15 8.29a98.3 98.3 0 0 0-9.66 25.29c-1.73 8-3.34 16.1-3.15 24.39a77.22 77.22 0 0 0 2.15 17.77zm-64.85 4.85c-1.45-7.65-2-17.66-2.33-18.79a11 11 0 0 0-7.27-7.87q.16.45.31.91c.62 2 1.71 30.34 7.25 27.4a13.56 13.56 0 0 0 2-1.65zM534 212.77a24.46 24.46 0 0 1 3.22-4.37c5-5.36 8.85-7.53 15.17-4.07 4 2.18 10.31 5 13.09 2.58 4.23-3.63 4.6-7.67 8.76-8.16s7.56-9.37 7.56-11.18c0-8.52-4.12-31.14-15.55-34.29 8.55 3.17 8.59 19.3 8.59 27.33 0 1.81-3.39 10.69-7.56 11.18s-4.53 4.53-8.76 8.16c-2.78 2.39-9.1-.4-13.09-2.58-6.32-3.45-10.21-1.29-15.17 4.07a24.42 24.42 0 0 0-3.71 5.26c-3.14 6-5.64 10.8-5 10.24 3.06-2.79 6.83-4.67 11-4.31l1.53.14zm-6.05-27.52c-2.05 3-3.94 6.19-6 9.25a18.92 18.92 0 0 1-2.11 2.09c.62-8.85.88-18.7 2-27.3.59-4.74 2.17-12.38 2.43-17.68a4.69 4.69 0 0 0-3.27-4.71c13.12-1.8 8.4 24.12 7.74 29.36-.36 2.88-.63 5.91-.85 9zm-50.35 47.28c2.6-15.76 4.25-39-2.43-54.35-2.16-5-11.12-14.93-16.35-17.09a21 21 0 0 1 9.41 10.13c10.67 24.52.06 69.34-1.68 71.26 1.55-1.59 6.31-5.64 11.07-9.95zm-53.25-16.39a69.19 69.19 0 0 1 5.59-16.77c5.95-11.34 15.18-6 13.67-3.44-2.44 4.21-4.7 8.6-6.76 13.15-10 22.18-15.18 47.87-11.56 71.92-2.31 1.83-4.63 1.5-6.35-4.25-3.15-10.52-.17-39.7 5.41-60.61zm-44.76 67.51c-1-8-1.39-20.91-1.72-26.37-.86-14.29 5.72-40.6 7.65-55.24.73-5.51 1.45-12.61 2.33-18.1.86-5.34-4.39-11.41-8.21-13.3a3.09 3.09 0 0 0-.52-.2c1.9.88 3.18 3.66 2.45 8.24-.88 5.49-2.28 10.9-3 16.4-1.93 14.64-8.51 41-7.65 55.24.4 6.61.92 24.16 2.42 30.63 1.38 5.92 3.79 5.68 6.27 2.71zm-50.74-.28c-.73-10.48-.45-25-.35-29.92.17-8.72 10.84-55.1 5.11-65.13-3.22-5.64-7-8.3-8.5-9 7.38 3.9-3.39 57.65-3.58 67.2-.17 8.65-.9 46.83 4.23 40.9a42.22 42.22 0 0 0 3.08-4zm-4.05-104.21-.24-.07.24.07zm-52.4 128.48v-2.52c-.18-2.17-.07-4.75-3.14-6.51a5.27 5.27 0 0 0-3.82-.54v1.88c.11 5.82.5 13.94 2.57 17.68.37.66 2.15-3.7 4.4-10zm-33 26.12c-.6-11 1.94-28.47 2.24-32.15 1.39-16.88 7.19-43.44 10.48-61 1.21-6.49.56-16-3.61-19.61 1.78 2.28-2.21 6.53-3.35 12.64-3.29 17.57-9.09 44.14-10.48 61-.43 5.18-5.28 37.59.4 41 1.87 1.12 3.27-.19 4.32-1.89zm-59 2a5.2 5.2 0 0 1-4.22-1.94c-12.94-14.18 6.86-77.72 15-90.31 9.47-14.71 16.09-13.61 19.06-10.9 6.48 5.92 27.5-15.05 26.14-21.31-1.28-5.87-3.48-9.47-6.28-11.46 5.27 3.46 11.69 11.32 13.24 18.42a3.77 3.77 0 0 1 0 1.5c-.37.07-.76.16-1.15.27-8.11 2.23-19 13.58-22.75 20.53a4 4 0 0 1-2.21-1c-3-2.7-9.58-3.81-19.06 10.9-7.37 11.44-24.39 65-17.71 85.29zm47.89-136.94a7.62 7.62 0 0 0-2.38-.76 11.18 11.18 0 0 1 2.39.76zM64.48 430.42C59.3 413 69 368.22 71 357c.94-5.22 2.36-10.36 3.46-15.56.84-4 1.3-8.11 2.3-12.07 2.07-8.19 4.31-16.35 6.63-24.48 1.92-6.73 4-13.42 6.11-20.08 2.27-7.07 4.9-14 7.34-21 1.22-3.5 2.47-7 3.88-10.41 4.24-10.27 8.68-20.46 13.18-30.61 5-11.34 12.58-22.13 19.64-32.3a161.2 161.2 0 0 1 29.92-32.87c4.33-3.56 8.88-6.71 14.35-8.25a6.94 6.94 0 0 1 .9-.19q-.14-1.29-.38-2.58a5.76 5.76 0 0 0-7.48-4.19c-5.47 1.55-10 4.69-14.35 8.25a161.2 161.2 0 0 0-29.92 32.87c-7.06 10.17-14.61 21-19.64 32.3-5.67 12.79-12.49 27.85-17.07 41-2.44 7-5.07 14-7.34 21l-12.75 44.62c-1 4-1.46 8.06-2.3 12.07-1.09 5.2-2.51 10.34-3.46 15.56-2.52 13.95-17 80.3.45 80.34zm100.14-226.78zm2.09 2.77c2.78 2.29 7.72 4.49 11 3.49a11.91 11.91 0 0 0 5.67-4.05C192 195.18 207.18 168 211.33 155c3.5-11 6.7-22.07 6.34-33.75-.25-8-3-12.12-9.18-16.29a19.85 19.85 0 0 1 2.21 9.33c.36 11.69-2.84 22.74-6.34 33.75-4.14 12.96-19.36 43.66-27.92 54.33-3.19 3.95-7.29 5-9.73 4zM.16 439.7a74.11 74.11 0 0 0 .08 10.75c-.16-3.69-.16-7.32-.08-10.77zm9.13 44.92c4.88 6.94 12.21 11.5 23.11 11.52 44.5.08 74.94-79.89 94.06-114.83 2.55-4.66 4.92-9.42 7.47-14.07 1.37-2.5 3-4.87 4.86-8a97.92 97.92 0 0 0 1.48 16.07c-2.32 4.28-4.5 8.64-6.84 12.92-19.13 34.98-49.57 114.95-94.07 114.87-15 0-24.26-7.84-30.07-18.48zm137.13-93.45c9.1 12 24.84 5.64 38.81-10.32 7-8 11.93-17.58 17.23-26.76 3-5.14.47 4.17 4.56 11.43-.9 8.9-8.58 15.9-14.83 22.29-15.68 16-36 21.4-45.78 3.36zM208.79 368c8.16 13.77 26.17 16 37.53 2.88 1.14-1.32 2.2-2.66 3.16-3.91 2.46-3.22 4.28-5.87 5.29-6.18-2.62-.48-4.84-2.38-6.23-6.45-1.45-4.26-10.56 17.05-23.19 18.35-8.61.88-13.61-1.39-16.56-4.68zm46.45-7.14c6.73.81 15.81-7.15 20-11.86 5-5.64 6.17-9.57 9.94-22.39 1-3.47 5.76-28.19 7.65-31.42.32-.54.36-.39.48 0 .85 3 1.66 7.67 2.82 12.52.26 1.1.55 2.21.86 3.31-1.93 8.21-4.14 20.12-4.85 22.51-3.77 12.82-4.93 16.75-9.94 22.39-5.94 6.68-21.73 19.91-26.69 5.34a.93.93 0 0 0-.27-.44zm47.21-37.79a9 9 0 0 0 7.48 3.66c11.8-.47 22.33-18.13 30.35-29.45 5.31-5.32 3.5-.54 4.54 5.16.25 1.39.49 2.79.75 4.17-7.83 11.11-18 25.39-29 25.83-6.23.25-10.8-4-14.1-9.37zm48.55-3.12a23.29 23.29 0 0 0 7.36 6.38c15.25 8.87 31.34-2.18 40-15.2a26 26 0 0 1-6.68-7.4c-1.11 1.75-10.45 11.78-15.88 15-5.17 3.06-17.09 9.26-23.9 2.23q-.48-.49-.91-1zm48.41-8.09a18.92 18.92 0 0 0 1.17 1.52c5.93 7.33 13.12 9.83 20.55 9.3 16.79-1.19 28.26-10 36.22-21.92 16.51-24.63-1.05-4.91 21.93-24.63 1.26-1.08 2.52-2.21 3.76-3.36.73-3 1.41-5.95 1.89-9 .44-2.79 1.22-5.78 1.41-8.61a134.87 134.87 0 0 1-14 14c-23 19.72-5.42 0-21.93 24.63-8 11.88-19.44 20.73-36.22 21.92a23.58 23.58 0 0 1-14.76-3.86zm80.69-21c.63 2.65 2.46 4.83 6.46 6.34 22.24 8.45 23.79-30.69 26-43.48.34-1.92.89-3.81 1.45-5.93.34-1.3.11-1.06 1.49-.74A70.76 70.76 0 0 1 523 249a4.72 4.72 0 0 1 2.23 2.67c.4 1.06.77 2.14 1.1 3.25-1.22-.3-2.48-.57-3.78-.87s-1.14-.56-1.49.74c-.56 2.12-1.12 4-1.45 5.93-2.23 12.78-3.77 51.93-26 43.48-5.14-2-13.39-9.57-13.42-13.3zm53.64-10.27c2.56 4.5 6.41 7.18 11.57 8.66 2.94.84 5.72.61 8-1.77 7.65-7.9 15.31-17.48 22.19-26.15 2.42-3 4-5.36 6.52-8.14.44-.48.9-1.41 1 .66.09 2.73 0 5.51.34 8.21.17 1.45.38 2.89.64 4.3-.47.62-1 1.25-1.5 1.93-6.87 8.67-14.54 18.25-22.19 26.15-2.31 2.38-5.09 2.61-8 1.77-6.28-1.79-16.1-9.14-18.53-15.62zm58.16 3.53c5.69 10.1 16.11 16.09 31 11.05 13-4.41 19.24-16.92 24.71-24.62-2.12-5.12-3.76-10.34-4.17-10.45-6.32 6.63-12.25 22.93-27.51 28.11-11 3.74-18.79 1.46-24-4.09zm65.26-1.12a16.67 16.67 0 0 0 2 3c9 10 26.84 8.87 38.23 4.39q.06-5.43.21-10.87c-7.81 6.17-27.94 10.77-40.45 3.51zm46.24 94.11c.08.15.16.3.26.45l-.26-.45zm.89 1.28c4.25 3.35 22.85-18.39 41.43-25.71 9-3.55 9.5-.69 9-11.25-5.87-126.32 1.51-176.71 8.54-278.58.15-2.22.84-3.65 3.23-4.21 12-2.84 53.63-9 74.53-16.75 9.09-3.38 20.61-7.07 23.26-11.56 3.69-6.24-5-21.28-15.07-27.55 12.18 6.28 26.05 27.72 22 34.52-2.65 4.48-14.17 8.17-23.26 11.56-20.9 7.78-62.53 13.91-74.53 16.75a3.79 3.79 0 0 0-3.19 3.85v.36c-7 101.87-14.41 152.26-8.54 278.58.49 10.56 0 7.7-9 11.25-23.53 9.26-33.29 35.71-48.39 18.75zm128.53-70.55c7.51 4.49 16.8 15.6 24.83 38.06C887.7 449.21 699.58 488 637.62 418c67.92 60.25 242.07 20.63 213.07-79-5.22-17.94-11.65-26.83-17.87-31.1zM677.94 325.3a43.41 43.41 0 0 1 9.43 10.38c8.15 12.56 3.16 10.47-6.69 11.28-3.74.31-7.54.76-10.81.95-29.46 1.68-31 4.91-67.46 3.49-13.32-.52-26.67-.44-40-.25-37.5.55-78.2 5.08-115.11 12.12-6.62 1.26-13.24 2.56-19.82 4-31.8 7-62.74 14.85-93.9 24.27-34.52 10.46-66.58 21.6-100.06 35.4-9.65 4-19 8.62-28.53 13-27.95 12.74-56.2 25.88-83.75 39.49a16.47 16.47 0 0 1-3.44 1.28c-6.4 1.56-13-2.75-11.93-6.84-.05.81 1.24.78 5-.13a16.48 16.48 0 0 0 3.44-1.28c27.55-13.62 55.8-26.75 83.75-39.49 9.5-4.33 18.88-9 28.53-13 63.11-26 127.36-44.91 194-59.65 42.52-9.41 91.7-15.49 134.93-16.13 13.33-.2 26.69-.27 40 .25 36.49 1.42 38-1.81 67.46-3.49 3.27-.19 7.07-.64 10.81-.95 9.85-.82 14.84 1.28 6.69-11.28-.82-1.15-1.65-2.3-2.54-3.42z" style="fill-rule:evenodd;fill:#454444"/><path class="cls-2" d="M76.5 424c-34.77 30.76-15.42-57.57-12.5-73.91.94-5.22 2.36-10.36 3.46-15.56.84-4 1.3-8.11 2.3-12.07l12.73-44.56c2.27-7.07 4.9-14 7.34-21 4.57-13.18 11.4-28.24 17.07-41 5-11.34 12.58-22.13 19.64-32.3a161.2 161.2 0 0 1 29.92-32.87c4.33-3.56 8.88-6.71 14.35-8.25a5.76 5.76 0 0 1 7.48 4.19c1.23 6.46.34 12.78-1.34 19-2 7.32-4.33 14.56-6.73 21.76-1.6 4.81-3.8 9.41-5.36 14.23-1.93 6 6.13 7.54 11.55.83C185 191.7 200.22 161 204.37 148c3.5-11 6.7-22.07 6.34-33.75-.28-8.92-3.63-13-11.3-17.66-9.84-6-29.81-1.6-39.67 4.33a172.93 172.93 0 0 0-25.21 19.32L115.22 142c-11.89 15.46-22.7 31.16-33.26 47.58-3.52 5.47-6.6 11.22-9.93 16.81-16 26.82-26.29 47.55-36.76 77.36-2.74 7.8-6.19 15.36-8.23 23.44-1.41 5.61-3.66 11-5.26 16.59-2.55 8.94-4.89 17.93-7.27 26.91-1.42 5.36-2.92 10.71-4.07 16.13-1.44 6.58-2.23 13.32-3.75 19.91a268.94 268.94 0 0 0-6 41.51c-1.6 22.82-2.59 67.84 31.71 67.9 44.5.08 74.94-79.89 94.06-114.83 2.55-4.66 4.92-9.42 7.47-14.07 1.37-2.5 3-4.87 4.86-8 .86 47.76 25.61 45.35 46.43 21.55 7-8 11.93-17.58 17.23-26.76 4.82-8.35-4.79 21.44 22.9 18.6 12.63-1.3 21.74-22.6 23.19-18.35 5 14.58 20.75 1.34 26.69-5.34 5-5.64 6.17-9.57 9.94-22.39 1-3.47 5.76-28.19 7.65-31.42.32-.54.36-.39.48 0 2.49 8.69 4.53 32 16.63 31.51 11.8-.47 22.33-18.13 30.35-29.45 5.31-5.32 3.5-.54 4.54 5.16 1.2 6.59 2 13.26 7.13 18.52 6.81 7 18.73.83 23.9-2.23 5.44-3.22 14.77-13.25 15.88-15 5.3 8.7 14 12.6 22.48 12 16.79-1.19 28.26-10 36.22-21.92 16.51-24.63-1.05-4.91 21.93-24.63a134.87 134.87 0 0 0 14-14c-.19 2.83-1 5.82-1.41 8.61-.81 5.1-2.2 10.11-3.43 15.13-1.95 8-4 14.81 5 18.24 22.24 8.45 23.79-30.69 26-43.48.34-1.92.89-3.81 1.45-5.93.34-1.3.11-1.06 1.49-.74A70.76 70.76 0 0 1 523 249a4.72 4.72 0 0 1 2.23 2.67c3 7.74 3.83 17.06 7.09 25.75 2.43 6.47 6.78 10.07 13.06 11.86 2.94.84 5.72.61 8-1.77 7.65-7.9 15.31-17.48 22.19-26.15 2.42-3 4-5.36 6.52-8.14.44-.48.9-1.41 1 .66.09 2.73 0 5.51.34 8.21 2.06 17.9 11.09 33.42 32.54 26.14 15.26-5.18 21.19-21.48 27.51-28.11.68.18 4.75 14.47 8.78 19 11.28 12.58 36.44 7.55 45.4.48a692 692 0 0 0 3.13 85.6c.42 4.4.6 8.89 3.16 12.88 3.38 5.26 22.6-17.72 41.82-25.28 9-3.55 9.5-.69 9-11.25-5.87-126.32 1.51-176.71 8.54-278.58.15-2.22.84-3.65 3.23-4.21 12-2.84 53.63-9 74.53-16.75 9.09-3.38 20.61-7.07 23.26-11.56 4.76-8.06-11.1-30.83-24-30.36C781.87 2.11 757 23 724.57 35.45c-35.28 15.8-71.21 39.89-93 72.93a11.13 11.13 0 0 0-1.34 5.86c0 6 12.17-.86 13.29-2 9-9.08 75.94-46.9 82.7-43.18-.47 1.91-.86 5.63-1.44 7.55-1 3.23-2.23 8.13-3.08 11.39-.91 3.5-1.49 7.09-2.23 10.63-1.57 7.44-3.33 14.85-4.67 22.34-5.74 32-9.7 68.59-13.18 101.12-.62 5.77-1.47 11.52-1.9 17.3l-.09 1.27c-5.48 5-11 8.83-15.46 8.2-4.07-.57-4-2.54-4.1-5.89-.45-11.28.9-41.54 1.37-45.06.58-4.29.87-8.62 1.27-12.93a330.32 330.32 0 0 1 5.49-36.92c.76-3.47 1.27-8.52-3.16-10.19-1.55-.59-7 2.73-9.86 5.54-4.24 4.18-11.38 8.62-14.72 13.6-2.29 3.42-5.36 14.31-7.16 19.36a115.52 115.52 0 0 0-5.3 24.18c-.76 6-2.93 11.42-4.22 17.16a45.27 45.27 0 0 1-2.29 7.25c-3.08 7.46-13.33 23.33-19.91 18.26-3.2-7.73-4.09-15.88-4.28-24.14s1.42-16.34 3.15-24.39a98.3 98.3 0 0 1 9.66-25.29c2.85-5.39 8.44-11.77 15-8.29 6 3.17 11.34-4.71 16.39-9.22 1.6-1.42 13.5-13.89 13.64-13.89.53-.27.64-2.35.26-3.34-1.64-4.29-4.93-8.34-10.77-8.22-25.15.51-47.41 26.63-68.53 76.59-2.06 4.88-3.13 10.13-6.43 14.22-15.66 19.4-28.16 32-30.17 33.11-5.55 2.94-6.63-25.45-7.25-27.4-1.76-5.55-4.81-9-19.81-10.29-4.13-.35-7.9 1.52-11 4.31-.61.56 1.89-4.23 5-10.24a24.42 24.42 0 0 1 3.71-5.26c5-5.36 8.85-7.53 15.17-4.07 4 2.18 10.31 5 13.09 2.58 4.23-3.63 4.6-7.67 8.76-8.16s7.56-9.37 7.56-11.18c0-10-.06-32.75-16.76-26.94-5 1.74-8.7 5.26-12.57 8.57l-5.58 6.89c-3.61 4.81-7.33 9.54-10.82 14.44-2.52 3.54-4.73 7.3-7.13 10.93a18.92 18.92 0 0 1-2.11 2.09c.62-8.85.88-18.7 2-27.3.59-4.74 2.17-12.38 2.43-17.68a4.68 4.68 0 0 0-5.3-4.89c-8.22-.35-22.23 3.79-23 15.26-.42 6.3-2.23 19.32-2.54 22.25-.74 6.93-3 27.15-4.22 35.58-.55 4-19.27 19.19-22.66 22.67 1.73-1.92 12.35-46.74 1.68-71.26-5.63-12.94-24.06-19.12-43.09-4.07a36.51 36.51 0 0 0-4.88 4.62c-10 10.2-20.65 31.92-29.32 72.47-2.59 12.11-.84 9.07-3.39 21-2.06 9.62-11 29.58-14.2 15.7-1.5-6.46-2-24-2.42-30.63-.86-14.29 5.72-40.6 7.65-55.24.73-5.51 2.13-10.91 3-16.4 1.21-7.58-3.1-10.23-6.57-7.48-12.87 10.22-18.36 12.77-26 28.57-3.65 7.59-5.54 22.87-6.95 31.36-1.64 9.87-4.37 26.32-6.41 35.84a45.39 45.39 0 0 1-9.92 20.43c-5.14 5.93-4.4-32.25-4.23-40.9.19-9.77 11.49-65.89 3-67.4-9.17-1.64-19.93 10.86-23 17.83-3.92 9-9.07 34-10.48 43.72-.53 3.7-4.69 24-6.85 31.23-1 3.21-15.15 47.76-16.27 45.74-2.07-3.73-2.47-11.86-2.57-17.68-.06-3 .22-6.35-3.17-8.3-2.29-1.31-5.84-1-8.21 3-11.49 19.22-7.09 25.55-14.28 38.53-1.08 2-2.58 3.72-4.66 2.48-5.68-3.41-.83-35.83-.4-41 1.39-16.88 7.19-43.44 10.48-61 1.42-7.6 7.25-12.33.9-14a8.18 8.18 0 0 0-3.91.31c-8.19 2.25-19.26 13.81-22.86 20.75a56.07 56.07 0 0 0-5.14 16.59c-5.24 30.86-4.8 46.51-24 71.17-3.74 4.8-9.24 10.21-13.74 5.28-12.94-14.18 6.86-77.72 15-90.31 9.47-14.71 16.09-13.61 19.06-10.9 6.48 5.92 27.5-15.05 26.14-21.31-2-9.17-6.24-12.8-11.52-13.4C186 193.41 160 266 151.32 294c-2.84 9.14-5.33 16.69-6.08 18.38-4.46 10-10.31 17.36-15 27.28A443.31 443.31 0 0 1 107.37 382c-4.75 7.72-9.83 15.24-14.89 22.76-4.66 6.93-9.68 13.6-16 19.18zm342.44-147.25c-4.56-15.21 3.71-69.41 14.08-81.25 4.09-3.6 7.29-4.14 9.94-.53 6.29 8.56-4.58 65.6-12.07 78.47-3.41 5.87-8.73 14.07-11.95 3.31z"/><path class="cls-2" d="M783.18 294.82c-4.39.71-7.54 14.44-8.93 21.82-.7 3.74-1.18 4.12 1.69 6.72 10.86 9.84 50.29 51.79-31 80.09-79.1 27.53-105.49-19-111.51-33.17-1.08-2.54-2.17-4.25-5-5-19.36-4.95-14.9 12.36-14.9 12.36 25.76 112.53 271.17 78.2 237.16-38.64-12.67-43.52-32.47-33.85-39-33.85s-22.49-11.31-28.51-10.33z"/><path class="cls-2" d="M620.5 311.4c-11.11.12-22.22.13-33.31.63-10 .45-20.06 1.36-30.07 2.28-12.76 1.18-25.54 2.25-38.23 4-15.18 2.07-30.27 4.83-45.4 7.24-51.9 8.26-108 23.6-158.25 39.53-7.42 2.35-14.86 4.66-22.17 7.32-20.6 7.5-41.58 16.39-61.76 25-14 6-33 14.09-46.54 21-9.66 4.92-19.12 10.23-28.79 15.14a313 313 0 0 0-29.76 17.23c-7.33 4.8-12.84 12.18-18 19.3-2.89 4-4.31 5.37 2.58 3.69a16.48 16.48 0 0 0 3.44-1.28c27.55-13.62 55.8-26.75 83.75-39.49 9.5-4.33 18.88-9 28.53-13 63.11-26 127.36-44.91 194-59.65 42.52-9.41 91.7-15.49 134.93-16.13 13.33-.2 26.69-.27 40 .25 36.49 1.42 38-1.81 67.46-3.49 3.27-.19 7.07-.64 10.81-.95 9.85-.82 14.84 1.28 6.69-11.28-4.56-7-12.25-14.14-19.09-14.84-13.58-1.39-27.16-2.64-40.82-2.5z"/></g></g></svg>